<?xml version="1.0" encoding="UTF-8" standalone="no"?>
<svg width="98px" height="86px" viewBox="0 0 98 86" version="1.1" xmlns="http://www.w3.org/2000/svg" xmlns:xlink="http://www.w3.org/1999/xlink">
    <!-- Generator: Sketch 46.2 (44496) - http://www.bohemiancoding.com/sketch -->
    <title>Group 22</title>
    <desc>Created with Sketch.</desc>
    <defs>
        <polygon id="path-1" points="6.89139181e-15 85.9996929 6.89139181e-15 0.199642857 85.7995893 0.199642857 85.7995893 85.9996929"></polygon>
        <rect id="path-3" x="0" y="12" width="37" height="15" rx="7.5"></rect>
        <rect id="path-4" x="6" y="0" width="37" height="15" rx="7.5"></rect>
    </defs>
    <g id="boryung" stroke="none" stroke-width="1" fill="none" fill-rule="evenodd">
        <g id="web" transform="translate(-966.000000, -13964.000000)">
            <g id="11_graphic_3" transform="translate(0.000000, 13435.000000)">
                <g id="Group-22" transform="translate(966.000000, 529.000000)">
                    <circle id="Oval-4" fill="#FFFFFF" cx="42" cy="43" r="41"></circle>
                    <g id="Group-17">
                        <g id="Page-1">
                            <g id="Group-3">
                                <mask id="mask-2" fill="white">
                                    <use xlink:href="#path-1"></use>
                                </mask>
                                <g id="Clip-2"></g>
                                <path d="M42.8998714,3.180925 C20.8884786,3.180925 2.98128214,21.0888893 2.98128214,43.0995143 C2.98128214,65.1109071 20.8884786,83.0188714 42.8998714,83.0188714 C64.9112643,83.0188714 82.8184607,65.1109071 82.8184607,43.0995143 C82.8184607,21.0888893 64.9112643,3.180925 42.8998714,3.180925 M42.8998714,85.9996929 C19.2444964,85.9996929 -0.000307142857,66.7548893 -0.000307142857,43.0995143 C-0.000307142857,19.4449071 19.2444964,0.199335714 42.8998714,0.199335714 C66.5544786,0.199335714 85.80005,19.4449071 85.80005,43.0995143 C85.80005,66.7548893 66.5544786,85.9996929 42.8998714,85.9996929" id="Fill-1" fill="#202020" mask="url(#mask-2)"></path>
                            </g>
                            <path d="M42.5,8.97913776 C24.0167634,8.97913776 8.97913776,24.0167634 8.97913776,42.4992328 C8.97913776,60.9824694 24.0167634,76.020095 42.5,76.020095 C60.9832366,76.020095 76.0208622,60.9824694 76.0208622,42.4992328 C76.0208622,24.0167634 60.9832366,8.97913776 42.5,8.97913776 M42.5,79 C22.3741329,79 6,62.6258671 6,42.4992328 C6,22.3733657 22.3741329,6 42.5,6 C62.6258671,6 79,22.3733657 79,42.4992328 C79,62.6258671 62.6258671,79 42.5,79" id="Fill-4" fill="#202020"></path>
                            <path d="M23.999256,32.0337419 C21.7331279,32.0337419 19.8888298,34.2619757 19.8888298,37.0003906 C19.8895738,39.7380243 21.7338718,41.9662581 23.999256,41.9662581 C26.2661282,41.9662581 28.1111702,39.7380243 28.1111702,37.0003906 C28.1111702,34.2619757 26.2661282,32.0337419 23.999256,32.0337419 M24,45 L23.999256,45 C20.1410352,44.9992187 17.000744,41.4107622 17,37.0003906 C17,32.5892378 20.1402912,29 23.999256,29 C27.8597088,29 31,32.5892378 31,37.0003906 C31,41.4107622 27.8597088,44.9992187 24,45" id="Fill-6" fill="#202020"></path>
                            <path d="M30.0011665,57.0191467 C29.4599008,57.0191467 29.018956,57.4600058 29.018956,58.0019438 C29.018956,58.5423268 29.4599008,58.9808533 30.0011665,58.9808533 C30.5408768,58.9808533 30.9802664,58.5423268 30.9802664,58.0019438 C30.9802664,57.4600058 30.5408768,57.0191467 30.0011665,57.0191467 M30.0011665,62 C27.7948868,62 26,60.2070172 26,58.0019438 C26,55.7953154 27.7948868,54 30.0011665,54 C32.2058909,54 34,55.7953154 34,58.0019438 C34,60.2070172 32.2058909,62 30.0011665,62" id="Fill-8" fill="#202020"></path>
                            <path d="M54.4957713,19.9850444 C53.1118334,19.9850444 51.9854617,21.1127961 51.9854617,22.4996156 C51.9854617,23.8864351 53.1118334,25.0149556 54.4957713,25.0149556 C55.8850912,25.0149556 57.0145383,23.8864351 57.0145383,22.4996156 C57.0145383,21.1127961 55.8850912,19.9850444 54.4957713,19.9850444 M54.4957713,28 C51.4657161,28 49,25.5330911 49,22.4996156 C49,19.4669089 51.4657161,17 54.4957713,17 C57.5304396,17 60,19.4669089 60,22.4996156 C60,25.5330911 57.5304396,28 54.4957713,28" id="Fill-10" fill="#202020"></path>
                            <path d="M34,21.5015472 C34,20.6745745 34.6698429,20 35.4972959,20 C36.3301571,20 37,20.6745745 37,21.5015472 C37,22.3292935 36.3301571,23 35.4972959,23 C34.6698429,23 34,22.3292935 34,21.5015472" id="Fill-12" fill="#202020"></path>
                            <path d="M23,36.4976804 C23,35.6688144 23.6682977,35 24.4996137,35 C25.3309297,35 26,35.6688144 26,36.4976804 C26,37.3280928 25.3317023,38 24.4996137,38 C23.6682977,38 23,37.3280928 23,36.4976804" id="Fill-14" fill="#202020"></path>
                            <path d="M45.999256,59.0337419 C43.7331279,59.0337419 41.8888298,61.2619757 41.8888298,64.0003906 C41.8895738,66.7380243 43.7338718,68.9662581 45.999256,68.9662581 C48.2661282,68.9662581 50.1111702,66.7380243 50.1111702,64.0003906 C50.1111702,61.2619757 48.2661282,59.0337419 45.999256,59.0337419 M46,72 L45.9985121,72 C42.1410352,71.9992187 39.000744,68.4107622 39,64.0003906 C39,59.5892378 42.1402912,56 45.999256,56 C49.8597088,56 53,59.5892378 53,64.0003906 C53,68.4107622 49.8597088,71.9992187 46,72" id="Fill-16" fill="#202020"></path>
                            <path d="M45,63.4976804 C45,62.6688144 45.6682977,62 46.4996137,62 C47.3309297,62 48,62.6688144 48,63.4976804 C48,64.3280928 47.3317023,65 46.4996137,65 C45.6682977,65 45,64.3280928 45,63.4976804" id="Fill-18" fill="#202020"></path>
                            <path d="M30,66.5007732 C30,65.6734536 30.6706155,65 31.4996137,65 C32.3286119,65 33,65.6734536 33,66.5007732 C33,67.3280928 32.3286119,68 31.4996137,68 C30.6706155,68 30,67.3280928 30,66.5007732" id="Fill-20" fill="#202020"></path>
                            <path d="M39.4961571,30.9856472 C38.6622545,30.9856472 37.9843723,31.6645878 37.9843723,32.4980777 C37.9843723,33.3346433 38.6622545,34.0143528 39.4961571,34.0143528 C40.3339026,34.0143528 41.0156277,33.3346433 41.0156277,32.4980777 C41.0156277,31.6645878 40.3339026,30.9856472 39.4961571,30.9856472 M39.4961571,37 C37.0167378,37 35,34.980094 35,32.4980777 C35,30.0175993 37.0167378,28 39.4961571,28 C41.9794193,28 44,30.0175993 44,32.4980777 C44,34.980094 41.9794193,37 39.4961571,37" id="Fill-22" fill="#202020"></path>
                            <path d="M46,48.4972987 C46,47.6730126 46.6737059,47 47.5019315,47 C48.3332475,47 49,47.6730126 49,48.4972987 C49,49.3293028 48.3332475,50 47.5019315,50 C46.6737059,50 46,49.3293028 46,48.4972987" id="Fill-24" fill="#202020"></path>
                            <path d="M40,23.5027069 C40,22.6658933 40.6729333,22 41.5042493,22 C42.3262941,22 43,22.6658933 43,23.5027069 C43,24.3271462 42.3262941,25 41.5042493,25 C40.6729333,25 40,24.3271462 40,23.5027069" id="Fill-26" fill="#202020"></path>
                            <path d="M60.0060222,36.9110513 C57.7936337,36.911801 55.924508,39.4704974 55.9230025,42.4992503 C55.924508,45.5287529 57.7891171,48.0889487 59.9954834,48.0889487 L59.9954834,49.5448492 L59.9984945,48.0889487 C62.2101301,48.088199 64.0762448,45.5302522 64.0769975,42.5022491 C64.0762448,39.4719968 62.2116357,36.9110513 60.0060222,36.9110513 L60.0060222,36.9110513 Z M59.9954834,51 C56.1398,51 53.0015055,47.1863203 53,42.4992503 C53.0030111,37.81293 56.1435638,34.0007497 60.0022583,34 C63.8609528,34 66.9984945,37.8136797 67,42.5022491 C66.9984945,47.1878197 63.8594473,50.9992503 60.0030111,51 L59.9954834,51 Z" id="Fill-28" fill="#202020"></path>
                            <path d="M60.5007721,37 C59.6735323,37 59.0023172,36.307412 59.0015448,35.4530343 L59,31.5477627 C59,30.6933849 59.6704427,30 60.4984549,30 L60.4992273,30 C61.3272394,30 61.9984545,30.692588 61.9984545,31.5469657 L61.9999993,35.4522373 C62.0007717,36.3066151 61.330329,37 60.5023169,37 L60.5007721,37 Z" id="Fill-30" fill="#202020"></path>
                            <path d="M56.4150366,40 C56.0092533,40 55.60347,39.8448663 55.2948461,39.5354154 L52.4641606,36.7062666 C51.8452798,36.0873648 51.8452798,35.0830782 52.4641606,34.4641764 C53.0830413,33.8452745 54.0881102,33.8452745 54.7061745,34.4641764 L57.5352271,37.2941417 C58.1549243,37.9130435 58.1549243,38.9165136 57.5352271,39.5354154 C57.2257867,39.8448663 56.8208199,40 56.4150366,40" id="Fill-32" fill="#202020"></path>
                            <path d="M50.5474942,44 C49.6936222,44 49.000798,43.3300746 49.0000007,42.5034731 C48.9992034,41.675328 49.6912304,41.0030872 50.5458997,41.0030872 L54.4509092,41 L54.4525037,41 C55.307173,41 55.9999973,41.6691536 55.9999973,42.4972987 C56.0015918,43.324672 55.3087675,43.9953692 54.4540982,43.9969128 L50.5482915,44 L50.5474942,44 Z" id="Fill-34" fill="#202020"></path>
                            <path d="M53.5850925,53 C53.1801188,53 52.7743286,52.8448452 52.4640665,52.5353522 C51.8451752,51.9155495 51.8451752,50.9119428 52.4648829,50.2937734 L55.2939836,47.4642395 C55.9136914,46.8452535 56.9163279,46.8452535 57.5352192,47.4642395 C58.1549269,48.0840422 58.1549269,49.0876489 57.5352192,49.7066349 L54.7061185,52.5361688 C54.3966729,52.8448452 53.9908827,53 53.5850925,53" id="Fill-36" fill="#202020"></path>
                            <path d="M60.5003863,56 C59.6729337,56 59.0015459,55.307412 59.0007733,54.4530343 L59.0000007,50.5485597 C58.9992281,49.6941819 59.6698433,49.000797 60.4980685,49 L60.4996137,49 C61.3270663,49 61.9984541,49.692588 61.9992267,50.5469657 L61.9999993,54.4514403 C62.0007719,55.3058181 61.3293841,55.999203 60.5011589,56 L60.5003863,56 Z" id="Fill-38" fill="#202020"></path>
                            <path d="M67.4149345,53 C67.0083347,53 66.6033679,52.8456513 66.2939275,52.5361372 L63.464875,49.7064108 C62.8451778,49.0873826 62.8451778,48.0837076 63.4640586,47.4646795 C64.0837558,46.8448346 65.0863752,46.8456513 65.7060725,47.4638628 L68.535125,50.2935892 C69.1548222,50.9118007 69.1548222,51.9162924 68.5359414,52.5361372 C68.2256846,52.8456513 67.8199013,53 67.4149345,53" id="Fill-40" fill="#202020"></path>
                            <path d="M65.5469657,44 C64.6941823,44 64.0015947,43.3302469 64.0000007,42.503858 C63.9992037,41.6759259 64.6909943,41.0046296 65.5453717,41.0030864 L69.4506413,41 L69.4522353,41 C70.3066126,41 70.9984033,41.6689815 70.9999973,42.4969136 C71.0015912,43.3240741 70.3090036,43.9945988 69.4538293,43.996142 L65.5485596,44 L65.5469657,44 Z" id="Fill-42" fill="#202020"></path>
                            <path d="M64.5852331,40 C64.1793807,40 63.774345,39.8456565 63.464852,39.536153 C62.8450493,38.9171459 62.8450493,37.9126884 63.464852,37.2944979 L66.2943858,34.4648678 C66.9125553,33.8450441 67.9169786,33.8450441 68.535148,34.4648678 C69.1549507,35.0838749 69.1549507,36.0875157 68.535148,36.7065228 L65.7056142,39.536153 C65.3969377,39.8456565 64.9910854,40 64.5852331,40" id="Fill-44" fill="#202020"></path>
                        </g>
                        <g id="Group-8" transform="translate(55.000000, 55.000000)">
                            <g id="Rectangle-10-Copy-4">
                                <use fill="#FFFFFF" fill-rule="evenodd" xlink:href="#path-3"></use>
                                <rect stroke="#3C3C3C" stroke-width="3" x="1.5" y="13.5" width="34" height="12" rx="6"></rect>
                            </g>
                            <g id="Rectangle-10-Copy-5">
                                <use fill="#FFFFFF" fill-rule="evenodd" xlink:href="#path-4"></use>
                                <rect stroke="#3C3C3C" stroke-width="3" x="7.5" y="1.5" width="34" height="12" rx="6"></rect>
                            </g>
                            <path d="M18,14 L18,25" id="Line" stroke="#444444" stroke-width="3" stroke-linecap="square"></path>
                            <path d="M24,2 L24,13" id="Line-Copy" stroke="#444444" stroke-width="3" stroke-linecap="square"></path>
                        </g>
                    </g>
                </g>
            </g>
        </g>
    </g>
</svg>