<?xml version="1.0" encoding="UTF-8" standalone="no"?>
<svg width="108px" height="95px" viewBox="0 0 108 95" version="1.1" xmlns="http://www.w3.org/2000/svg" xmlns:xlink="http://www.w3.org/1999/xlink">
    <!-- Generator: Sketch 46.2 (44496) - http://www.bohemiancoding.com/sketch -->
    <title>Group 12</title>
    <desc>Created with Sketch.</desc>
    <defs>
        <polygon id="path-1" points="0 91.1997692 47.5511336 91.1997692 47.5511336 0.394194044 0 0.394194044"></polygon>
    </defs>
    <g id="boryung" stroke="none" stroke-width="1" fill="none" fill-rule="evenodd">
        <g id="web" transform="translate(-302.000000, -13961.000000)">
            <g id="11_graphic_3" transform="translate(0.000000, 13435.000000)">
                <g id="Group-12" transform="translate(302.000000, 526.000000)">
                    <g id="Page-1">
                        <polygon id="Fill-1" fill="#333333" points="22.687078 62.5708293 24.9557858 62.5708293 24.9557858 52.3319663 22.687078 52.3319663"></polygon>
                        <polygon id="Fill-2" fill="#333333" points="19.2840163 59.157875 29.4932014 59.157875 29.4932014 55.7449207 19.2840163 55.7449207"></polygon>
                        <g id="Group-15">
                            <path d="M23.7756379,48.6890695 C19.2886756,48.6890695 15.6386634,52.5586531 15.6386634,57.314608 C15.6386634,62.0713166 19.2886756,65.9416539 23.7756379,65.9416539 C28.2626001,65.9416539 31.9119013,62.0713166 31.9119013,57.314608 C31.9119013,52.5586531 28.2626001,48.6890695 23.7756379,48.6890695 Z M23.7756379,68.8698449 C17.7648151,68.8698449 12.8746662,63.6857787 12.8746662,57.314608 C12.8746662,50.9434374 17.7648151,45.7601249 23.7756379,45.7601249 C29.7864607,45.7601249 34.6758985,50.9434374 34.6758985,57.314608 C34.6758985,63.6857787 29.7864607,68.8698449 23.7756379,68.8698449 Z" id="Fill-3" fill="#333333"></path>
                            <mask id="mask-2" fill="white">
                                <use xlink:href="#path-1"></use>
                            </mask>
                            <g id="Clip-6"></g>
                            <polygon id="Fill-5" fill="#333333" mask="url(#mask-2)" points="1.38235414 44.261283 46.1694905 44.261283 46.1694905 41.3315847 1.38235414 41.3315847"></polygon>
                            <polygon id="Fill-7" fill="#333333" mask="url(#mask-2)" points="1.38235414 73.298988 46.1694905 73.298988 46.1694905 70.3692897 1.38235414 70.3692897"></polygon>
                            <path d="M2.76385497,88.2702969 L44.7877052,88.2702969 L44.7877052,42.7962831 C44.7877052,36.847194 42.6018222,31.2546131 38.6332428,27.0466106 C36.2162563,24.4839724 33.3384851,22.6351044 30.0809932,21.5520129 L29.113203,21.2301757 L29.113203,17.5648494 L18.4404904,17.5648494 L18.4404904,21.2301757 L17.4719892,21.5520129 C14.2137862,22.6351044 11.336015,24.4839724 8.91831746,27.0466106 C4.94973801,31.2531057 2.76385497,36.8464403 2.76385497,42.7962831 L2.76385497,88.2702969 Z M47.5509914,91.1999953 L-0.000142217504,91.1999953 L-0.000142217504,42.7962831 C-0.000142217504,36.064082 2.47373127,29.7358732 6.96424896,24.975396 C9.45803289,22.3321101 12.3848691,20.3588787 15.6764933,19.1024323 L15.6764933,14.6359048 L31.8764891,14.6359048 L31.8764891,19.1024323 C35.1674022,20.3596324 38.0949495,22.3321101 40.5880224,24.9761497 C45.07854,29.7366269 47.5509914,36.0648357 47.5509914,42.7962831 L47.5509914,91.1999953 Z" id="Fill-8" fill="#333333" mask="url(#mask-2)"></path>
                            <path d="M9.53099047,38.2430027 L6.88361163,37.4026082 C7.71060642,34.4774321 9.24086676,31.7730951 11.3079982,29.5820395 C13.3331754,27.427916 15.7466065,25.8760125 18.4800269,24.9685371 L19.3055995,27.7648276 C17.0038092,28.5275893 14.97081,29.8360422 13.2642,31.650993 C11.5170579,33.5028759 10.2271452,35.780609 9.53099047,38.2430027" id="Fill-9" fill="#333333" mask="url(#mask-2)"></path>
                            <path d="M12.8415295,14.6356787 L34.7124484,14.6356787 L34.7124484,3.32389241 L12.8415295,3.32389241 L12.8415295,14.6356787 Z M10.0775323,17.565377 L37.4750234,17.565377 L37.4750234,0.394947761 L10.0775323,0.394947761 L10.0775323,17.565377 Z" id="Fill-10" fill="#333333" mask="url(#mask-2)"></path>
                            <polygon id="Fill-11" fill="#333333" mask="url(#mask-2)" points="15.0039467 12.290111 17.7679439 12.290111 17.7679439 5.66946003 15.0039467 5.66946003"></polygon>
                            <polygon id="Fill-12" fill="#333333" mask="url(#mask-2)" points="19.9310721 12.290111 22.6943582 12.290111 22.6943582 5.66946003 19.9310721 5.66946003"></polygon>
                            <polygon id="Fill-13" fill="#333333" mask="url(#mask-2)" points="24.8574864 12.290111 27.6207726 12.290111 27.6207726 5.66946003 24.8574864 5.66946003"></polygon>
                            <polygon id="Fill-14" fill="#333333" mask="url(#mask-2)" points="29.7839008 12.290111 32.547898 12.290111 32.547898 5.66946003 29.7839008 5.66946003"></polygon>
                        </g>
                    </g>
                    <g id="Page-1" transform="translate(47.000000, 1.000000)" stroke="#333333" stroke-width="2.5">
                        <path d="M16.1111111,92 L0,82.372093" id="Stroke-1"></path>
                        <path d="M25.7777778,82.372093 L3.22222222,69.5348837" id="Stroke-3"></path>
                        <path d="M8.59259259,71.8149081 L31.6115655,31.3595962 C32.2402722,30.2549726 33.5453963,29.7163924 34.7789541,30.0528143 C38.3234126,31.0201228 41.5731409,32.837259 44.241104,35.3440222 C45.1691581,36.2167358 45.3800095,37.6028553 44.7513029,38.706716 L21.7323299,79.1627907" id="Stroke-5"></path>
                        <polyline id="Stroke-7" points="18.2592593 77.4647102 11.8562203 88.7906977 5.37037037 85.139941 11.7726496 73.8139535"></polyline>
                        <path d="M37,31.021732 L38.7870448,27.8663743 C39.7740753,26.1242384 41.9922966,25.5085408 43.742235,26.4908482 C45.4914313,27.4738948 46.1096241,29.6831626 45.1225935,31.4260376 L43.3362909,34.5813953" id="Stroke-9"></path>
                        <path d="M44,25.6976744 L59.037037,0.023255814" id="Stroke-11"></path>
                        <path d="M41.8888889,42.7906977 L35.4444444,39.5813953" id="Stroke-13"></path>
                        <path d="M38.6666667,48.1395349 L35.4444444,46" id="Stroke-15"></path>
                        <path d="M36.5185185,52.4186047 L30.0740741,49.2093023" id="Stroke-17"></path>
                        <path d="M33.2962963,58.8372093 L30.0740741,56.6976744" id="Stroke-19"></path>
                        <path d="M31.1481481,63.1162791 L24.7037037,59.9069767" id="Stroke-21"></path>
                        <path d="M27.9259259,68.4651163 L24.7037037,66.3255814" id="Stroke-23"></path>
                        <path d="M24.7037037,72.744186 L18.2592593,69.5348837" id="Stroke-25"></path>
                    </g>
                </g>
            </g>
        </g>
    </g>
</svg>