<?xml version="1.0" encoding="UTF-8" standalone="no"?>
<svg width="106px" height="99px" viewBox="0 0 106 99" version="1.1" xmlns="http://www.w3.org/2000/svg" xmlns:xlink="http://www.w3.org/1999/xlink">
    <!-- Generator: Sketch 46.2 (44496) - http://www.bohemiancoding.com/sketch -->
    <title>Group 11</title>
    <desc>Created with Sketch.</desc>
    <defs>
        <rect id="path-1" x="0" y="0" width="54" height="84" rx="8"></rect>
        <path d="M19,5 C19,7.76142375 17.1771593,10 14.9285714,10 L4.07142857,10 C1.82284066,10 0,7.76142375 0,5 C0,2.23857625 1.82284066,0 4.07142857,0 L14.9285714,2.22044605e-15 C17.1771593,2.22044605e-15 19,2.23857625 19,5 Z" id="path-2"></path>
        <path d="M19,21 C19,23.7614237 17.1771593,26 14.9285714,26 L4.07142857,26 C1.82284066,26 0,23.7614237 0,21 C0,18.2385763 1.82284066,16 4.07142857,16 L14.9285714,16 C17.1771593,16 19,18.2385763 19,21 Z" id="path-3"></path>
        <path d="M19,37 C19,39.7614237 17.1771593,42 14.9285714,42 L4.07142857,42 C1.82284066,42 0,39.7614237 0,37 C0,34.2385763 1.82284066,32 4.07142857,32 L14.9285714,32 C17.1771593,32 19,34.2385763 19,37 Z" id="path-4"></path>
        <path d="M19,53 C19,55.7614237 17.1771593,58 14.9285714,58 L4.07142857,58 C1.82284066,58 0,55.7614237 0,53 C0,50.2385763 1.82284066,48 4.07142857,48 L14.9285714,48 C17.1771593,48 19,50.2385763 19,53 Z" id="path-5"></path>
        <path d="M41,5 C41,7.76142375 39.1771593,10 36.9285714,10 L26.0714286,10 C23.8228407,10 22,7.76142375 22,5 C22,2.23857625 23.8228407,0 26.0714286,0 L36.9285714,2.22044605e-15 C39.1771593,2.22044605e-15 41,2.23857625 41,5 Z" id="path-6"></path>
        <path d="M41,21 C41,23.7614237 39.1771593,26 36.9285714,26 L26.0714286,26 C23.8228407,26 22,23.7614237 22,21 C22,18.2385763 23.8228407,16 26.0714286,16 L36.9285714,16 C39.1771593,16 41,18.2385763 41,21 Z" id="path-7"></path>
        <path d="M41,37 C41,39.7614237 39.1771593,42 36.9285714,42 L26.0714286,42 C23.8228407,42 22,39.7614237 22,37 C22,34.2385763 23.8228407,32 26.0714286,32 L36.9285714,32 C39.1771593,32 41,34.2385763 41,37 Z" id="path-8"></path>
        <path d="M41,53 C41,55.7614237 39.1771593,58 36.9285714,58 L26.0714286,58 C23.8228407,58 22,55.7614237 22,53 C22,50.2385763 23.8228407,48 26.0714286,48 L36.9285714,48 C39.1771593,48 41,50.2385763 41,53 Z" id="path-9"></path>
        <rect id="path-10" x="0" y="26" width="42" height="24" rx="12"></rect>
        <rect id="path-11" x="30" y="0" width="42" height="24" rx="12"></rect>
    </defs>
    <g id="boryung" stroke="none" stroke-width="1" fill="none" fill-rule="evenodd">
        <g id="web" transform="translate(-742.000000, -13958.000000)">
            <g id="11_graphic_3" transform="translate(0.000000, 13435.000000)">
                <g id="Group-11" transform="translate(742.000000, 523.000000)">
                    <g id="Group-8-Copy">
                        <g id="Rectangle-9">
                            <use fill="#FFFFFF" fill-rule="evenodd" xlink:href="#path-1"></use>
                            <rect stroke="#333333" stroke-width="3" x="1.5" y="1.5" width="51" height="81" rx="8"></rect>
                        </g>
                        <g id="Group-7" transform="translate(7.000000, 12.000000)">
                            <g id="Rectangle-13">
                                <use fill="#FFFFFF" fill-rule="evenodd" xlink:href="#path-2"></use>
                                <path stroke="#333333" stroke-width="3" d="M17.5,5 C17.5,3.00688544 16.2729647,1.5 14.9285714,1.5 L4.07142857,1.5 C2.72703528,1.5 1.5,3.00688544 1.5,5 C1.5,6.99311456 2.72703528,8.5 4.07142857,8.5 L14.9285714,8.5 C16.2729647,8.5 17.5,6.99311456 17.5,5 Z"></path>
                            </g>
                            <g id="Rectangle-13-Copy-2">
                                <use fill="#FFFFFF" fill-rule="evenodd" xlink:href="#path-3"></use>
                                <path stroke="#333333" stroke-width="3" d="M17.5,21 C17.5,19.0068854 16.2729647,17.5 14.9285714,17.5 L4.07142857,17.5 C2.72703528,17.5 1.5,19.0068854 1.5,21 C1.5,22.9931146 2.72703528,24.5 4.07142857,24.5 L14.9285714,24.5 C16.2729647,24.5 17.5,22.9931146 17.5,21 Z"></path>
                            </g>
                            <g id="Rectangle-13-Copy-4">
                                <use fill="#FFFFFF" fill-rule="evenodd" xlink:href="#path-4"></use>
                                <path stroke="#333333" stroke-width="3" d="M17.5,37 C17.5,35.0068854 16.2729647,33.5 14.9285714,33.5 L4.07142857,33.5 C2.72703528,33.5 1.5,35.0068854 1.5,37 C1.5,38.9931146 2.72703528,40.5 4.07142857,40.5 L14.9285714,40.5 C16.2729647,40.5 17.5,38.9931146 17.5,37 Z"></path>
                            </g>
                            <g id="Rectangle-13-Copy-6">
                                <use fill="#FFFFFF" fill-rule="evenodd" xlink:href="#path-5"></use>
                                <path stroke="#333333" stroke-width="3" d="M17.5,53 C17.5,51.0068854 16.2729647,49.5 14.9285714,49.5 L4.07142857,49.5 C2.72703528,49.5 1.5,51.0068854 1.5,53 C1.5,54.9931146 2.72703528,56.5 4.07142857,56.5 L14.9285714,56.5 C16.2729647,56.5 17.5,54.9931146 17.5,53 Z"></path>
                            </g>
                            <g id="Rectangle-13-Copy">
                                <use fill="#FFFFFF" fill-rule="evenodd" xlink:href="#path-6"></use>
                                <path stroke="#333333" stroke-width="3" d="M39.5,5 C39.5,3.00688544 38.2729647,1.5 36.9285714,1.5 L26.0714286,1.5 C24.7270353,1.5 23.5,3.00688544 23.5,5 C23.5,6.99311456 24.7270353,8.5 26.0714286,8.5 L36.9285714,8.5 C38.2729647,8.5 39.5,6.99311456 39.5,5 Z"></path>
                            </g>
                            <g id="Rectangle-13-Copy-3">
                                <use fill="#FFFFFF" fill-rule="evenodd" xlink:href="#path-7"></use>
                                <path stroke="#333333" stroke-width="3" d="M39.5,21 C39.5,19.0068854 38.2729647,17.5 36.9285714,17.5 L26.0714286,17.5 C24.7270353,17.5 23.5,19.0068854 23.5,21 C23.5,22.9931146 24.7270353,24.5 26.0714286,24.5 L36.9285714,24.5 C38.2729647,24.5 39.5,22.9931146 39.5,21 Z"></path>
                            </g>
                            <g id="Rectangle-13-Copy-5">
                                <use fill="#FFFFFF" fill-rule="evenodd" xlink:href="#path-8"></use>
                                <path stroke="#333333" stroke-width="3" d="M39.5,37 C39.5,35.0068854 38.2729647,33.5 36.9285714,33.5 L26.0714286,33.5 C24.7270353,33.5 23.5,35.0068854 23.5,37 C23.5,38.9931146 24.7270353,40.5 26.0714286,40.5 L36.9285714,40.5 C38.2729647,40.5 39.5,38.9931146 39.5,37 Z"></path>
                            </g>
                            <g id="Rectangle-13-Copy-7">
                                <use fill="#FFFFFF" fill-rule="evenodd" xlink:href="#path-9"></use>
                                <path stroke="#333333" stroke-width="3" d="M39.5,53 C39.5,51.0068854 38.2729647,49.5 36.9285714,49.5 L26.0714286,49.5 C24.7270353,49.5 23.5,51.0068854 23.5,53 C23.5,54.9931146 24.7270353,56.5 26.0714286,56.5 L36.9285714,56.5 C38.2729647,56.5 39.5,54.9931146 39.5,53 Z"></path>
                            </g>
                        </g>
                    </g>
                    <g id="Group-13" transform="translate(34.000000, 49.000000)">
                        <g id="Rectangle-10">
                            <use fill="#FFFFFF" fill-rule="evenodd" xlink:href="#path-10"></use>
                            <rect stroke="#333333" stroke-width="3" x="1.5" y="27.5" width="39" height="21" rx="10.5"></rect>
                        </g>
                        <g id="Rectangle-10-Copy">
                            <use fill="#FFFFFF" fill-rule="evenodd" xlink:href="#path-11"></use>
                            <rect stroke="#333333" stroke-width="3" x="31.5" y="1.5" width="39" height="21" rx="10.5"></rect>
                        </g>
                        <path d="M9,42.2600217 L9,40.9848321 L13.5917407,35.5384615 L9.15054888,35.5384615 L9.15054888,33.9295775 L16.2639833,33.9295775 L16.2639833,35.2166847 L11.6847883,40.6392199 L16.3392577,40.6392199 L16.3392577,42.2600217 L9,42.2600217 Z M20.2598014,44 L20.2598014,33 L21.8154731,33 L21.8154731,44 L20.2598014,44 Z M29.963931,42.2600217 L28.0067956,42.2600217 L28.0067956,38.9707476 L24.9707266,33.9295775 L27.0909566,33.9295775 L28.9853633,37.028169 L30.87977,33.9295775 L33,33.9295775 L29.963931,38.9707476 L29.963931,42.2600217 Z" id="Z-|-Y" fill="#333333"></path>
                        <path d="M39,16.2600217 L39,14.9848321 L43.5917407,9.53846154 L39.1505489,9.53846154 L39.1505489,7.92957746 L46.2639833,7.92957746 L46.2639833,9.21668472 L41.6847883,14.6392199 L46.3392577,14.6392199 L46.3392577,16.2600217 L39,16.2600217 Z M50.2598014,18 L50.2598014,7 L51.8154731,7 L51.8154731,18 L50.2598014,18 Z M59.963931,16.2600217 L58.0067956,16.2600217 L58.0067956,12.9707476 L54.9707266,7.92957746 L57.0909566,7.92957746 L58.9853633,11.028169 L60.87977,7.92957746 L63,7.92957746 L59.963931,12.9707476 L59.963931,16.2600217 Z" id="Z-|-Y-Copy" fill="#333333"></path>
                    </g>
                </g>
            </g>
        </g>
    </g>
</svg>