<?xml version="1.0" encoding="UTF-8" standalone="no"?>
<svg width="353px" height="121px" viewBox="0 0 353 121" version="1.1" xmlns="http://www.w3.org/2000/svg" xmlns:xlink="http://www.w3.org/1999/xlink">
    <!-- Generator: Sketch 46.2 (44496) - http://www.bohemiancoding.com/sketch -->
    <title>이제는글로벌보령_title</title>
    <desc>Created with Sketch.</desc>
    <defs>
        <polygon id="path-1" points="0.0410400412 0.017681499 81.929158 0.017681499 81.929158 117.056 0.0410400412 117.056 0.0410400412 0.017681499"></polygon>
        <polygon id="path-3" points="0 44.9534736 0 0.0385618812 33.9447635 0.0385618812 33.9447635 44.9534736"></polygon>
    </defs>
    <g id="boryung" stroke="none" stroke-width="1" fill="none" fill-rule="evenodd">
        <g id="web" transform="translate(-254.000000, -3744.000000)">
            <g id="4_interview" transform="translate(0.000000, 3538.000000)">
                <g id="이제는글로벌보령_title" transform="translate(254.000000, 212.000000)">
                    <g id="Group-3" transform="translate(313.501953, 54.332031) rotate(-2.000000) translate(-313.501953, -54.332031) translate(272.501953, -4.667969)">
                        <mask id="mask-2" fill="white">
                            <use xlink:href="#path-1"></use>
                        </mask>
                        <g id="Clip-2"></g>
                        <path d="M42.3445978,78.0943394 C41.5730489,77.9357281 41.1196152,78.3585174 40.6582435,78.6126237 C38.2488663,79.9394821 35.8871914,81.35251 33.4712992,82.6671331 C28.6726891,85.2784742 24.3564188,88.571784 20.1209503,91.9764051 C16.8733759,94.5869255 13.8727001,97.4688606 11.0035987,100.486055 C10.3720864,101.150119 9.73600603,101.812392 9.1452316,102.511744 C8.66498868,103.080163 8.84493936,103.609414 9.54796767,103.759147 C11.5614234,104.188129 13.6017631,104.395681 15.6589521,104.314063 C19.9198818,104.145007 24.0698307,103.295996 28.1550782,102.134687 C32.5704974,100.87945 36.9653978,99.5527409 41.3722051,98.2672885 C45.4552809,97.0762866 49.4082051,95.5700765 53.0836024,93.4127844 C54.1776846,92.770655 55.2490763,92.0716763 56.249701,91.2949586 C57.3247622,90.4604217 57.3160754,89.037919 56.2869942,88.1825672 C54.2903878,86.5231174 52.0647056,85.3985144 49.4040115,85.2261011 C47.4991403,85.1026291 45.6007092,84.8753808 43.7013795,84.674692 C43.2246563,84.6243333 42.7560206,84.4980263 42.1974471,84.3899229 C42.1035403,82.2344213 41.9538435,80.1748624 42.3445978,78.0943394 M49.9481321,74.2543953 C50.6866563,74.6224987 51.0300079,74.9237556 51.3973229,74.956209 C54.5542106,75.2356812 57.1226453,76.8858798 59.7345887,78.4398374 C59.9760206,78.5835275 60.1735695,78.7986897 60.4099092,78.95275 C63.5456042,80.9970148 65.2633357,83.9930218 66.2423932,87.5017921 C66.5310782,88.536421 66.6783037,89.5644099 66.5237394,90.6344017 C66.4431622,91.1923761 66.3795092,91.7584079 66.377712,92.3209332 C66.3703732,94.5776744 65.5145028,96.5417383 64.5063896,98.5218424 C62.5860919,102.293299 59.6050362,105.079217 56.2674489,107.48681 C54.5655932,108.714443 52.5556572,109.525703 50.6601467,110.476028 C49.776943,110.918811 48.7985595,111.176573 47.9259147,111.636218 C44.6164097,113.379375 41.0377649,114.141395 37.3801156,114.699593 C34.0249302,115.211685 30.6920608,115.867841 27.3409942,116.408954 C24.4755622,116.871657 21.5917083,117.046906 18.6796974,117.055933 C15.4992955,117.065706 12.5323932,116.248254 9.56953479,115.277264 C7.94436219,114.744655 6.82781425,113.667277 5.88065808,112.269917 C3.87798594,109.315017 2.72189826,105.999251 1.52507269,102.691543 C1.23721151,101.895801 0.932351233,101.104311 0.593717443,100.328936 C-0.371935525,98.1177791 -0.0297072146,96.0409117 1.28933205,94.109898 C2.00441699,93.0631831 2.77529187,92.0323592 3.65445169,91.1223215 C9.90629644,84.6505945 16.6765759,78.7828734 24.1499585,73.7328283 C27.2601923,71.6310427 30.5721686,69.8797537 33.8145759,68.005664 C35.7702946,66.8753163 37.7260133,65.7557865 39.7990782,64.8383629 C40.7177028,64.4318376 41.3370837,63.663625 41.6773649,62.6586891 C43.1015439,58.4536258 44.5696809,54.2633343 46.0098855,50.0637172 C46.1186197,49.7465693 46.1347202,49.3979379 46.1782289,49.1521874 C45.8549467,48.6734441 45.4859092,48.7599864 45.1537156,48.8284742 C43.6299384,49.1427871 42.1118526,49.4850025 40.5887494,49.8034187 C37.5449394,50.4396542 34.5003805,51.0725325 31.4536499,51.6951153 C30.1627677,51.9589202 29.129343,51.4827881 28.4239184,50.2917115 C27.1590964,48.156055 26.2660079,45.8672335 25.5691951,43.3687705 C25.9911019,43.223439 26.3634343,43.0500559 26.7548626,42.9675422 C30.0812919,42.2661761 33.430112,41.7199894 36.8213174,41.4157482 C38.0124517,41.3088386 39.1843403,40.9824396 40.3631184,40.7472831 C42.513091,40.3184508 44.6620152,39.8845453 46.8106398,39.4492224 C47.3655439,39.3367919 47.9170782,39.2083213 48.4713832,39.0927574 C49.7174088,38.8330557 50.6220298,38.246209 51.1573887,36.9845557 C51.592101,35.9602224 52.3398362,35.0667472 52.9576444,34.1210481 C53.1892663,33.7665229 53.4614763,33.4381841 53.6876316,33.0805255 C53.9584937,32.6521408 54.166901,32.1687719 53.912364,31.6853284 C53.6117722,31.1144472 53.0793339,31.3338619 52.5935494,31.4066023 C48.6072261,32.0032969 44.6124407,32.5485884 40.6351037,33.1996704 C38.7552444,33.5073434 36.8901375,33.9478142 35.05169,34.4493868 C33.7389412,34.8074931 32.5453357,34.7610139 31.3026051,34.011378 C30.7199932,32.5367261 30.8187677,30.8836179 30.5291841,29.3035484 C30.24327,27.743697 29.5432371,26.2027208 30.0030362,24.4679195 C30.6792553,24.2449983 31.3404225,24.0150642 32.0089284,23.8085563 C36.2059805,22.51154 40.4719275,21.4991436 44.8226453,20.8823055 C47.0621814,20.5647845 49.321038,20.3824487 51.5705339,20.132595 C55.0148334,19.7499435 58.4574106,19.351401 61.9032079,18.9824023 C62.8581521,18.8801182 63.3966563,18.2529099 63.9121704,17.5676585 C64.8014398,16.3854601 65.6463019,15.1677494 66.5789302,14.0206901 C69.0715056,10.9551509 71.6028718,8.02479683 74.1182124,4.97775977 C74.4778891,4.54206376 74.8447549,4.11233619 75.2060042,3.67775926 C75.7017485,3.08136304 77.988238,-0.472618263 79.1032133,0.0747621527 C80.0124773,0.43786703 80.4897247,1.0826076 80.657469,1.95183606 C81.4336608,5.97426518 82.0523677,9.91074879 81.9082124,14.0242712 C81.8894161,14.5589687 81.6622124,15.1185844 81.4141905,15.6074741 C80.4834343,17.4422467 79.2532846,19.0968471 77.8925339,20.6162623 C74.5440133,24.3553398 71.5522489,28.3741879 68.5216188,32.3572999 C66.820512,34.5931516 65.4083147,37.0495371 63.900638,39.4284074 C61.8649412,42.6406956 59.8148663,45.8455979 57.8613942,49.1074241 C56.3427841,51.6433391 54.945564,54.2524419 53.5392079,56.8530398 C53.3289284,57.241809 53.3642745,57.762406 53.2499238,58.4337807 C53.9954873,58.2113818 54.5384097,58.0983545 55.0420919,57.8909513 C57.591206,56.8412521 60.1209247,55.744477 62.6776773,54.7143245 C63.524112,54.3732282 64.4207202,54.1355351 65.3133595,53.934175 C66.2501814,53.7228922 66.8562325,54.260947 66.7099805,55.2173146 C66.49708,56.6103482 66.1777668,57.9874161 65.8971695,59.3699303 C65.4764608,61.4435897 64.9730782,63.5045661 64.6581083,65.5938926 C64.4947823,66.6769404 64.0043549,67.4341114 63.1564974,68.0002178 C61.9261978,68.8216241 60.6681156,69.5894637 59.2808553,70.1513176 C56.6594763,71.2130282 54.0655056,72.342406 51.4647951,73.4543261 C51.0887184,73.6151009 50.7381777,73.834814 49.9481321,74.2543953" id="Fill-1" fill="#FFFFFF" mask="url(#mask-2)"></path>
                    </g>
                    <path d="M245.290616,31.8456511 C245.056018,29.6601295 244.820759,27.5495999 244.607615,25.4366633 C244.536494,24.7318747 244.504386,24.0215952 244.486312,23.3129705 C244.468238,22.6036689 244.467503,21.892186 244.499978,21.1836365 C244.541269,20.2802735 244.854042,19.5310314 245.715361,19.1101139 C246.339584,18.8051067 246.920017,18.3926888 247.562461,18.1426656 C253.536073,15.8178411 259.636132,13.8720379 265.751987,11.9947579 C269.938086,10.7098163 274.236818,9.8573756 278.577503,9.27962948 C281.204735,8.92994302 283.848057,8.95408786 286.483517,9.10377081 C288.233119,9.20320844 289.636739,10.1350036 290.766232,11.4629697 C291.263935,12.0481624 291.651577,12.7323414 292.081538,13.3770311 C292.896202,14.5985644 293.124334,15.8664316 292.940065,17.396733 C292.677694,19.5755602 292.540815,21.7674 292.027168,23.9089945 C291.845177,24.6677893 291.705799,25.441778 291.463854,26.1802641 C290.404894,29.4122876 289.291932,32.6258829 288.245389,35.8620434 C287.568266,37.9561004 286.361332,38.7772505 284.383304,40.1148445 C283.33272,40.8251992 282.149298,41.254541 280.869847,41.3551069 C280.528493,41.3818844 280.181335,41.4475493 279.856146,41.5561635 C276.363481,42.7232392 272.833713,43.7568038 269.451477,45.2805612 C267.239513,46.2771939 264.862014,46.8893897 262.556739,47.6680419 C260.582458,48.334996 258.592822,48.957271 256.635366,49.6722139 C255.725408,50.0046003 254.851967,50.4670379 254.00931,50.9558769 C253.608958,51.1881487 253.268045,51.5818374 252.989511,51.969584 C252.207836,53.0578317 251.475756,54.1833874 250.718107,55.289913 C249.758629,56.6912914 248.897971,58.1459991 248.282345,59.7466289 C248.028424,60.4068134 247.747244,61.0647415 247.399205,61.6765612 C246.587774,63.1028366 246.106529,64.6562298 245.564448,66.1960085 C245.230662,67.1439003 245.374007,67.8471093 246.054216,68.4965377 C246.255164,68.6883425 246.474112,68.8602147 246.762124,69.1076052 C250.354418,67.9003633 254.166909,67.3690265 257.673827,65.7901346 C261.36788,64.1268485 265.230846,62.9668433 269.037606,61.6359437 C271.92831,60.6253205 274.802483,59.5649785 277.689073,58.5417187 C278.802623,58.1469017 279.934394,57.8062414 281.050001,57.4172913 C281.968702,57.0969397 282.870578,56.7258163 283.789499,56.4061416 C284.97226,55.9947015 286.16134,55.6014641 287.355416,55.2261285 C287.60368,55.1481278 287.885814,55.1827279 288.073169,55.1705427 C288.203877,55.2993904 288.261406,55.3379018 288.292999,55.3922088 C288.327752,55.4517059 288.362357,55.5282022 288.356259,55.5932654 C287.99279,59.486677 287.627926,63.3800133 287.253509,67.2722967 C287.213173,67.6912585 287.114793,68.1043534 287.05506,68.4519337 C286.882326,68.5977806 286.788428,68.7381366 286.666905,68.7707058 C283.921823,69.5064088 281.234491,70.4578357 278.432542,70.9866904 C277.142731,71.2301697 275.889289,71.6738029 274.617332,72.0188259 C272.740476,72.5278983 270.886396,73.1854503 268.978608,73.5015145 C265.323128,74.1073168 261.863012,75.3809758 258.341913,76.454857 C257.416232,76.7371485 256.487319,77.0089095 255.558111,77.2792415 C253.955748,77.7455904 252.302028,78.0794059 250.765129,78.7116848 C249.580091,79.199245 248.541336,79.0451995 247.606471,78.4246546 C246.162662,77.4662323 244.568013,76.6773505 243.524997,75.1704418 C243.246389,74.7679526 242.902317,74.3954753 242.530252,74.0812163 C240.733334,72.5633258 239.884212,70.4767154 239.183504,68.302326 C239.07763,67.9738509 239.071679,67.6049087 239.059923,67.2532666 C239.047947,66.8992928 239.141918,66.5354654 239.093941,66.1899159 C238.669784,63.1350297 239.739618,60.4573596 241.144266,57.8943963 C241.923075,56.4732357 242.785716,55.0826133 243.757244,53.7940612 C245.085701,52.032165 245.956204,50.0121221 247.070048,48.1318334 C247.554746,47.3134663 247.274595,46.5758829 246.846544,45.9429271 C246.300055,45.1348648 246.409309,44.3693756 246.602542,43.5094884 C246.826266,42.5135326 247.364232,41.9213447 248.289031,41.5427747 C251.060709,40.4081178 253.786835,39.1546171 256.571298,38.0551619 C260.263073,36.5973703 263.992173,35.2386402 267.707018,33.8423013 C270.769869,32.6910213 273.831323,31.5356043 276.902402,30.4077169 C277.683783,30.1207619 278.504839,29.9490402 279.298195,29.6933757 C280.404765,29.3367692 281.259398,28.7885084 281.49451,27.440384 C281.68767,26.3328053 282.238567,25.2944268 282.477353,24.1906091 C282.847581,22.4785821 281.740496,21.3378325 280.002136,21.5374599 C279.245369,21.6243362 278.472805,21.6719489 277.741753,21.870072 C273.786652,22.9419975 269.756682,23.7144819 265.917741,25.2485441 C262.166453,26.747555 258.336256,28.0382884 254.555799,29.4623825 C252.731696,30.1495702 250.909797,30.8614292 249.148145,31.6975477 C247.932175,32.2746168 246.776378,32.3891732 245.290616,31.8456511" id="Fill-4" fill="#FFFFFF"></path>
                    <path d="M194.378643,56.1269248 C195.518446,55.1656629 196.695033,54.2427674 197.901893,53.3651457 C200.201178,51.693092 202.527105,50.0570773 204.850988,48.4186599 C205.368213,48.0539915 205.921995,47.7400779 206.46026,47.4048413 C207.361962,46.8432355 208.240504,46.2392089 209.173236,45.7339138 C210.296086,45.1255326 211.44694,44.5599475 212.618607,44.0505229 C214.577465,43.1989544 216.502492,42.1797299 218.551642,41.646805 C221.090089,40.9865428 223.638679,40.2267983 226.295421,40.0987101 C226.553655,40.0862467 226.819609,40.2301769 227.26713,40.3518832 C226.68807,42.7269202 225.270278,44.3425129 223.878749,45.9432396 C222.477456,47.5550783 220.861145,48.9426501 219.09793,50.1834386 C216.408038,52.0766057 213.620968,53.8084989 210.635152,55.1766247 C208.961396,55.943502 207.174114,56.5453512 205.375857,56.9483109 C202.308226,57.6355272 199.183453,58.0272998 196.018719,57.8598692 C195.24008,57.8186497 194.445169,57.8261578 193.606588,57.3216136 C193.870726,56.899283 194.039123,56.4132837 194.378643,56.1269248 M187.426596,45.5919357 C186.910733,46.0768087 186.251675,46.57392 186.046343,47.192287 C185.317656,49.3868293 183.848248,51.3848846 184.127144,53.863233 C183.762043,55.0844253 184.223944,56.0548471 184.993955,56.9875782 C185.392659,57.4704992 185.727259,58.0523018 185.923357,58.6440901 C186.473656,60.305182 187.779587,61.4898849 188.603561,62.9759629 C188.78982,63.3119504 189.229015,63.5567144 189.604333,63.7341308 C190.696456,64.2503126 191.782902,64.8157475 192.932393,65.1650243 C194.147881,65.5344979 195.42422,65.7753577 196.69087,65.8910575 C197.891524,66.0007508 199.113975,65.8577966 200.326738,65.8619261 C200.874692,65.8638031 201.422418,65.9505967 201.968404,66 C203.729802,65.4797638 206.822636,64.9316726 207.460049,64.808765 C210.54259,64.2143488 213.665244,63.7839846 216.591043,62.5606149 C216.85291,62.4511468 217.142175,62.40775 217.40934,62.3089434 C217.940189,62.1125316 218.484131,61.9371424 218.987507,61.6841945 C220.005989,61.1723674 220.978758,60.5675149 222.011242,60.0875222 C223.331779,59.4735098 224.42148,58.5964137 225.437843,57.5733601 C228.115095,54.8787034 230.283447,51.8206546 232.05756,48.4908878 C233.055835,46.6173918 234.285476,44.8610973 234.94355,42.8054549 C235.173251,42.0881311 235.688812,41.4608294 236.086608,40.7700843 C237.328358,40.7396014 238.454009,40.8910398 239.584504,41.0574193 C239.975488,41.1150064 240.391827,41.004337 240.789321,40.9711512 C240.87719,40.516686 241.009183,40.1713134 240.999496,39.8299202 C240.926687,37.2766409 240.892856,34.7193824 240.710306,32.1730106 C240.588909,30.4804598 240.363446,28.76561 239.282827,27.3316382 C238.911672,26.8391069 238.88223,26.3013768 238.918483,25.7169464 C239.001811,24.3759999 239.104666,23.0318249 239.08794,21.6903529 C239.067581,20.0627472 238.98781,18.4313874 238.833717,16.8110645 C238.612492,14.4858063 238.629294,12.1323926 238.04365,9.84632664 C237.81251,8.94385313 237.527105,8.072313 236.835654,7.4012391 C236.448681,7.02560891 235.997074,6.88468189 235.464106,7.10399346 C235.016055,7.28839238 234.797101,7.62805878 234.769552,8.08657838 C234.701436,9.2184994 234.642856,10.3510211 234.591997,11.483843 C234.449029,14.6716317 234.560285,17.8708327 234.108148,21.0449567 C233.907433,22.4540767 233.646777,23.8364679 232.874722,25.3491997 C232.215967,25.2829032 231.65704,25.2469394 231.104469,25.1676539 C228.193504,24.7500534 223.954433,25.5342743 221.035975,25.3742767 C220.896943,25.3666936 220.75337,25.4148956 220.613809,25.4453034 C216.394264,26.3671478 213.721326,27.4277418 209.981543,29.5766349 C207.942308,30.748499 205.939402,31.9949185 203.837047,33.0437248 C199.515858,35.1994502 195.784779,38.1574911 192.157312,41.2631412 C190.533962,42.6528903 188.983722,44.1280816 187.426596,45.5919357" id="Fill-6" fill="#FFFFFF"></path>
                    <path d="M241.050283,85.1310675 C238.161715,84.6969554 235.377158,83.9620258 232.495345,83.7837216 C228.36376,83.5281398 224.228685,83.4117332 220.090195,83.4335972 C216.302643,83.4535009 212.515238,83.4991136 208.72776,83.5181126 C207.83427,83.5226361 206.940482,83.4660161 205.914249,83.4332956 C205.971044,82.883757 205.956047,82.463291 206.065775,82.0796167 C206.339427,81.1228058 206.684796,80.1874065 206.974039,79.2348176 C207.416516,77.7777751 207.557796,76.330609 206.926377,74.8667811 C206.676259,74.28701 206.586279,73.6350125 206.43156,73.0137753 C205.84914,70.6754655 205.602808,68.2417838 204.485852,66.0535059 C204.413839,65.9123704 202.784249,66.0856232 201.602852,66.169837 C201.738119,67.1848512 201.536852,68.0856452 201.201208,68.9494966 C200.558281,70.6041439 199.929683,72.2732665 199.149187,73.8623974 C197.712401,76.7874898 196.289127,79.7174828 195.093328,82.7523472 C194.592943,84.0225662 193.74229,84.6307605 192.426517,84.8230877 C188.886632,85.3407351 185.351054,85.8957774 181.825497,86.5062334 C177.676688,87.2245013 173.531368,87.9705891 169.401045,88.7903357 C165.547566,89.5551963 161.719552,90.4544824 157.768224,90.5475172 C157.523303,90.5532471 157.282614,90.7457251 157.002502,90.8677107 C156.973474,91.822486 157.196271,92.6068734 157.708905,93.3273276 C158.036531,93.7876011 158.346413,94.2676274 158.606182,94.7698193 C159.778002,97.0348472 160.896145,99.3291275 162.102933,101.574478 C162.633756,102.562124 163.444022,103.22626 164.68741,102.928157 C165.981728,102.61784 167.293195,102.369571 168.569397,101.996226 C172.210101,100.931226 175.834992,99.8108126 179.470276,98.7263616 C180.142528,98.5258165 180.830074,98.3725428 181.517249,98.2301257 C185.089428,97.4898432 188.633174,96.6160398 192.274843,96.2301792 C198.339515,95.5876811 204.358529,94.4212027 210.498036,94.6764076 C210.986468,94.6966883 211.478463,94.6225771 211.969047,94.5961142 C216.65989,94.3430957 221.34123,93.9052893 226.050336,94.0444646 C228.498878,94.1168417 230.957888,93.8972223 233.402422,94.0161168 C236.203163,94.1524271 238.992694,94.5229077 241.788313,94.7777356 C242.173772,94.8128687 242.608676,95.0422138 243,94.5204197 C242.453289,91.4515531 241.857431,88.3274235 241.050283,85.1310675" id="Fill-8" fill="#FFFFFF"></path>
                    <path d="M173.081169,43.8713396 C172.833172,45.047743 173.160423,46.0437282 173.967461,46.9669712 C174.665933,47.7660293 175.204424,48.6918519 175.908246,49.4858984 C176.89062,50.5940553 177.345204,52.082653 178.737417,53 C178.95013,52.8216454 179.246595,52.6836785 179.350431,52.4636833 C179.588192,51.9597947 179.765544,51.4239201 179.907689,50.8867927 C180.44331,48.8613624 180.84051,46.7954707 181.506023,44.8102808 C182.259166,42.5637497 183.191134,40.3662294 184.1497,38.1889029 C184.740924,36.8460843 185.455448,35.5400422 186.242091,34.2899385 C187.48107,32.3209626 188.817449,30.4068934 190.131184,28.4811059 C191.564729,26.3796906 193.019523,24.291394 194.465089,22.1974225 C195.871649,21.2100603 196.01992,19.8134405 195.998129,18.2899089 C195.980836,17.0848361 195.82605,15.9426297 195.314469,14.8408846 C195.137815,14.4603702 194.988924,14.0648947 194.867717,13.6651445 C194.322246,11.8662688 193.816403,10.056117 193.242783,8.26549568 C193.011846,7.54492833 192.393559,7.12734271 191.620796,7.01332842 C190.933957,6.91199058 190.598098,7.40718256 190.23913,7.86552442 C189.497154,8.81294114 188.717955,9.73389947 187.959617,10.6698189 C187.021135,11.8280184 186.069082,12.9768579 185.159061,14.1549564 C184.380017,15.1633969 183.748934,16.2892419 182.881254,17.2187495 C181.061831,19.1676052 179.771438,21.4150944 178.447622,23.6653104 C176.497763,26.9796844 175.197212,30.5411016 174.306655,34.1916961 C173.620668,37.0039502 172.641164,39.8491484 173.201833,42.838578 C173.263328,43.1661756 173.152901,43.5313603 173.081169,43.8713396" id="Fill-10" fill="#FFFFFF"></path>
                    <g id="Group-14" transform="translate(0.000000, 7.000000)">
                        <mask id="mask-4" fill="white">
                            <use xlink:href="#path-3"></use>
                        </mask>
                        <g id="Clip-13"></g>
                        <path d="M8.76313733,38.5945767 C12.2627951,38.2221015 16.9937062,34.3322005 17.7116351,33.5610371 C18.8343907,32.3550965 19.7728662,31.829948 20.8950173,30.6234134 C23.0138218,28.3454926 24.9243196,25.927745 26.0861373,23.0184134 C26.2701907,22.557646 26.4831818,22.1016312 26.604524,21.6242302 C27.020004,19.9898985 25.7926796,18.6385619 24.1065818,18.844255 C23.8564929,18.8747748 23.6075373,18.9147252 23.3572218,18.9431658 C21.0957684,19.2005421 19.0783596,20.0232401 17.3175373,21.4481658 C16.6956396,21.9514084 16.0649018,22.4441064 15.4370351,22.9402203 C12.5588973,25.2142797 9.99627956,27.7858886 7.65806178,30.6007649 C6.21918178,32.3328936 5.94710622,34.3547005 5.68560844,36.4205421 C5.61927067,36.9451708 5.87192844,37.3693292 6.22862622,37.7555421 C6.911724,38.4953688 7.82587067,38.5207649 8.76313733,38.5945767 M26.6824973,0.0385618812 C26.7598662,0.377398515 26.8456973,0.559997525 26.8351196,0.737027228 C26.7341018,2.41591337 26.5651596,4.09108663 26.7328173,5.77747277 C26.8169107,6.62296782 26.5028262,7.22252228 25.7331418,7.76393317 C24.1801729,8.85633416 22.742804,10.1085371 21.2711329,11.3106163 C21.0587462,11.4840817 20.9205551,11.7453193 20.5975551,12.1584134 C21.1673196,12.102349 21.4995373,12.1024233 21.8161907,12.0332896 C23.8857329,11.5814332 25.9659284,11.2373243 28.0971996,11.2535124 C29.327924,11.2627946 30.4917062,11.5130421 31.6050173,12.0225965 C32.6348396,12.4938342 33.2816707,13.2915817 33.5618307,14.3457401 C34.1907551,16.7118787 34.0575507,18.9856411 33.0689062,21.3008391 C31.9401818,23.9443292 30.3410484,26.2726708 28.5648884,28.4792302 C27.4161418,29.9063837 26.3443862,31.8758391 24.9515196,33.0900223 C23.0165418,35.7225965 18.1101151,40.059453 16.9723996,40.4534629 C13.7510884,42.5732153 10.0509062,43.999849 9.28605733,44.246755 C5.95624844,45.4368045 4.43531511,44.8356163 3.73536844,44.5097748 C3.42861289,44.3669035 3.11279067,44.145245 2.922164,43.8763589 C2.22486178,42.892745 1.68667956,41.8416312 1.660084,40.5941064 C1.63477289,39.404651 1.58483067,38.2209876 1.85169289,37.0439332 C1.98270622,36.4662104 2.03075956,35.8685866 2.08629289,35.2772005 C2.10299067,35.0990569 2.01882178,34.9117054 1.98927956,34.7689084 C1.60251067,34.5935866 1.44973733,34.8365569 1.30504844,35.0165569 C0.972226222,35.4308391 0.667057333,35.8665074 0.378359556,36.2559876 C-0.00757822222,36.1679183 0.0259684444,35.9328936 0.024684,35.7546757 C0.0102528889,33.7725965 0.0120662222,31.7904431 5.28888889e-05,29.8083639 C-0.00364933333,29.1962599 0.140888444,28.639849 0.488292889,28.1238342 C1.37727956,26.8035371 2.24050178,25.4664579 3.13424844,24.149354 C3.77699956,23.2021262 4.40962622,22.2436114 5.121284,21.34725 C6.88369289,19.127547 8.45411511,16.7590322 10.4797596,14.7418292 C12.5674351,12.6629926 14.6038084,10.5344035 16.6892929,8.45341337 C17.3946796,7.74960149 18.1811373,7.1242797 18.9313284,6.46390842 C20.7692173,4.84583911 22.6140573,3.23519554 24.4423507,1.6067302 C25.0757329,1.04252228 25.6799507,0.449873762 26.6824973,0.0385618812" id="Fill-12" fill="#FFFFFF" mask="url(#mask-4)"></path>
                    </g>
                    <path d="M114.858152,36.7684551 C113.251006,36.9680543 111.858515,37.4184651 110.430413,37.6986232 C109.047338,37.9698623 107.673906,38.2852649 106.361902,38.5670774 C106.198119,38.4697593 106.077466,38.4390462 106.035704,38.3671905 C105.377842,37.2344742 104.736076,36.0933424 104.078214,34.9606262 C103.561507,34.0710253 103.342978,33.0907237 103,32.0954611 C103.518378,31.7568978 104.075784,31.6959032 104.612386,31.6151284 C106.312395,31.3592099 108.012177,31.0954513 109.719855,30.8936224 C112.739462,30.5365737 115.723153,30.0339434 118.659236,29.2575566 C119.773061,28.9630849 120.943835,28.8646879 122.085755,28.6622836 C123.627677,28.3888867 125.184633,28.1683566 126.703624,27.8065606 C130.43394,26.9181825 134.192655,26.1973238 138.009381,25.7304416 C139.51235,25.5465946 141.003247,25.2529141 142.485867,24.9486602 C143.272888,24.7871827 144.029384,24.4936461 144.801294,24.2644127 C145.423241,24.0796307 146.042759,23.8155843 146.779968,24.1889607 C146.725526,24.4532947 146.736308,24.7546714 146.604948,24.9824662 C145.536985,26.8343149 144.367958,28.6279022 143.126645,30.3814977 C142.693765,30.9930264 142.147673,31.3299354 141.396112,31.4103505 C139.374233,31.2162897 131.064544,32.6606684 130.769781,32.7274892 C129.49149,33.0174294 128.212136,33.303054 126.932782,33.5886786 C125.209842,33.9733476 123.494798,34.3957785 121.76024,34.7257106 C120.71946,34.9236554 119.831604,35.3300465 119.143066,36.0714045 C118.174116,37.1147867 117.228704,38.1800348 116.323992,39.2736224 C116.02194,39.6387271 115.817459,40.1026603 115.672583,40.5516325 C115.483137,41.1385619 115.722318,41.5586193 116.351478,41.8230252 C117.361431,42.2473982 118.386266,42.320189 119.450736,41.9350885 C120.822118,41.4389317 122.200562,40.9514063 123.602392,40.5412749 C127.915703,39.2794486 139.753278,37.5341967 141.207045,37.3478322 C144.72225,36.8972775 148.246415,36.9661123 151.786754,36.8397354 C152.239832,36.8235517 152.701262,36.8449142 153.1491,36.9094333 C153.753128,36.9964657 154.161482,37.5434034 153.938095,38.0793361 C153.292609,39.6281537 152.792454,41.2837119 150.966932,42.286383 C150.256297,42.2002137 149.400332,42.1428155 148.565172,41.9858694 C144.572591,41.9599754 136.443693,42.9192742 133.260987,43.4774326 C130.627411,43.9392079 127.994671,44.4205476 125.388354,45.0012913 C123.168904,45.4958656 121.081345,46.366118 119.034257,47.3211011 C117.809269,47.8925661 117.138043,48.1911376 115.88572,48.7091604 C115.609257,48.8235253 115.316393,48.9282519 115.020568,48.9693945 C114.39285,49.0567147 113.367711,48.9778101 112.927845,48.4609382 C112.546294,48.0126133 111.41174,46.3248315 111.181215,45.8983726 C110.550307,44.7309153 110.680832,43.5918694 111.246439,42.4423221 C111.957984,40.996361 112.26201,40.2297564 113.365737,38.6097305 C113.612511,38.3333845 114.104465,37.7128649 114.858152,36.7684551" id="Fill-15" fill="#FFFFFF"></path>
                    <path d="M71.9736131,30.0270537 C71.3619445,30.2767908 71.1922377,30.7638758 70.9735472,31.2062844 C68.961077,35.27784 66.9391499,39.34459 64.9488443,43.4273335 C64.4687595,44.4121656 64.1052604,45.4551146 63.6703174,46.4634487 C63.2972136,47.3284431 62.8985466,48.1820244 62.5498239,48.955038 C62.1116301,49.092446 61.9432531,48.8919655 61.8539299,48.6631024 C61.018399,46.5227669 60.1933594,44.3782266 59.3731221,42.2318091 C59.0535088,41.3954977 59.092223,40.6324705 59.5807303,39.8120023 C60.9578158,37.4993438 62.2052385,35.1065681 63.59481,32.8020939 C64.3897797,31.4838034 65.3500972,30.2670296 66.2570719,29.0203715 C67.89533,26.768683 69.6065096,24.5718075 70.950496,22.1101026 C71.5227855,21.0618976 72.2305006,20.0909564 72.8392878,19.0621237 C73.2636656,18.3448992 73.7468535,17.6352584 73.7360668,16.6284259 C73.3706467,16.6466719 73.0174171,16.5870534 72.7230715,16.6943517 C71.9834394,16.9639116 71.2346459,17.2448095 70.5540455,17.6368352 C69.0973892,18.4756995 67.6453874,19.3459499 66.4066089,20.5024294 C63.3955504,23.3132106 60.2679802,25.9991233 57.4534476,29.0223988 C56.5769862,29.9638311 55.7400516,30.9433321 54.812981,31.9865814 C53.2486048,30.2657532 52.6539291,28.1757255 52,26.03539 C52.4568859,25.5681278 52.8983305,25.1082992 53.3486409,24.6577062 C55.6655047,22.3390407 57.9279913,19.9603813 60.3160034,17.7199557 C64.0989804,14.1710009 68.2185635,11.0884072 72.9687289,8.9745772 C73.7750764,8.61573969 74.6256053,8.32770857 75.4827836,8.12460008 C77.2699139,7.70118833 78.5212523,8.36532682 79.4042892,9.98831758 C79.9556701,11.0016074 80.1126693,12.0052862 79.9233098,13.1557588 C79.4274881,16.1685222 78.3903335,18.9411596 76.6895712,21.4635343 C75.7705538,22.8265762 74.8864086,24.2140963 74.0027806,25.601316 C73.7942857,25.9285422 73.651472,26.298943 73.4410562,26.725208 C73.776628,26.8847664 74.0255362,27.0193211 74.2861178,27.1236911 C74.7876284,27.3244719 75.3097521,27.4773477 75.797964,27.7059855 C76.5987703,28.0809666 77.1407682,28.7059851 77.3822883,29.5829182 C77.4752318,29.920281 77.6123566,30.248258 77.6744914,30.5908018 C78.2300097,33.6536478 78.4461143,36.7417979 78.3678734,39.9166727 C77.075826,40.9187747 75.7912407,41.9186241 74.5009665,42.9108898 C74.3455928,43.0303521 74.167094,43.1284899 73.9857138,43.2018493 C73.3068127,43.4764399 72.6771169,43.0527278 72.6464559,42.3002127 C72.6384028,42.1025105 72.6475642,41.8935453 72.7014241,41.7053039 C73.1646638,40.0853916 73.0548014,38.4227553 73.0204463,36.7755867 C72.9808456,34.8738005 72.8367019,32.9743419 72.7393994,31.073757 C72.7138363,30.5751839 72.4938897,30.2208515 71.9736131,30.0270537" id="Fill-17" fill="#FFFFFF"></path>
                    <path d="M54.0662513,7 C55.3588763,7.72894362 56.5040001,8.81057329 57.4749225,9.67666028 C57.8203417,9.98471562 59.269419,11.0997444 58.9559024,11.5500417 C58.5577714,12.1217433 58.0848187,12.9234705 57.4232818,13.6593599 C53.5681285,18.7582707 50.1427792,25.5776066 49.0174702,28.5360167 C48.1199924,30.8953112 47.4469797,33.3224386 46.8960687,35.781635 C46.6270778,36.9821567 46.2861724,38.1679001 45.9649288,39.3570425 C45.3346057,41.6906965 44.9422891,44.0915922 44.3726344,46.4388424 C43.9779462,48.0651293 43.8277673,49.2689023 43.5297046,50.9165439 C43.4261171,51.4892801 43.1848974,53 42.4927585,53 C42.2411343,52.8275363 41.9630393,52.7036935 41.7798103,52.5001952 C40.7752258,51.3847969 39.7882374,50.2544725 38.8066044,49.120084 C38.0798853,48.2803764 37.8362941,47.3968509 38.1081156,46.2504919 C38.4032711,45.0054873 38.6476274,43.7661723 39.0777374,42.5438524 C39.5339355,41.2474929 39.6893167,39.8549261 40.0225716,38.515192 C41.1315087,34.0575152 42.3816736,29.6358238 43.871987,25.2831473 C44.3829626,23.7906048 45.0986649,22.3640477 45.7054245,20.9014314 C47.4032955,16.808485 49.7463314,13.0556631 52.2004523,9.36003348 C52.7870911,8.47672967 53.2367862,7.79832812 54.0662513,7" id="Fill-19" fill="#FFFFFF"></path>
                    <path d="M116.544937,18.4965728 C115.432213,19.771814 117.571715,19.0034291 119.632603,18.1856701 C121.0826,17.8094238 122.521227,17.3844205 123.958059,16.9564856 C127.597748,15.872492 131.223001,14.7352669 134.876006,13.7018046 C136.506868,13.2404651 138.185977,12.9512407 139.853043,12.6402608 C140.325405,12.5521589 140.843394,12.6037703 141.320992,12.6971182 C141.917746,12.8138418 142.108336,13.2252671 141.943028,13.8595704 C141.87885,14.1060553 141.794849,14.3537746 141.678161,14.577964 C141.255093,15.3905542 140.810632,16.1913409 140.38143,17.0006138 C139.926571,17.8581807 139.217693,18.3941215 138.341187,18.7048699 C137.822823,18.8887114 137.298027,19.0653011 136.763656,19.1871163 C133.74518,19.8753454 130.838679,20.9702168 127.853115,21.7830384 C125.687433,22.3725964 123.583984,23.2026218 121.443135,23.8937053 C119.447174,24.5381149 117.439469,25.1441824 115.434382,25.7583503 C115.100924,25.860493 114.757967,25.957004 114.413588,25.9887114 C113.41441,26.0806708 112.229953,25.6103822 112.082672,24.592735 C111.918861,23.4613731 112.01064,22.3253824 112.251047,21.2185532 C112.556006,19.8138592 113.306624,18.2827211 113.734928,16.9146719 C113.959627,16.1969726 114.389577,15.5368251 114.785942,14.8892525 C115.700895,13.394605 121.896124,5.74647494 124.474552,3.71542378 C125.068089,3.24791248 125.615101,2.76474032 126.196222,2.27963948 C126.406335,2.10436132 128.021565,1.49374218 127.910187,2.92667204 C127.856332,3.62006999 127.507539,4.2552219 127.320988,4.92385563 C126.879295,6.50760803 126.003313,7.74134413 124.769413,8.80975404 C121.786317,11.3927926 119.974813,14.5410877 117.299818,17.4555501 C117.070406,17.7055066 116.895599,18.0086947 116.544937,18.4965728" id="Fill-21" fill="#FFFFFF"></path>
                    <path d="M99.5458491,41 C98.6619264,40.9841636 98.0214905,40.5888595 97.3977449,40.2115892 C97.1913314,40.0867922 97.0374259,39.7225547 97.0160091,39.4546239 C96.9722154,38.9053505 97.0295977,38.3469844 97.0534515,37.7927857 C97.1689545,35.105521 97.6204057,32.476904 98.3433332,29.8928412 C98.6145879,28.9230315 98.8337777,27.9379915 99.0896714,26.9634839 C99.4225917,25.6957375 99.7192512,24.4149583 100.118047,23.1689585 C101.299958,19.4756649 102.481205,15.7809317 103.752107,12.1193867 C104.311011,10.5092252 105.055356,8.96293984 105.777544,7.41809412 C106.098427,6.73167283 106.79979,4.81577014 107.00613,4.42395156 C107.252054,3.95689109 107.761699,3.85861441 108.126597,4.21497155 C108.51402,4.5934542 108.911781,4.62671825 109.15704,5.10446262 C110.765737,6.69136196 111.223834,7.1776686 111.912274,8.62666235 C112.277171,9.39453887 111.414444,10.8506552 110.961073,11.553898 C109.630204,13.6182386 108.401914,15.7458491 107.299171,17.9552179 C105.927167,20.7038582 104.892514,23.6019973 103.60891,26.3881448 C103.3364,26.9796992 103.161742,27.6189144 102.944177,28.2369133 C102.676689,28.9965306 102.428697,29.7638767 102.142229,30.5157653 C101.080621,33.3022917 100.27882,36.1557251 99.9615564,39.1402446 C99.8983399,39.7349056 99.8820927,40.346085 99.5458491,41" id="Fill-23" fill="#FFFFFF"></path>
                    <path d="M79.6140867,29.9745679 C78.9217924,28.0337219 78.4181123,26.7210743 78,24.8514897 C78.4997285,24.3184611 79.137612,24.1169796 79.7431984,23.9004101 C81.3204286,23.3365094 82.9190888,22.834972 84.5012585,22.2846891 C86.4187844,21.6178038 88.3211877,20.9049584 90.244793,20.2570297 C90.9349594,20.0245212 91.3325537,19.5988876 91.6008842,18.9289073 C92.0598806,17.782923 92.5485142,16.6456046 93.0961942,15.5414022 C93.4357299,14.8567983 93.8774,14.2175354 94.3274292,13.5986992 C94.8437242,12.8887167 95.5427058,12.6844497 96.3312069,13.6876018 C96.7889874,14.2699175 98.0788129,15.0546432 97.9962088,15.8095026 C97.8727965,16.9377683 96.6451331,17.9716379 96.2823436,19.0619904 C95.1601581,22.4344076 94.0693577,25.8177345 92.9831169,29.2023768 C92.2592097,31.4579022 91.5641797,33.7230995 90.855319,35.9836542 C90.7628358,36.278526 90.6966461,36.5879441 90.561075,36.861306 C90.4064296,37.1731226 90.2226031,37.4861773 89.9866455,37.7350116 C89.7723459,37.9610981 88.6248549,38.1202561 87.8104402,37.8809388 C87.0242189,36.2002237 87.8159117,34.203359 88.1227705,32.3973757 C88.4597985,30.4138967 88.8667399,28.4423333 89.5977145,26.5583571 C89.7334376,26.2084725 89.7195309,26.2029016 89.5695211,25.4843305 C88.3608559,25.7002036 87.3409568,26.4079423 86.2387575,26.8684715 C85.075688,27.3545341 84.001378,27.8318535 82.8870958,28.4420238 C81.8206891,29.0259643 80.8560367,29.3087658 79.6140867,29.9745679" id="Fill-25" fill="#FFFFFF"></path>
                    <path d="M121.825365,87.3789753 C122.093913,86.5630226 122.372263,85.8275397 122.573919,85.0724911 C122.761171,84.3714323 122.391871,84.0102006 121.666846,84.2318237 C119.217644,84.9802524 116.647178,85.1935637 114.190661,85.9303705 C111.408735,86.7647857 108.57696,87.4405413 105.770525,88.1979437 C104.95342,88.4185371 104.148608,88.6825283 103.280751,88.9438715 C102.716206,88.0882723 102.415759,87.1522032 102.04201,86.2546773 C101.816222,85.7123516 101.670825,85.1369259 101.507178,84.5715037 C101.350695,84.0305755 101.451296,83.7296594 101.984997,83.4914862 C102.574579,83.2284513 103.192291,82.9940295 103.822747,82.8554506 C105.536894,82.4788458 107.26439,82.1596879 108.986455,81.8172128 C109.773168,81.66076 110.563425,81.5190183 111.345538,81.3428525 C113.546705,80.8468668 115.734449,80.2884324 117.946853,79.8473193 C119.665676,79.5046236 121.414588,79.3065382 123.148494,79.034603 C124.931795,78.7547974 126.716831,78.4830093 128.493571,78.1673085 C129.189637,78.0436615 129.866699,77.8777935 130.629732,78.1371507 C130.97045,78.6871997 131.316673,79.2818971 131.698491,79.8540864 C132.246747,80.6757764 132.193656,81.5247556 131.846603,82.381973 C131.681222,82.7906481 131.463126,83.1812286 131.244201,83.5665865 C130.368274,85.1083863 129.505393,86.6578358 128.593947,88.1795548 C127.75912,89.5733606 126.868035,90.9351697 125.920616,92.4397503 C125.201247,92.5747984 124.363555,92.7095523 123.536873,92.8918968 C121.725141,93.2915245 119.925173,93.7432297 118.109293,94.1227768 C115.163645,94.7385111 112.202687,95.2853972 109.261262,95.9188584 C108.039715,96.1818933 106.849842,96.5867436 105.649411,96.9398106 C105.189691,97.0750059 104.87401,97.3746716 104.717603,97.8277743 C104.509612,98.4303421 104.251623,99.0199641 104.092501,99.6342272 C103.904721,100.359265 104.240613,100.686808 104.958926,100.560146 C105.057416,100.542786 105.152814,100.508657 105.250323,100.485045 C108.709386,99.6460697 119.721708,98.0434394 121.85817,97.720898 C122.449713,97.6316014 146.193179,94.3320426 150.666552,94.1235859 C151.568422,94.0815857 152.473609,94.0953406 153.377062,94.1034317 C153.768458,94.1069623 154.041002,94.3994931 153.994924,94.7809527 C153.954503,95.1163664 153.863026,95.4507503 153.753903,95.7725562 C153.422838,96.7486395 152.61418,101.996614 151.612614,101.671203 C151.353418,101.684885 151.19882,101.72512 151.059758,101.69555 C148.689891,101.191694 129.36241,102.254205 126.083434,102.706499 C124.592812,102.912087 123.102944,103.131504 121.622503,103.396304 C119.055204,103.855512 107.67298,105.077124 105.521736,105.563989 C104.453957,105.805692 103.346134,105.895651 102.250829,105.995687 C101.922932,106.025624 101.561249,105.894253 101.241647,105.771048 C100.870764,105.628055 100.542942,105.378849 100.172058,105.235783 C99.4420563,104.954139 99.0910822,104.423141 98.9216282,103.70281 C98.7646929,103.036028 98.583399,102.367408 98.329482,101.731225 C97.8241366,100.464891 97.9236823,99.2309952 98.4670361,98.023653 C98.9917627,96.8577225 99.619127,95.7348222 100.120626,94.5602122 C100.635926,93.3533113 101.597372,92.7558188 102.814696,92.4364403 C103.396586,92.2838123 103.98647,92.1595768 104.566248,92.0001818 C106.884834,91.3627486 109.197236,90.7033223 111.519366,90.0784672 C112.92198,89.7009796 114.338094,89.3707884 115.748702,89.0214727 C117.30516,88.6361147 118.864634,88.26179 120.417623,87.8635598 C120.850948,87.7524908 121.266099,87.5738977 121.825365,87.3789753" id="Fill-27" fill="#FFFFFF"></path>
                    <path d="M88.8666169,77.3165011 C89.0548534,77.2686967 88.9962435,77.6969761 88.9719623,77.8237257 C88.5501238,80.0241617 88.2767889,81.1608363 87.837063,83.3578793 C87.8016688,83.5347707 87.6914519,83.6968835 87.5794082,83.9478191 C87.1013956,83.9484223 86.6291679,83.9420886 86.1572447,83.9509105 C85.196957,83.9689314 84.2346903,83.9630501 83.2770667,84.0245776 C81.3124198,84.1508748 79.3476207,84.2876527 77.3876169,84.4700484 C74.3663186,84.7512199 71.4011183,85.3742608 68.4351569,85.9861423 C67.8245491,86.1121379 67.2074714,86.2072943 66.594504,86.3224321 C65.1312375,86.5972698 63.6813675,86.8923905 62.2479387,87.3339405 C60.3276678,87.9253883 58.4306887,88.6408712 56.4164898,88.9040971 C56.3691453,88.91028 56.3240081,88.9322972 56.2767396,88.9394604 C54.507332,89.2059285 53.4305858,88.6026428 52.995503,86.9329564 C52.6356235,85.5517555 52.164842,82.2469166 52.2078479,82.0152084 C51.4061112,76.4657483 53.1227701,74.1110412 53.9815942,72.568406 C54.697243,71.2829647 58.1219595,70.9761568 59.5859872,70.6201873 C63.9297362,69.5641921 68.1248293,68.7913288 72.4601293,67.7007999 C73.0646478,67.5487155 73.6856074,67.453936 74.3035224,67.3630021 C75.0793033,67.2488445 75.6130333,66.8287085 76.0102861,66.1787493 C77.0064247,64.5489502 78.428436,60.9529116 78.5953598,60.5093257 C78.715548,60.1896996 78.4663421,59.8031926 78.1114862,59.7676032 C77.6364422,59.7199496 77.1493717,59.6949163 76.6758501,59.7424945 C73.6089579,60.0505088 71.6326652,60.2405201 68.6488163,60.9572848 C64.8615562,61.8670769 61.1946365,63.1853178 57.5422551,64.5279133 C57.1391413,64.6761522 56.7640384,64.9290482 56.3171576,64.6493848 C55.8211054,64.3389576 51.5494389,59.7505625 53.7369553,59.3402286 C54.5491961,59.1104055 56.2489571,58.6031055 57.0739855,58.3734332 C59.4807179,57.7032665 61.8831877,57.0154558 64.3414511,56.5471384 C65.8983411,56.2505097 67.3198957,55.8214763 68.8782319,55.5323123 C71.5455116,54.8990168 72.056026,54.7911929 74.4725775,54.4211234 C77.7119499,53.7572904 81.0935083,53.922193 82.7168481,54.6087972 C83.1424924,54.7887801 83.5540552,55.0943062 83.8598158,55.4397195 C84.4611373,56.1187836 84.9903764,56.861411 85.5365134,57.5872239 C85.8804845,58.0444573 85.8568122,58.5786001 85.7601441,59.0975118 C85.5069801,60.457148 85.3206465,61.8388014 84.9332889,63.1615664 C83.6041399,65.8849104 82.0632344,69.5798756 81.2099668,70.9608504 C80.7884328,71.6429305 79.4044037,72.2343029 78.6429327,72.3170181 C75.8151991,72.6243538 73.0906035,73.4426841 70.3071698,73.960691 C67.7498026,74.4365486 65.2139002,74.972124 62.7302138,75.7357883 C61.4901975,76.1170173 60.2686774,76.5567577 59.035816,76.9610594 C58.6969447,77.0722009 58.3105005,77.2285078 58.2884266,77.5835725 C58.2359061,78.4291227 58.1317024,81.7418033 59.6124758,81.2931656 C59.9287405,81.1973305 68.3508196,79.4034583 72.0972812,78.7441493 C73.2311149,78.5446375 76.6861258,77.6303967 85.4782841,77.1442092 C87.6587217,77.1851521 87.7512796,77.0539538 88.8666169,77.3165011" id="Fill-29" fill="#FFFFFF"></path>
                    <path d="M11.5641386,91.46124 C12.8246499,90.7054032 13.4621507,90.3899209 14.0052805,90.2028784 C17.0216222,89.1642006 20.0378903,88.1214995 23.0803439,87.1691315 C24.95092,86.5836369 26.8678357,86.1555799 28.7648916,85.6608738 C29.0491815,85.5867856 33.1175797,84.5565338 34.8977568,84.2450747 C36.256611,84.0073243 37.6139942,83.965346 38.9860884,84.0231895 C39.8229966,84.0584877 40.3330267,84.4532961 40.6805003,85.224239 C41.1013818,86.1583127 41.1237425,87.0277869 40.7017577,87.985165 C39.6887589,90.2834949 39.5774702,92.7550517 38.6561208,95.0937657 C38.1821327,96.2968648 37.3891367,97.13347 36.2940505,97.6568701 C34.9198968,98.3135683 32.6456511,98.748609 31.2397952,99.331219 C28.5605559,100.44148 25.8578526,101.492455 23.1912648,102.633764 C21.7910726,103.233074 20.451122,103.981168 19.0747617,104.641586 C18.6007735,104.869088 18.2609496,105.206888 18.0917732,105.706225 C17.8992063,106.274867 17.7005344,106.847001 17.5806398,107.434242 C17.4961252,107.848332 17.8876582,108.261055 18.2928725,108.188257 C18.8172458,108.094128 19.33419,107.92743 19.8379679,107.744183 C23.8531123,106.283673 27.8016895,104.64318 31.7722596,103.061289 C33.960446,102.189462 36.2355008,101.54954 38.4731161,100.810555 C40.2910268,100.210182 42.1109236,99.6162614 43.9308939,99.0227963 C44.9580153,98.687881 45.9848425,98.3519029 47.0168185,98.0337637 C47.2845585,97.9511735 47.5712022,97.933866 47.9422134,97.8707088 C47.965089,98.1489193 48.0248156,98.3432491 47.9886266,98.5161723 C47.5539168,100.591402 47.1135433,102.665494 46.6552223,104.735259 C46.489503,105.483656 45.8857639,105.755187 45.2521615,105.896987 C41.0002437,106.848672 36.7174328,107.665388 32.5267127,108.885947 C30.4092862,109.50264 28.3199577,110.224014 26.2251861,110.9214 C23.0094369,111.992036 19.9279256,113.431215 16.760355,114.636592 C15.8520984,114.982286 15.0073932,115.048859 14.0547094,114.970444 C12.6789375,114.857186 11.9465508,114.073642 11.429533,112.896429 C11.1465671,112.25218 10.8538184,111.61203 10.5488596,110.978636 C9.7385046,109.295406 9.83589136,107.630697 10.7720253,106.064368 C11.6699106,104.561956 12.6773193,103.129229 13.637138,101.666289 C14.0105029,101.097267 14.5482632,100.773663 15.1598727,100.535684 C18.3211176,99.3055614 21.4696375,98.0401401 24.6395619,96.834536 C26.9349179,95.9615699 29.2527816,95.1505465 31.5692479,94.3381567 C32.2442617,94.101469 32.9956256,94.0291267 33.4075334,93.4256414 C33.7968597,92.3069544 34.2376746,90.7788083 33.7368389,90.603456 C33.5171302,90.526559 33.1713484,90.6915117 32.9411949,90.7347804 C32.3640827,90.8432559 31.8329424,91.0012248 31.2732627,91.1795377 C28.4668469,92.0738345 25.6896324,92.7489029 22.9001343,93.6967164 C21.788204,94.0745209 20.7316606,94.6223641 19.6365744,95.0571771 C17.9965931,95.7084857 16.3498447,96.3425627 14.695226,96.9531835 C14.1709263,97.1466783 13.7476175,96.9077133 13.5254815,96.3384635 C13.3804312,95.9668077 9.77256055,92.5644414 11.5641386,91.46124" id="Fill-31" fill="#FFFFFF"></path>
                    <path d="M39.6463189,66.348856 C40.305564,65.3252133 40.7687852,64.2232503 40.8998632,62.975531 C41.0866938,61.1969241 41.0086253,59.4263852 40.6946461,57.6835514 C39.386313,54.3858065 36.2611266,55.0627549 34.13667,55.0477607 C33.7989663,54.9919699 28.7457179,55.9178075 27.4344192,56.1539098 C25.2246286,56.5518282 19.4276164,60.2401085 14.2819907,62.2959187 C13.1618227,62.9249159 12.0240096,63.5185207 11,64.3700721 C11.4085066,66.3386569 12.5420196,67.8702773 13.6503253,69.4152937 C13.9241211,69.7970761 14.2980789,69.8555309 14.7078458,69.7172337 C14.9403461,69.6386851 15.1627634,69.5245157 15.3831049,69.4127058 C17.8600188,68.156462 20.332781,66.891389 22.8136243,65.6432131 C23.4772436,65.3093057 24.1565062,65.0043973 24.8423672,64.7211049 C27.175303,63.7575914 29.4993421,62.7677427 31.8576334,61.8737964 C33.008495,61.4375171 33.2094862,61.4933079 34.4024588,61.179951 C34.6831495,61.1061975 34.9899372,61.1072631 35.2828609,61.1200501 C35.6583014,61.1363382 35.8917655,61.4676578 35.8291179,61.862075 C35.7975347,62.0606536 35.76521,62.2690508 35.6811362,62.4471551 C35.3377238,63.1748708 34.9934217,63.9034999 34.6137553,64.6115784 C33.9686708,65.8144672 33.8268426,66.4329608 33.0627648,67.5474063 C32.4927091,68.3788639 32.1682022,69.2693852 31.4722583,69.996492 C30.7823196,70.7172814 30.1431662,71.8151343 29.1852888,72.8026234 C26.7174198,74.8527252 34.7619594,73.8248201 35.3152597,72.9901657 C35.4445583,72.7879336 35.5677775,72.5962052 35.6918864,72.4061512 C37.0102283,70.3871797 38.3406548,68.3764283 39.6463189,66.348856" id="Fill-33" fill="#FFFFFF"></path>
                    <path d="M47.8696636,72.186008 C47.5705397,72.185852 47.2720973,72.2733965 46.9723675,72.3124093 C45.8971116,72.4522309 38.4510455,74.6128344 31.3203091,76.3375875 C28.866584,76.9310492 13.8164084,81.5517959 9.96452494,83.0968563 C8.97991491,83.4917433 8.01756879,83.9589598 7.08127295,84.4640967 C6.25652385,84.909076 5.62222961,85.7661078 6.26099177,86.9107415 C6.76071809,87.806396 7.07377592,88.8105058 7.53806173,89.7298019 C8.33350426,91.3051363 8.63141657,91.1319197 9.78648939,90.7047302 C11.2574977,90.1607366 12.7161624,89.5815535 14.1874736,89.0385743 C18.0302698,87.6203832 21.8714757,86.1971205 25.7257068,84.8124805 C26.8654069,84.4030028 37.6861969,81.3657831 42.1045227,80.2940252 C43.274211,80.0102466 46.7163325,79.7063373 47.4314281,78.7953899 C48.6746478,77.2117069 48.7519657,75.6178025 49.6749335,73.8271178 C49.792387,73.5992054 49.8947706,73.3578726 49.9670905,73.1111561 C50.261898,71.383594 48.4957793,72.1862421 47.8696636,72.186008" id="Fill-35" fill="#FFFFFF"></path>
                    <path d="M111.638416,69.1744648 C111.510101,69.0948313 111.432238,69.0030516 111.362301,69.0103825 C111.008397,69.04754 110.649159,69.0770791 110.305256,69.1695776 C107.826519,69.8366876 105.384379,70.6444499 102.989506,71.6052983 C101.815629,72.0763432 100.680572,72.6639635 99.5371433,73.2208947 C99.2248008,73.3730464 98.8757121,73.5435972 98.8909736,74.0168702 C99.743322,74.4843934 100.548626,74.6803148 101.441129,74.534919 C103.749545,74.1589599 106.016695,73.5708364 108.16605,72.5693089 C109.270733,72.0545662 110.345781,71.428854 111.160494,70.4106524 C111.461057,70.0350526 111.676348,69.6507564 111.638416,69.1744648 M100.115007,52.4336107 C100.637973,53.8477517 100.9475,54.7942258 101.458613,56.2135416 C101.633083,56.6980983 101.562554,57.1343575 101.340966,57.5873628 C100.341929,59.6298752 99.379194,61.6927272 98.3562278,63.721656 C97.7519161,64.9200392 97.3354841,66.1764226 97.049738,67.4888656 C97.0208449,67.6218276 100.634343,65.8965554 102.517807,65.2033561 C105.283253,64.1856575 108.102041,63.1609874 110.952018,62.5150794 C112.528104,62.1579506 113.572925,61.7393717 115.160493,61.4556236 C115.85793,61.3309986 116.202722,60.9546083 116.295402,60.2593965 C116.446906,59.1222477 116.584556,57.9830865 116.71828,56.8436379 C116.868598,55.5626744 117.007508,54.2804174 117.153677,52.9989509 C117.16442,52.9045837 117.189238,52.8107197 117.216205,52.719515 C117.38386,52.1531686 118.53729,52.018266 118.913864,52.4609937 C119.13886,52.7255522 119.313034,53.0954741 119.379192,53.4478594 C119.545513,54.3344646 119.626043,55.2401157 119.761915,56.1341956 C120.050551,58.0331809 120.118264,59.937269 119.730207,61.8346013 C119.127155,64.7829805 118.512397,67.7286285 117.013138,70.3681764 C115.881934,72.3598039 114.406456,73.9030978 112.334001,74.7363026 C111.662568,75.0061795 111.014769,75.3448374 110.354152,75.6469128 C110.066258,75.7785093 109.77903,75.9170773 109.481727,76.0180565 C108.370599,76.3955968 107.260139,76.7773776 106.139973,77.1207071 C105.452834,77.3312902 104.754286,77.57055 104.050626,77.6299876 C102.048256,77.7990291 100.050479,78.0870176 98.0325502,77.9746827 C97.3442261,77.9363752 96.7137624,77.765537 96.0887069,77.5178683 C95.5187707,77.2920484 95.1029313,76.8902875 94.9219416,76.2439483 C94.5009163,74.7406148 93.7721417,73.352635 93.5086953,71.7896483 C93.3666743,70.9467409 93.2185783,70.1051272 93.071149,69.2634416 C92.8929004,68.2456711 93.0689265,67.2667831 93.3843065,66.3017662 C94.0502569,64.2642129 94.7145034,62.2261565 95.3802316,60.1886032 C95.4246086,60.0527663 95.4703931,59.9167857 95.5252161,59.7854767 C96.587151,57.2434583 97.6461967,54.7001462 98.7193926,52.1634462 C98.8438555,51.8692767 99.7110209,51.9798148 100.115007,52.4336107" id="Fill-37" fill="#FFFFFF"></path>
                    <path d="M93.8137157,93.2122901 C92.329463,93.0502218 90.8922658,92.7315567 89.4166991,92.7005764 C87.3011613,92.6562639 85.1866809,92.6833909 83.0732579,92.781495 C81.1390691,92.8713532 79.2054846,92.9743124 77.2712958,93.0636311 C76.8150151,93.084747 76.3572994,93.0744203 75.832437,93.0791983 C75.8503377,92.7959833 75.8341742,92.5805086 75.8824383,92.3812948 C76.0028341,91.8845317 76.16024,91.3972477 76.2886421,90.9022572 C76.4850973,90.1452445 77.3353458,87.1578845 76.9831464,86.419907 C76.8436413,86.1275982 76.6291342,83.853863 76.5375156,83.5382805 C76.1926426,82.3504728 75.7072827,83.1011661 75.0923877,82.0015981 C75.0527341,81.930698 73.8819336,84.2421952 73.2802565,84.3102439 C73.3699113,84.8282769 73.2853925,85.2948304 73.1314611,85.7452001 C72.8365894,86.6078693 72.5494219,87.4776285 72.1829472,88.3095486 C71.508383,89.8409136 70.8407677,91.3745135 70.2915843,92.9571269 C70.0616691,93.6195033 69.6395283,93.949497 68.9713842,94.075807 C67.1737548,94.4158963 65.3791467,94.7750207 63.590732,95.162351 C61.4861461,95.6181153 59.3839017,96.0880596 57.2908719,96.5955347 C55.3381026,97.0690241 53.4010437,97.6109474 51.3846776,97.7417272 C51.2596744,97.7498191 51.1406381,97.8537032 51,97.9221372 C51.0045318,98.412735 51.1342935,98.8106232 51.4107357,99.1695935 C51.5874018,99.3989399 51.755382,99.6387672 51.898286,99.891002 C52.5427134,101.028794 53.1604031,102.182693 53.8223536,103.309697 C54.1135243,103.805381 54.5408011,104.129209 55.1698959,103.950109 C55.8246711,103.763611 56.4895673,103.60871 57.1338437,103.390307 C58.971882,102.767234 60.80063,102.116032 62.635496,101.483171 C62.9747796,101.366109 63.3229004,101.273014 63.6709456,101.185468 C65.4805843,100.730552 67.2729266,100.207663 69.1252401,99.9330796 C72.2099117,99.4759281 75.2605945,98.7508976 78.401763,98.7528242 C78.6516183,98.7529784 78.9014737,98.7045814 79.1514801,98.6806911 C81.5423272,98.4522695 83.9246393,98.1292887 86.3327829,98.1017764 C87.5848544,98.0875193 88.8364727,97.9230619 90.0874868,97.9327722 C91.5208319,97.9438696 92.953195,98.075343 94.3863135,98.1473991 C94.5839017,98.1573405 94.8107202,98.2659256 95,97.9898776 C94.658526,96.4264534 94.2908428,94.8356711 93.8137157,93.2122901" id="Fill-39" fill="#FFFFFF"></path>
                    <path d="M118.624172,66.5702536 C117.888137,64.6646627 117.464541,64.1258368 117,62.2828088 C117.475919,61.738827 118.097203,61.5196644 118.6863,61.2866503 C120.220498,60.6795668 121.777601,60.133969 123.317114,59.5403524 C125.182913,58.8209943 127.032468,58.0564648 128.90478,57.3557294 C129.576515,57.1042465 129.955199,56.6699229 130.199746,55.9968906 C130.618027,54.8457485 131.073586,53.5746363 131.580344,52.4623555 C131.937321,51.7085224 132.307247,50.4199419 132.248112,50.5172876 C132.735259,49.79716 132.578815,49.8670335 133.944742,50.4912005 C134.411379,51.055421 136.058007,51.704213 135.998424,52.4558914 C135.909423,53.5794074 135.130722,54.8956141 134.805259,55.9886567 C133.798853,59.3695164 132.823437,62.7601492 131.852586,66.1520132 C131.205627,68.4123581 130.587262,70.6813218 129.955199,72.9462069 C129.872785,73.241707 129.81657,73.5507509 129.691116,73.8260893 C129.548071,74.140212 129.376282,74.4564895 129.151497,74.7105118 C128.947296,74.9412943 126.620549,75.1170553 125.813179,74.9038951 C126.356466,73.1412832 127.995234,64.1149094 127.827263,63.4062478 C126.645251,63.6567304 119.82587,65.8722116 118.624172,66.5702536" id="Fill-41" fill="#FFFFFF"></path>
                </g>
            </g>
        </g>
    </g>
</svg>