<?xml version="1.0" encoding="UTF-8" standalone="no"?>
<svg width="318px" height="589px" viewBox="0 0 318 589" version="1.1" xmlns="http://www.w3.org/2000/svg" xmlns:xlink="http://www.w3.org/1999/xlink">
    <!-- Generator: Sketch 46.2 (44496) - http://www.bohemiancoding.com/sketch -->
    <title>123</title>
    <desc>Created with Sketch.</desc>
    <defs>
        <polygon id="path-1" points="0 117.3185 0 233.94 115.698 233.94 115.698 0.697 0 0.697"></polygon>
    </defs>
    <g id="boryung" stroke="none" stroke-width="1" fill="none" fill-rule="evenodd">
        <g id="web" transform="translate(-1023.000000, -11737.000000)">
            <g id="9_graphic_1" transform="translate(0.000000, 11458.000000)">
                <g id="123" transform="translate(1023.000000, 279.000000)">
                    <polyline id="Fill-1" fill="#DA2F3B" points="291.292 0 265 10.452 265 449.419 291.292 459.86 317.604 449.419 317.604 10.452 291.292 0"></polyline>
                    <polyline id="Fill-2" fill="#C32A37" points="291 460.408 291 21.452 317.312 11 317.312 449.967 291 460.408"></polyline>
                    <polyline id="Fill-3" fill="#A42531" points="291.292 460.408 265 449.967 265 11 291.292 21.452 291.292 460.408"></polyline>
                    <polyline id="Fill-4" fill="#E4E4E3" points="203.711 220.970185 177.419 232.334201 177.419 491.542943 203.711 502.895 230.024 491.542943 230.024 232.334201 203.711 220.970185"></polyline>
                    <polyline id="Fill-5" fill="#BFC0BB" points="203.711 502.895 203.711 243.698218 230.024 232.334201 230.024 491.542943 203.711 502.895"></polyline>
                    <polyline id="Fill-6" fill="#A6A8A5" points="203.711 502.895 177.419 491.542943 177.419 232.334201 203.711 243.698218 203.711 502.895"></polyline>
                    <polyline id="Fill-7" fill="#E4E4E3" points="115.698 345.245 89.405 355.697 89.405 532.393 115.698 542.834 142.01 532.393 142.01 355.697 115.698 345.245"></polyline>
                    <polyline id="Fill-8" fill="#BFC0BB" points="115.698 542.834 115.698 366.149 142.01 355.697 142.01 532.393 115.698 542.834"></polyline>
                    <g id="Group-14" transform="translate(0.000000, 355.000000)">
                        <mask id="mask-2" fill="white">
                            <use xlink:href="#path-1"></use>
                        </mask>
                        <g id="Clip-10"></g>
                        <polyline id="Fill-9" fill="#A6A8A5" mask="url(#mask-2)" points="115.698 187.834 89.405 177.393 89.405 0.697 115.698 11.149 115.698 187.834"></polyline>
                        <polyline id="Fill-11" fill="#E4E4E3" mask="url(#mask-2)" points="26.292 101.98 0 112.432 0 223.559 26.292 234 52.605 223.559 52.605 112.432 26.292 101.98"></polyline>
                        <polyline id="Fill-12" fill="#BFC0BB" mask="url(#mask-2)" points="26.292 234 26.292 122.884 52.605 112.432 52.605 223.559 26.292 234"></polyline>
                        <polyline id="Fill-13" fill="#A6A8A5" mask="url(#mask-2)" points="26.292 234 0 223.559 0 112.432 26.292 122.884 26.292 234"></polyline>
                    </g>
                </g>
            </g>
        </g>
    </g>
</svg>