<?xml version="1.0" encoding="UTF-8" standalone="no"?>
<svg width="53px" height="35px" viewBox="0 0 53 35" version="1.1" xmlns="http://www.w3.org/2000/svg" xmlns:xlink="http://www.w3.org/1999/xlink">
    <!-- Generator: Sketch 46.2 (44496) - http://www.bohemiancoding.com/sketch -->
    <title>Page 1</title>
    <desc>Created with Sketch.</desc>
    <defs>
        <polygon id="path-1" points="52.9233861 0.0317596582 52.9233861 35 0 35 0 0.0317596582"></polygon>
    </defs>
    <g id="boryung" stroke="none" stroke-width="1" fill="none" fill-rule="evenodd">
        <g id="web" transform="translate(-1044.000000, -11951.000000)">
            <g id="9_graphic_1" transform="translate(0.000000, 11458.000000)">
                <g id="Page-1" transform="translate(1044.000000, 493.000000)">
                    <g id="Group-3">
                        <mask id="mask-2" fill="white">
                            <use xlink:href="#path-1"></use>
                        </mask>
                        <g id="Clip-2"></g>
                        <path d="M47.5155583,11.4925705 C47.5413586,11.4419765 47.5672464,11.3912958 47.5940962,11.3407017 C47.895479,10.7533255 48.4420962,10.3439814 49.0932266,10.2170631 L50.6062629,9.92346163 L50.7052662,10.0028181 L50.7515318,11.11788 L47.5155583,11.4925705 Z M49.1910929,32.8168403 L42.3016177,32.8168403 C42.0745748,32.8168403 41.8894246,32.6340433 41.8894246,32.4090557 L41.8894246,30.633672 L48.3538503,30.633672 C48.7868586,30.633672 49.2091969,30.5482512 49.603286,30.3859864 L49.603286,32.4090557 C49.603286,32.6340433 49.4182233,32.8168403 49.1910929,32.8168403 L49.1910929,32.8168403 Z M49.4762959,23.0192661 L39.9319229,22.8108255 C39.6994576,22.8054542 39.4896441,22.6935235 39.3572315,22.5043156 C39.2259559,22.3151077 39.1947332,22.0822364 39.2722216,21.8647859 L39.4874576,21.2576572 L49.4623025,20.2401448 L49.4762959,23.0192661 Z M36.530215,27.6744394 C36.2095038,26.2033998 35.0773503,25.1757512 33.776314,25.1757512 L19.091116,25.1757512 C17.7900797,25.1757512 16.6579262,26.2033998 16.337215,27.6744394 L16.3200731,27.7511968 C16.2318272,28.1562958 15.8637134,28.4505037 15.4461853,28.4505037 L4.5135797,28.4505037 C4.14126782,28.4505037 3.87329422,28.2612958 3.71394439,28.1024097 C3.52450875,27.9130285 3.39025957,27.6661225 3.32011766,27.3933131 L3.32011766,26.2673354 L3.26965396,26.2673354 L3.27813746,25.207026 L13.0528767,24.993474 C13.9988305,24.9721621 14.851116,24.5180285 15.3891622,23.7462092 C15.9283454,22.9744765 16.056385,22.024625 15.7421457,21.1398354 L15.061979,19.2280037 L3.69671502,18.0684988 C3.79641799,17.8188205 3.91466221,17.5778057 4.05188498,17.3486597 L4.36936023,16.8156027 C4.83437838,16.0297488 5.76695099,14.4544022 6.58888828,13.7118651 L6.96067541,13.4371498 L25.1961738,12.3389814 C25.3512381,12.3297116 25.5070896,12.3239938 25.6628536,12.3181894 C25.7263487,12.3157636 25.7894939,12.3122116 25.8531639,12.3103923 C26.0167117,12.3058007 26.1804345,12.3040681 26.3442447,12.3031151 C26.7456804,12.3013824 27.1473784,12.3103923 27.5454031,12.3325705 L28.3620929,12.3771869 L45.9345665,13.4354171 C46.7962975,13.9365928 47.9702563,15.9166052 48.5120632,16.8305903 L48.8198305,17.3470136 C48.9579279,17.5790186 49.0766094,17.8226324 49.1763124,18.0747364 L37.8732315,19.2280037 L37.1930649,21.1387958 C36.8777761,22.0230656 37.0058157,22.9733502 37.5439493,23.7451696 C38.083045,24.5175087 38.935418,24.9721621 39.8824213,24.993474 L49.5892926,25.2055532 L49.603286,26.9448106 C49.6065219,27.3908874 49.4429741,27.8130532 49.1534856,28.1024097 C48.9942233,28.2612958 48.7262497,28.4505037 48.3538503,28.4505037 L37.4212447,28.4505037 C37.0037167,28.4505037 36.6356903,28.1562958 36.530215,27.6744394 L36.530215,27.6744394 Z M11.033979,32.4090557 C11.033979,32.6340433 10.8489163,32.8168403 10.621786,32.8168403 L3.73231073,32.8168403 C3.50526782,32.8168403 3.32011766,32.6340433 3.32011766,32.4090557 L3.32011766,30.4079047 C3.69820182,30.5556151 4.1010368,30.633672 4.5135797,30.633672 L11.033979,30.633672 L11.033979,32.4090557 Z M3.46328762,20.2391052 L13.447753,21.2576572 L13.6629889,21.8647859 C13.7404774,22.0822364 13.7092546,22.3151077 13.5769295,22.504922 C13.4446045,22.69413 13.235753,22.8054542 13.0033751,22.8108255 L3.45681568,23.0192661 L3.46328762,20.2391052 Z M2.21813746,10.0028181 L2.31714076,9.92346163 L3.83017706,10.2170631 C4.48130743,10.3439814 5.02801205,10.7533255 5.32930743,11.3395755 C5.35624472,11.3934616 5.38414406,11.4467413 5.41108135,11.4995012 L2.20414406,11.153573 L2.21813746,10.0028181 Z M9.70600545,6.67106064 C10.3204906,4.63551609 11.6872084,3.43200124 13.8836474,2.993375 L15.2201919,2.82703837 C22.6800731,2.01103589 30.2454295,2.01103589 37.6859823,2.82495916 L39.004248,2.98912995 C41.2759889,3.60093688 42.6546012,4.80557797 43.2173982,6.67054084 L44.5462464,11.0765557 L28.4346837,10.194625 L27.8606919,10.1600582 C27.3968982,10.1318156 26.9287315,10.1179542 26.4617018,10.1179542 C26.0577299,10.1179542 25.6531457,10.1289567 25.2510979,10.1500953 C25.2342183,10.1509616 25.2172513,10.1512215 25.2004592,10.1520879 L8.38021832,11.0664196 L9.70600545,6.67106064 Z M52.92322,11.1269765 L52.9092266,9.97674134 C52.9017051,9.30247153 52.5939378,8.67195173 52.065512,8.24606064 C51.5371738,7.82181559 50.8548206,7.65287995 50.1822629,7.78075124 L48.6692266,8.07443936 C47.755545,8.2523849 46.9444526,8.70409282 46.3287431,9.35912995 L45.3288272,6.04530569 C44.5335649,3.40964975 42.5716903,1.66510767 39.498215,0.859761139 L37.944248,0.656691832 C30.324055,-0.176897277 22.5972497,-0.176897277 14.9619262,0.65877104 L13.5694081,0.832038366 L13.4941061,0.844340347 C10.4840384,1.43162995 8.44476287,3.22997153 7.5945764,6.0458255 L6.59483548,9.35895668 C5.97903845,8.70417946 5.16794604,8.25247153 4.25426452,8.07443936 L2.74114076,7.78075124 C2.07286848,7.65443936 1.38736683,7.82077599 0.857891584,8.24606064 C0.329465842,8.67195173 0.0216985149,9.30247153 0.0141770627,9.97622153 L0.000183663366,11.1253304 C-0.0148592409,12.2286101 0.808389934,13.1576696 1.91579257,13.2861473 L3.86752195,13.5121745 C3.34311931,14.2340062 2.87818861,15.0183007 2.46783218,15.7112834 L2.15787838,16.2315186 C1.48741964,17.3523849 1.12796419,18.6518032 1.11615726,19.9896869 L1.06018366,26.9266176 C1.05825957,27.1576696 1.07802525,27.3865557 1.11615726,27.6110235 L1.11615726,32.4090557 C1.11615726,33.8375582 2.29029092,35.0000087 3.73231073,35.0000087 L10.621786,35.0000087 C12.0638932,35.0000087 13.2379394,33.8375582 13.2379394,32.4090557 L13.2379394,30.633672 L15.4461853,30.633672 C16.8936276,30.633672 18.167814,29.6156399 18.4733949,28.2159864 L18.4917612,28.1349839 C18.5960995,27.6558131 18.8845384,27.3589196 19.091116,27.3589196 L33.776314,27.3589196 C33.9828916,27.3589196 34.2713305,27.6558131 34.3928982,28.2138205 C34.699616,29.6156399 35.9738025,30.633672 37.4212447,30.633672 L39.6854642,30.633672 L39.6854642,32.4090557 C39.6854642,33.8375582 40.8595104,35.0000087 42.3016177,35.0000087 L49.1910929,35.0000087 C50.6332002,35.0000087 51.8072464,33.8375582 51.8072464,32.4090557 L51.8072464,26.2673354 L51.8019114,26.2673354 L51.7512728,19.9805903 C51.7394658,18.6492042 51.3832464,17.3550705 50.7074526,16.2192166 L50.4125417,15.7251448 C50.0001738,15.0294765 49.5327068,14.2418899 49.0080417,13.5177191 L51.0076985,13.2861473 C52.1150137,13.1576696 52.9382629,12.2286101 52.92322,11.1269765 L52.92322,11.1269765 Z" id="Fill-1" fill="#FFFFFF" mask="url(#mask-2)"></path>
                    </g>
                    <path d="M32.3605815,21.8764798 C32.3388679,21.9492586 32.2660478,21.9999735 32.1824593,21.9999735 L20.817592,21.9999735 C20.7339151,21.9999735 20.6611834,21.9492586 20.6546516,21.9345759 L20.2723685,19.9999471 L32.7743758,20.0512176 L32.3605815,21.8764798 Z M32.7276827,18 L20.2723685,18 C19.5869776,18 18.9451022,18.2738925 18.5118009,18.7519147 C18.0784114,19.2294607 17.9090276,19.8495483 18.0469002,20.4526515 L18.4911465,22.3940264 C18.7724525,23.3399119 19.7292635,24 20.817592,24 L32.1824593,24 C33.2706994,24 34.2275987,23.3399119 34.5240866,22.3359304 L34.9530627,20.4531277 C35.0910236,19.8495483 34.9215515,19.2294607 34.4882503,18.7519147 C34.0548608,18.2738925 33.4129854,18 32.7276827,18 L32.7276827,18 Z" id="Fill-4" fill="#FFFFFF"></path>
                </g>
            </g>
        </g>
    </g>
</svg>