<?xml version="1.0" encoding="utf-8"?>
<!-- Generator: Adobe Illustrator 21.1.0, SVG Export Plug-In . SVG Version: 6.00 Build 0)  -->
<svg version="1.1" id="Layer_1" xmlns="http://www.w3.org/2000/svg" xmlns:xlink="http://www.w3.org/1999/xlink" x="0px" y="0px"
	 viewBox="0 0 750 1334" style="enable-background:new 0 0 750 1334;" xml:space="preserve">
<style type="text/css">
	.st0{clip-path:url(#SVGID_3_);}
	.st1{clip-path:url(#SVGID_4_);}
	.st2{clip-path:url(#SVGID_7_);}
	.st3{clip-path:url(#SVGID_8_);}
	.st4{clip-path:url(#SVGID_11_);}
	.st5{clip-path:url(#SVGID_12_);}
	.st6{clip-path:url(#SVGID_15_);}
	.st7{clip-path:url(#SVGID_16_);}
	.st8{clip-path:url(#SVGID_19_);}
	.st9{clip-path:url(#SVGID_20_);}
	.st10{clip-path:url(#SVGID_23_);}
	.st11{clip-path:url(#SVGID_24_);}
	.st12{clip-path:url(#SVGID_31_);}
	.st13{clip-path:url(#SVGID_32_);}
</style>
<g>
	<g>
		<defs>
			<rect id="SVGID_1_" x="130" y="621" width="489" height="92"/>
		</defs>
		<defs>
			<path id="SVGID_2_" d="M278.2,664.6c0.4,0.5,0.8,1,1.1,1.5c0.9,1.4,0.5,3.1-1,4c-2.1,1.3-4.4,2.1-6.8,2.9
				c-2.1,0.7-4.2,1.7-6.4,2.5c-1.8,0.7-3.6,1.4-5.5,2c-2.2,0.8-4.4,1.4-6.5,2.2c-1.4,0.5-2.7,1.3-4.1,1.8c-1,0.4-1.9,0.8-2.6,1.6
				c-0.3,0.4-0.6,0.8-0.4,1.3c0.2,0.5,0.7,0.7,1.2,0.7c2,0.1,3.8-0.6,5.6-1.2c2.3-0.7,4.7-1.3,7.1-2c1.4-0.4,2.8-0.8,4.2-1
				c3.2-0.5,6.2-1.7,9.3-2.7c3.6-1.1,7.3-2,10.9-3.1c2.3-0.6,4.5-1.4,6.7-2c1.1-0.3,2.3-0.7,3.4-1c0.5-0.1,1,0.2,0.9,0.8
				c-0.3,2-0.5,4-1.1,5.9c-0.5,1.6-1.3,3.1-2,4.6c-0.1,0.2-0.4,0.4-0.7,0.4c-2.4,0.4-4.8,0.9-7.3,1.3c-2.3,0.4-4.6,0.8-6.9,1.1
				c-2.2,0.4-4.5,0.7-6.7,1.1c-1.6,0.3-3.2,0.7-4.7,1.2c-1.2,0.4-2.3,1.2-3.5,1.9c-0.7,0.4-1.3,0.8-2,1.3c-1.9,1.2-3.7,2.4-5.6,3.7
				c-1.1,0.7-2.1,1.5-3.1,2.2c-1.7,1.2-3.4,2.4-5.1,3.6c-0.6,0.4-1.2,0.9-1.8,1.4c-0.7,0.4-0.4,1.1-0.4,1.6c0,0.5,0.9,1.1,1.3,1
				c0.7-0.1,1.4-0.3,2-0.6c2.2-1,4.4-2,6.8-2.7c1.7-0.5,3.4-1.2,5.1-1.7c1.2-0.4,2.5-0.7,3.8-1c1.6-0.4,3.3-0.7,5-1
				c1.5-0.3,3-0.6,4.6-0.9c1-0.2,2-0.5,3.1-0.7c1.9-0.3,3.8-0.5,5.7-0.7c4.9-0.6,9.8-1.2,14.7-1.7c2.4-0.2,4.9-0.2,7.4-0.3
				c0.2,0,0.5,0,0.9,0c-0.2,0.6-0.4,1.2-0.7,1.7c-0.8,1.4-1.7,2.7-2.4,4.1c-1,1.8-1.9,3.6-2.9,5.4c-0.3,0.5-0.6,0.8-1.2,0.7
				c-1.4-0.3-2.8-0.2-4.2-0.2c-1.4,0-2.8-0.1-4.2-0.1c-2.6-0.1-5.1-0.3-7.7-0.2c-2.1,0.1-4.1,0.4-6.2,0.7c-1.6,0.2-3.2,0.4-4.7,0.7
				c-1.4,0.2-2.8,0.5-4.2,0.8c-1,0.2-2,0.5-3.1,0.7c-2.3,0.6-4.6,1-6.9,1.4c-1.6,0.3-3.2,0.7-4.8,1c-2.3,0.5-4.6,1-6.9,1.6
				c-0.8,0.2-1.7,0.6-2.5,0.6c-2.3,0.1-3.9,0.1-5.3-2.1c-0.6-1-1.4-1.8-2.1-2.7c-1.2-1.4-1.1-3.3,0.3-4.8c0.2-0.2,0.3-0.4,0.4-0.5
				c0.6-1,1.5-1.7,2.4-2.5c0.9-0.8,1.8-1.5,2.8-2.3c1.2-0.9,2.4-1.7,3.6-2.5c0.7-0.5,1.4-1,2.1-1.5c0-0.1,0-0.2,0-0.3
				c-0.8-0.2-1.5-0.5-2.3-0.5c-1.1,0-1.9-0.5-2.9-0.9c-1.4-0.6-2-1.8-2.5-3c-0.2-0.4-0.2-0.9-0.4-1.3c-0.1-0.2-0.4-0.2-0.5-0.4
				c-0.8-1.4-0.6-2.9-0.4-4.4c0-0.5,0.4-0.9,0.6-1.3c0.4-0.8,0.8-1.5,1.1-2.2c0.7-1.3,1.3-2.7,2-4c0.3-0.6,0.7-1.1,1.1-1.6
				c0.6-0.7,0.6-1.2,0.2-2.1c-0.4-0.9-0.6-2-0.8-3c-0.1-0.6,0.7-1.2,1.3-1.3c1.2-0.2,2.4-0.5,3.6-0.8c3.1-0.7,6.2-1.3,9.1-2.5
				c1.6-0.6,3.1-1.3,4.7-1.9c2.1-0.9,4.3-1.7,6.4-2.6c1.6-0.7,3.2-1.6,4.8-2.4c0.9-0.5,1.1-1.4,1.2-2.2c0-0.4-0.5-1.1-1-1.3
				c-1-0.4-2-0.3-3.1-0.1c-3.3,0.6-6.7,1.3-10,1.9c-2.3,0.4-4.6,0.8-6.9,1.2c-1.3,0.2-2.7,0.4-4.1,0.6c-0.7,0.1-1.8-1-2-1.8
				c-0.1-0.4-0.4-0.8-0.5-1.2c-0.3-0.9-0.5-1.8-0.8-2.7c-0.3-1-0.6-2-1-2.9c-0.4-0.9-0.1-1.6,0.8-1.9c1-0.3,2-0.4,3-0.6
				c0.8-0.1,1.6-0.2,2.4-0.3c4.7-0.8,9.4-1.6,14.1-2.4c3.4-0.6,6.7-1,10.1-1.6c1.7-0.3,3.4-0.9,5.2-1.1c0.9-0.1,2,0,2.8,0.4
				c0.6,0.3,1,1.2,1.3,1.9c0.9,1.8,0.8,3.9,1,5.9c0.2,2.5,0.3,5.1,0.3,7.6c0,2.2-0.9,4-2.6,5.4c-1.1,0.8-2.2,1.6-3.4,2.3
				C278.5,664.3,278.4,664.4,278.2,664.6"/>
		</defs>
		<clipPath id="SVGID_3_">
			<use xlink:href="#SVGID_1_"  style="overflow:visible;"/>
		</clipPath>
		<clipPath id="SVGID_4_" class="st0">
			<use xlink:href="#SVGID_2_"  style="overflow:visible;"/>
		</clipPath>
		
			<rect x="228.8" y="637.2" transform="matrix(5.233575e-02 -0.9986 0.9986 5.233575e-02 -419.6063 912.2291)" class="st1" width="84" height="80"/>
	</g>
	<g>
		<defs>
			<rect id="SVGID_5_" x="130" y="621" width="489" height="92"/>
		</defs>
		<defs>
			<path id="SVGID_6_" d="M362.2,688.9c0.4,0,0.6,0.1,0.8,0.1c2.3-0.3,4.7-0.7,7-1c2.1-0.3,4.1-0.6,6.2-0.9c2.5-0.3,5-0.6,7.5-0.8
				c1.8-0.1,3.5-0.1,5.3-0.2c0.8,0,1.6,0,2.3,0c1.9,0,3.3,1.1,3.3,3.1c0,0.5,0.1,1,0.1,1.4c0,0.9-0.2,1.2-1.1,1.4
				c-1.2,0.2-2.5,0.4-3.8,0.5c-2,0.2-4,0.6-5.9,1.2c-0.7,0.2-1.4,0.4-2.1,0.5c-1.9,0.3-3.6,0.9-5.4,1.4c-2,0.5-4.1,0.9-6.1,1.3
				c-0.9,0.2-1.9,0.4-2.9,0.6c-1.8,0.3-3.7,0.6-5.5,0.9c-1.3,0.2-2.7,0.5-4,0.8c-1.2,0.2-2.5,0.5-3.7,0.7c-1.7,0.4-3.4,0.8-5.1,1.2
				c-1.7,0.4-3.4,0.7-5.1,1.1c-1.8,0.5-3.6,1.1-5.5,1.7c-1.5,0.4-3,0.8-4.5,1c-2,0.3-4.1,0.4-6.1,0.7c-0.8,0.1-1.5,0.4-2.2,0.6
				c-1,0.3-2,0.6-3,1c-0.4,0.1-0.7,0.3-1.1,0.4c-0.9,0.2-1.8,0.7-2.7,0c-0.2,0.1-0.4,0.2-0.6,0.3c0-0.1,0-0.1,0.1-0.2
				c-0.4-0.2-0.8-0.5-1.2-0.7c-0.4-0.2-0.6-0.4-0.8-0.8c-0.5-1.1-1-2.1-1.6-3.1c-0.6-1.1-1.4-2.1-2.1-3.2c-0.3-0.5-0.6-1.1-0.9-1.7
				c-0.6-1.1-0.1-1.9,1.1-1.9c1.9,0,3.6-0.4,5.4-0.7c1.9-0.3,3.8-0.6,5.7-0.9c2.1-0.4,4.1-0.8,6.2-1.1c1.7-0.3,3.5-0.6,5.2-0.8
				c1.8-0.3,3.5-0.5,5.3-0.8c2.1-0.3,4.2-0.6,6.4-0.9c1.1-0.2,2.1-0.4,3.2-0.5c0.1-0.1,0.2-0.2,0.2-0.3c-0.2-0.1-0.4-0.1-0.5-0.2
				c-0.8-0.8-1.6-1.5-2.3-2.4c-0.3-0.4-0.3-1.1-0.2-1.6c0.1-0.2,0.2-0.5,0.2-0.8c0-0.1,0.3-0.3,0.4-0.4c0.1-0.3,0.2-0.7,0.4-0.8
				c0.6-0.3,0.6-1,1.3-1.3c0.6-0.2,1.1-0.9,1.3-1.6c0.1-0.3,0.6-0.5,0.8-0.8c1.1-1.2,2.1-2.4,2.9-3.8c0.3-0.6,0.9-1,1.2-1.5
				c1.1-1.6,2.2-3.2,3.3-4.7c1-1.3,2-2.6,3-3.9c0.5-0.7,1-1.4,1.6-2c0.5-0.6,1.1-1.2,1.5-1.9c0.8-1.4,1.6-2.9,2.3-4.4
				c0.5-1.1,0.9-2.3,1.3-3.5c0.3-0.8,0.4-1.7,0.5-2.5c0.1-0.7-0.9-1.5-1.7-1.4c0.2,0.1,0.4,0.2,0.6,0.3c-1,0-1.9,0-2.8,0
				c-1,0-2.1,0.2-3.1,0.3c-0.4,0-0.8,0.1-1.2,0.2c-1.5,0.3-3,0.5-4.6,0.8c-2.1,0.4-4.1,0.9-6.1,1.3c-1.1,0.2-2.1,0.6-3.2,0.9
				c-1.1,0.3-2.1,0.5-3.2,0.8c-0.9,0.2-1.8,0.5-2.6,0.8c-2.6,0.9-5.3,1.9-7.8,2.9c-2.1,0.8-4.1,1.8-6.1,2.8
				c-0.2,0.1-0.3,0.3-0.5,0.5c-0.3,0.2-0.6,0.4-0.9,0.5c-0.2,0.1-0.4,0.1-0.6,0.2c-1.1,0.5-1.5,0.5-2.3-0.3
				c-0.1-0.1-0.3-0.2-0.5-0.3c-0.1-0.1-0.4-0.2-0.4-0.3c0.2-0.5-0.3-0.6-0.5-0.8c-0.8-0.6-1.6-1.2-2.4-1.8c-0.4-0.3-0.7-0.5-1-0.9
				c-0.5-0.6-1.2-0.6-1.8-0.9c-0.5-0.3-1.1-0.5-1.5-0.9c-0.3-0.2-0.5-0.7-0.6-1.1c0-0.4,0.2-0.8,0.3-1.3c0.1-0.3,0.1-0.7,0.3-0.9
				c0.2-0.2,0.6-0.4,0.8-0.5c0.1-0.1,0.1-0.3,0.2-0.4c0.3-0.3,0.7-0.5,1.1-0.7c0.3-0.1,0.6-0.2,0.9-0.3c0.4-0.2,0.7-0.4,1.1-0.6
				c0.8-0.6,1.7-1.1,2.7-1.4c0.8-0.2,1.4-0.7,2.2-1c2-0.9,4.1-1.8,6.2-2.6c1.5-0.6,3-1.2,4.5-1.7c1-0.3,2-0.5,3-0.8
				c1-0.3,2-0.5,3-0.8c3.2-1.1,6.4-1.9,9.7-2.4c2.2-0.3,4.4-0.6,6.6-0.7c1-0.1,2,0.1,3,0.2c1.2,0.1,2.4,0.3,3.5,0.5
				c1.3,0.2,2.5,0.7,3.8,1.3c1.9,0.9,3.7,2,5,3.8c0.4,0.5,0.7,1.1,1,1.7c0.3,0.6,0.8,1.1,0.8,1.9c0.1,1.3,0.5,2.6,0.6,3.8
				c0.1,1.2,0,2.4,0.3,3.5c0.1,0.5,0,1-0.1,1.5c-0.1,1.1-0.1,2.3-0.2,3.4c-0.1,0.7,0.2,1.5-0.4,2.1c-0.2,0.2-0.2,0.6-0.2,0.8
				c-0.2,1.2-0.8,2.1-1.3,3.1c-0.7,1.1-1.4,2.2-1.8,3.5c-0.3,0.9-1.1,1.3-1.3,2.2c-0.1,0.6-0.4,1.2-0.7,1.7
				c-0.4,0.8-0.9,1.6-1.4,2.4c-0.4,0.8-0.8,1.7-1.2,2.5c-0.5,0.9-1,1.7-1.5,2.5c-0.4,0.7-0.6,1.4-1,2.2c-0.3,0.6-0.6,1.2-0.9,1.7
				C363.1,686.9,362.7,687.8,362.2,688.9"/>
		</defs>
		<clipPath id="SVGID_7_">
			<use xlink:href="#SVGID_5_"  style="overflow:visible;"/>
		</clipPath>
		<clipPath id="SVGID_8_" class="st2">
			<use xlink:href="#SVGID_6_"  style="overflow:visible;"/>
		</clipPath>
		
			<rect x="313.9" y="627.6" transform="matrix(1.745245e-02 -0.9998 0.9998 1.745245e-02 -326.7994 1015.7292)" class="st3" width="79" height="93"/>
	</g>
	<g>
		<defs>
			<rect id="SVGID_9_" x="130" y="621" width="489" height="92"/>
		</defs>
		<defs>
			<path id="SVGID_10_" d="M205.6,643c1.1,1.3,2,2.4,3,3.5c1,1.1,2,2.1,3.1,3c1.1,1,1.2,2.1,0.6,3.5c-0.3,0.6-0.4,1.3-0.6,2
				c-0.3,1.3-0.5,2.6-0.8,3.9c-0.4,1.8-0.6,2.2-0.9,4c0,0.2-1.6,4.7-1.6,5c0.8-0.4,5.9-2.4,8.9-3.4c2.4-0.9,3.3-1.6,4.8-2.5
				c0.2-0.1,0.4-0.3,0.6-0.4c1.8-1,3.5-5.7,4.7-7.6c0.9-1.5,1.2-3.1,1.8-4.7c0.4-1,0.6-2.2,0.9-3.3c0.4-1.4,0.9-2.7,1.3-4.1
				c0.2-0.6,0.3-1.2,0.5-1.8c0.1-0.2,0.2-0.5,0.4-0.6c0.2-0.1,0.5,0,0.7,0.1c0.4,0.5,0.8,1,1.2,1.5c0.7,1,1.3,2,1.9,3.1
				c0.7,1.2,1.4,2.4,2,3.6c0.2,0.4,0.3,1,0.4,1.5c0,0.1,0,0.3,0,0.4c-0.4,0.7-0.8,1.4-1.1,2.1c-0.6,1.5-1.1,3.1-1.6,4.6
				c-0.5,1.9-1,3.9-1.4,5.9c-0.3,1.2-0.5,2.4-0.8,3.6c-0.3,1.3-0.7,2.5-1,3.7c-0.1,0.2,0,0.5-0.1,0.8c-0.2,0.9-0.5,1.8-0.8,2.7
				c-0.4,1.5-0.7,3-1.1,4.6c-0.2,0.8-0.4,1.5-0.6,2.3c-0.2,0.7-0.2,1.5-0.4,2.2c-0.1,0.4-0.1,0.8-0.3,1.2c-0.8,1.5-0.8,3.2-1,4.9
				c-0.3,2.2-0.5,4.4-0.8,6.6c-0.3,2.4-0.5,4.8-0.7,7.2c-0.2,2.1-0.3,4.3-0.5,6.4c0,0.4-0.3,0.9-0.4,1.3c-0.1,0.5,0,1-0.5,1.3
				c-0.5,0.2-0.9,0.2-1.4,0.1c-0.9-0.4-1.7-0.9-2.5-1.6c-0.9-0.8-1.7-1.6-2.6-2.4c-0.1-0.1-0.2-0.1-0.3-0.2
				c-0.4-0.4-0.9-0.6-0.8-1.5c0.2-1.4,0.2-2.9,0.3-4.3c0.2-3,0.4-5.9,0.6-8.9c0.1-2,0.2-4.1,0.4-6.1c0.2-3.2,0.7-6.4,1.4-9.5
				c0.1-0.6,0.1-1.3,0.2-2.1c-0.9,0.3-1.7,0.5-2.5,0.9c-1.6,0.6-3.1,1.4-4.6,2c-0.8,0.3-1.6,0.6-2.4,0.9c-0.7,0.2-1.4,0.3-2,0.7
				c-0.6,0.4-1.2,0.6-1.9,0.6c-0.2,0-0.5,0.3-0.6,0.5c-0.4,1.7-0.7,3.5-1,5.2c-0.4,2.3-0.8,4.6-1.2,6.9c-0.3,1.9-0.7,3.8-1,5.7
				c-0.2,1.1-0.3,2.2-0.4,3.3c0,0.4-0.1,0.6-0.5,0.7c-0.2,0-0.4,0.2-0.6,0.4c-0.8,0.8-1.5,1-2.3,0.2c-1-1.1-2.3-1.8-3.4-2.7
				c-0.6-0.5-1.2-1.1-1.8-1.6c-0.4-0.4-0.9-0.8-1.3-1.2c-0.3-0.3-0.5-0.6-0.4-1.1c0.4-1.8,0.8-3.5,1.2-5.3c0.3-1.3,0.7-2.5,1-3.7
				c0.3-1.4,0.5-2.8,0.8-4.2c0.2-0.9,0.4-1.8,0.6-2.7c0-0.1,0.1-0.2,0.1-0.3c-0.1-1.3,0.4-2.4,0.7-3.5c0.3-1.3,0.5-2.5,0.8-3.8
				c0.3-1.4,0.7-2.9,1.1-4.3c0.3-1.3,0.5-2.7,0.8-4c0.2-0.9,0.4-1.8,0.7-2.6c0.7-2.2,1.3-4.4,1.7-6.6c0.2-1.4,0.6-2.8,1-4.2
				c0.3-1.1,0.8-2.1,1-3.2c0.1-1.2,0.6-2.2,0.9-3.3C204.9,643.8,205.2,643.5,205.6,643"/>
		</defs>
		<clipPath id="SVGID_11_">
			<use xlink:href="#SVGID_9_"  style="overflow:visible;"/>
		</clipPath>
		<clipPath id="SVGID_12_" class="st4">
			<use xlink:href="#SVGID_10_"  style="overflow:visible;"/>
		</clipPath>
		
			<rect x="174.4" y="647.7" transform="matrix(1.745273e-02 -0.9998 0.9998 1.745273e-02 -463.5212 878.782)" class="st5" width="82" height="55"/>
	</g>
	<g>
		<defs>
			<rect id="SVGID_13_" x="130" y="621" width="489" height="92"/>
		</defs>
		<defs>
			<path id="SVGID_14_" d="M412.9,651.8c1.4,0.3,2.7,1.6,2,3.4c-0.7,1.7-1.9,2.5-3.6,3c-1.9,0.5-3.7,1-5.6,1.5
				c-1.1,0.3-2.2,0.7-3.3,0.9c-0.8,0.2-1.4,0.8-2.1,1.2c-0.1,0.1-0.1,0.5-0.1,0.8c0,0.2,0,0.5-0.1,0.7c-0.8,1.4-1.6,2.8-2.3,4.2
				c-0.8,1.5-1.4,3-2.1,4.6c-0.2,0.4,0.1,0.5,0.5,0.5c1.6,0,3-0.7,4.5-1.1c1.6-0.4,3.3-0.9,4.9-1.4c2.2-0.7,4.5-1.2,6.6-2.3
				c0.5-0.3,1.2-0.4,1.7-0.6c1.4-0.5,2.7-1.1,4.1-1.7c1-0.4,2.1-0.7,3.2-1c0.2-0.1,0.4-0.1,0.5-0.2c1.6-1,3.4-1.4,5.3-1.5
				c1.1,0,1.8,0.4,2.1,1.5c0.1,0.4,0,0.9-0.2,1.3c-0.6,1.4-1.3,2.7-2,4c-0.5,1.1-1,2.1-1.5,3.2c-0.2,0.3-0.5,0.6-0.7,0.9
				c-0.1,0.1-0.2,0.1-0.3,0.1c-1.3-0.6-2.5,0-3.8,0.3c-1.2,0.3-2.4,0.8-3.6,1.2c-0.5,0.2-1,0.3-1.5,0.4c-1.5,0.5-3,1-4.5,1.4
				c-0.7,0.2-1.4,0.3-2.1,0.4c-0.9,0.2-1.8,0.5-2.7,0.7c-1.4,0.4-2.8,0.9-4.2,1.2c-0.7,0.2-1.5,0.3-2.2,0.4
				c-0.6,0.1-1.2,0.4-1.8,0.5c-1.2,0.3-2.5,0.8-3.7,1c-0.7,0.1-1.5-0.1-2.2-0.3c-2-0.7-3.5-1.8-4.2-3.9c-0.4-1.4-0.9-2.8-0.8-4.3
				c0.1-0.9,0.3-1.8,0.7-2.6c0.7-1.6,1.5-3.1,2.3-4.6c0.3-0.6,0.7-1.2,1-1.8c0.4-0.7,0.1-1.5-0.6-1.9c-1-0.6-1.9-1.1-2.9-1.7
				c-0.2-0.1-0.3-0.3-0.4-0.4c-0.4-0.9-1.3-1.6-1.3-2.7c0-0.5,0.2-0.8,0.6-0.9c1-0.4,2-0.7,3.1-1.1c0.7-0.3,1.3-0.6,2-0.9
				c2.3-0.8,4.6-1.6,6.9-2.3c1.1-0.3,2.3-0.4,3.5-0.7c0.7-0.1,1.5-0.2,2.2-0.6c0.9-0.5,1.9-1.2,2.5-2c1.2-1.6,2.2-3.5,3.3-5.2
				c0.4-0.7,0.8-1.4,0.7-2.2c0-0.1,0.2-0.3,0.2-0.4c-0.2-0.2-0.5-0.4-0.7-0.6c-0.7-0.8-1.6-0.6-2.5-0.5c-1,0.1-1.9,0.3-2.8,0.5
				c-1.3,0.3-2.7,0.7-4,1.1c-0.8,0.2-1.5,0.4-2.2,0.7c-2.5,0.9-5,1.9-7.5,2.7c-1.8,0.6-3.3,1.5-4.9,2.5c-0.6,0.4-0.8,0.3-1.3-0.3
				c-0.5-0.6-1.2-1-1.8-1.5c-0.4-0.4-0.8-0.8-1.3-1.2c-0.9-0.8-1.8-1.7-2.7-2.5c-0.3-0.3-0.7-0.5-1-0.8c-0.6-0.6-1.1-1.2-1.6-1.9
				c-0.2-0.3-0.2-0.8,0.3-1.1c0.6-0.3,1.2-0.6,1.8-0.9c0.4-0.2,0.9-0.4,1.3-0.5c0.5-0.1,1.1-0.2,1.6-0.3c0.3-0.1,0.7-0.2,1-0.3
				c0.9-0.4,1.9-0.6,2.7-1.1c0.9-0.5,2-0.5,3-0.9c1.7-0.6,3.4-1.2,5.1-1.7c0.9-0.3,1.9-0.7,2.8-0.9c1.4-0.4,2.7-0.7,4.1-1
				c1.8-0.4,3.6-0.8,5.4-1c1.7-0.2,3.4-0.4,5.2-0.4c2.3-0.1,4.6,0,6.9,0c1.3,0,1.6,0.2,2,1.5c0.1,0.4,0.3,0.9,0.3,1.3
				c0,0.4-0.2,0.7-0.2,1.1c-0.2,1.3-0.2,2.6-0.5,3.9c-0.3,1.5-0.9,3-1.3,4.5c-0.2,0.6-0.2,1.2-0.3,1.7c-0.1,0.4-0.3,0.8-0.5,1.3
				c-0.5,1.2-0.8,2.4-1.6,3.5c-1,1.3-1.9,2.7-2.8,4C412.9,651.7,412.9,651.7,412.9,651.8"/>
		</defs>
		<clipPath id="SVGID_15_">
			<use xlink:href="#SVGID_13_"  style="overflow:visible;"/>
		</clipPath>
		<clipPath id="SVGID_16_" class="st6">
			<use xlink:href="#SVGID_14_"  style="overflow:visible;"/>
		</clipPath>
		
			<rect x="371.2" y="623.5" transform="matrix(1.745266e-02 -0.9998 0.9998 1.745266e-02 -259.1801 1046.2555)" class="st7" width="63" height="63"/>
	</g>
	<g>
		<defs>
			<rect id="SVGID_17_" x="130" y="621" width="489" height="92"/>
		</defs>
		<defs>
			<path id="SVGID_18_" d="M497,647.4c-0.1,0-0.3,0-0.3,0c-0.2,0.9-1.1,1.4-1.2,2.3c-0.1,0.6-0.6,1.2-0.8,1.9
				c-0.5,1.3-1.1,2.5-1.6,3.8c-0.3,0.7-0.5,1.4-0.2,2.2c0,0.1-0.3,0.4-0.5,0.6c-0.7,0.8-1.5,1.5-2.6,1.7c-0.6,0.1-1.3,0.3-1.9,0.3
				c-1.6,0.1-3.3,0-4.9,0.1c-1.1,0-2.3,0.1-3.4,0.2c-2.2,0.2-4.3,0.3-6.5,0.6c-2.4,0.3-4.7,0.7-7,1.5c-0.2,0.1-0.4,0.1-0.6,0.1
				c-0.5,0.1-0.8,0.3-0.7,0.8c0,0.2-0.1,0.5-0.2,0.6c-0.9,1.7-2.2,3.1-3.4,4.5c-1.1,1.3-2.2,2.7-3.3,4.1c-0.4,0.6-0.9,1.1-1.4,1.6
				c-0.7,1-1.4,2-2.1,3.1c-0.4,0.6-0.9,1.1-1.2,1.6c-0.3,0.4-0.5,1-0.8,1.4c-0.2,0.4-0.4,0.8-0.7,1.1c-0.4,0.5-0.3,0.9,0.3,0.9
				c1.3,0.1,2.7,0.3,4,0.2c1.7,0,3.3-0.2,5-0.4c1.3-0.1,2.7-0.4,4-0.5c2.9-0.3,5.7-0.7,8.6-0.9c1-0.1,2,0.1,3,0.1
				c0.1,0,0.2-0.1,0.3-0.1c0.2,0,0.4-0.1,0.5-0.1c0.4,0.4,1.2,0.2,1.4,1.1c0.1,0.6,0.5,1,0.3,1.7c0,0.2-0.1,0.3-0.2,0.5
				c-0.6,1-0.7,2.2-1.1,3.3c-0.2,0.6-0.1,1.2-0.1,1.9c-0.1,0.7-0.3,0.9-1.1,0.9c-2.7-0.1-5.5-0.3-8.2-0.2c-2.4,0-4.9,0.2-7.3,0.7
				c-1.3,0.2-2.6,0.3-3.8,0.7c-1.7,0.5-3.4,0.2-5,0c-0.4,0-0.7-0.3-1-0.6c-1.2-0.9-2-2.2-2.6-3.6c-0.2-0.5-0.2-1-0.4-1.5
				c-0.3-1-0.8-2-1-3.1c-0.3-1.4-0.8-2.9-0.6-4.4c0.1-0.9,0.1-1.8,0.3-2.6c0.2-1,0.7-2,1.2-2.9c0.6-1.2,1.2-2.4,1.8-3.5
				c0.5-0.9,1-1.7,1.6-2.5c0.9-1.2,1.8-2.2,2.7-3.4c0.2-0.3,0.6-0.8,0.5-1.1c-0.2-0.5-0.6-0.9-1-1.2c-0.8-0.6-1.6-1.4-2.1-2.3
				c-0.3-0.6-0.3-1.3-0.3-2.1c0-1.6,1-2.7,2-3.8c0.8-0.9,1.7-1.8,2.6-2.6c0.5-0.4,1.1-0.6,1.7-0.9c0.7-0.3,1.5-0.5,2.3-0.7
				c1.6-0.4,3.3-0.8,4.9-1.3c1.3-0.4,2.5-0.9,3.7-1.2c0.6-0.2,1.2-0.3,1.8-0.4c1.1-0.2,2.3-0.4,3.4-0.6c1-0.2,1.9-0.5,2.9-0.7
				c1.6-0.2,3.3-0.3,4.9-0.5c1.3-0.2,2.6-0.4,3.9-0.6c2.7-0.4,5.3-0.7,8-1c0.8-0.1,1.7-0.1,2.6-0.1c1,0,1.7,0.4,2.1,1.4
				c0.4,0.9,0.2,1.7-0.4,2.4c-0.2,0.2-0.4,0.4-0.6,0.7c-0.2,0.2-0.3,0.5-0.5,0.7C496.9,647.3,496.9,647.4,497,647.4"/>
		</defs>
		<clipPath id="SVGID_19_">
			<use xlink:href="#SVGID_17_"  style="overflow:visible;"/>
		</clipPath>
		<clipPath id="SVGID_20_" class="st8">
			<use xlink:href="#SVGID_18_"  style="overflow:visible;"/>
		</clipPath>
		
			<rect x="442.6" y="636.2" transform="matrix(1.745206e-02 -0.9998 0.9998 1.745206e-02 -202.3104 1127.5669)" class="st9" width="60" height="61"/>
	</g>
	<g>
		<defs>
			<rect id="SVGID_21_" x="130" y="621" width="489" height="92"/>
		</defs>
		<defs>
			<path id="SVGID_22_" d="M188.8,649.8c-0.2,0.3-0.4,0.6-0.6,0.9c-0.8,1-1.6,2.1-2.4,3.1c-0.7,0.9-1.4,1.7-2,2.6
				c-0.4,0.5-0.8,1-1.2,1.6c-0.4,0.5-0.9,1.1-1,1.7c-0.1,0.4,0.2,1,0.4,1.5c0.4,0.9,1.2,1.5,2.1,1.9c2.2,1,3.9,2.7,5.5,4.5
				c1,1.2,1.7,2.5,2.2,3.9c0.2,0.8,0.4,1.6,0.5,2.5c0.1,0.9,0.2,1.9,0.3,2.8c0,0.8-0.1,1.5-0.2,2.3c-0.1,0.9-0.1,1.9-0.3,2.8
				c-0.3,1.6-0.7,3.2-1.1,4.7c-0.3,1-0.6,1.9-0.9,2.8c-0.3,0.9-0.5,1.9-0.9,2.8c-0.1,0.3-0.4,0.5-0.6,0.8c-0.5,0.3-0.6,1.3-1.4,0.4
				c-0.3-0.4-0.9-0.6-1.3-1c-1-1-1.9-2-2.9-2.9c-0.5-0.5-1.1-0.9-1.6-1.5c-0.2-0.3-0.3-0.8-0.2-1.1c0.5-1.5,1-2.9,1.5-4.3
				c0.4-1.2,1-2.5,1.2-3.8c0.4-1.7,0.8-3.5,0.2-5.3c-0.2-0.6-0.6-1.3-0.9-1.9c-0.6-1.1-1.2-2.4-2.1-3.3c-1-1-2.3-1.8-3.9-1.4
				c-0.6,0.1-1.2,0.1-1.8,0.2c-0.3,0.1-0.7,0.1-1,0.3c-1.3,0.7-2.4,1.6-3.3,2.7c-1.2,1.4-2.4,2.8-3.5,4.2c-1.7,2-3.3,4-5,6
				c-0.6,0.7-1.2,1.4-1.8,2.1c-0.9,1-1.7,2-2.6,3c-0.9,1-1.8,1.8-2.7,2.8c-0.6,0.7-1.2,1.5-1.7,2.2c-0.1,0.1,0,0.2-0.1,0.2
				c-1,0.4-1.4,1.5-2.2,2.2c-0.7,0.7-1.1,1.6-1.8,2.3c-0.6,0.7-1.4,1.3-2,2c-0.5,0.6-1,1.3-1.5,1.9c-0.8,1.1-1.5,2.1-2.3,3.2
				c-0.7,0.9-1.3,1.8-1.9,2.8c-0.3,0.5-0.4,1.1-0.7,1.6c-0.2,0.3-0.5,0.6-0.8,0.7c-0.2,0.1-0.6-0.2-0.9-0.4
				c-2.1-1.9-4.2-3.8-6.2-5.9c-1.1-1.2-2.3-2.4-2.9-4c-0.2-0.5-0.1-1.2,0-1.7c0.2-0.6,0.5-1.2,0.8-1.8c0.1-0.2,0.2-0.3,0.3-0.4
				c1.5-1.6,3.1-3.2,4.6-4.8c0.7-0.7,1.2-1.5,1.9-2.2c0.7-0.7,1.5-1.4,2.2-2.1c0.8-0.9,1.6-1.8,2.4-2.7c0.2-0.3,0.6-0.4,0.9-0.7
				c1.4-1.4,2.9-2.8,4.3-4.1c1-0.9,2-1.7,2.9-2.6c1.1-1.2,2.1-2.4,3.2-3.6c0.6-0.6,1.3-1.2,1.9-1.8c0.6-0.6,1.1-1.2,1.6-1.8
				c1.3-1.3,2.7-2.5,4-3.7c0.8-0.8,1.5-1.6,2.2-2.4c0.7-0.7,1.4-1.3,2-2c0.3-0.3,0.5-0.8,0.8-1.2c0.1-0.2,0.2-0.3,0.3-0.5
				c1.5-1.7,3.1-3.5,4.6-5.2c0.5-0.6,1-1.1,1.5-1.7c0.6-0.8,1.2-1.6,1.9-2.4c0.6-0.7,1.2-1.4,1.7-2.1c1.3-1.7,2.5-3.3,3.8-5
				c0.3-0.4,0.6-0.9,0.8-1.3c0.2-0.4,1.2-0.7,1.6-0.4c1.9,1.2,3.8,2.3,5.7,3.6c1.2,0.9,2.3,2,3.4,3c0.2,0.2,0.3,0.4,0.5,0.5
				C191.2,647.2,190,648.5,188.8,649.8L188.8,649.8z"/>
		</defs>
		<clipPath id="SVGID_23_">
			<use xlink:href="#SVGID_21_"  style="overflow:visible;"/>
		</clipPath>
		<clipPath id="SVGID_24_" class="st10">
			<use xlink:href="#SVGID_22_"  style="overflow:visible;"/>
		</clipPath>
		
			<rect x="121.4" y="638.8" transform="matrix(0.1392 -0.9903 0.9903 0.1392 -526.1197 741.4184)" class="st11" width="84" height="69"/>
	</g>
	
		<image style="overflow:visible;" width="78" height="27" xlink:href="2655B744.jpg"  transform="matrix(0.3333 0 0 0.3333 431 621)">
	</image>
	<g>
		<defs>
			<rect id="SVGID_25_" x="130" y="621" width="489" height="92"/>
		</defs>
		<clipPath id="SVGID_26_">
			<use xlink:href="#SVGID_25_"  style="overflow:visible;"/>
		</clipPath>
		<g style="clip-path:url(#SVGID_26_);">
			
				<image style="overflow:visible;" width="402" height="147" xlink:href="2655B743.jpg"  transform="matrix(0.3333 0 0 0.3333 485 630)">
			</image>
		</g>
	</g>
	
		<image style="overflow:visible;" width="78" height="147" xlink:href="2655B74C.jpg"  transform="matrix(0.3333 0 0 0.3333 431 630)">
	</image>
	<g>
		<defs>
			<rect id="SVGID_27_" x="130" y="621" width="489" height="92"/>
		</defs>
		<clipPath id="SVGID_28_">
			<use xlink:href="#SVGID_27_"  style="overflow:visible;"/>
		</clipPath>
		<g style="clip-path:url(#SVGID_28_);">
			
				<image style="overflow:visible;" width="402" height="84" xlink:href="2655B74F.jpg"  transform="matrix(0.3333 0 0 0.3333 485 679)">
			</image>
		</g>
	</g>
	<g>
		<defs>
			<rect id="SVGID_29_" x="130" y="621" width="489" height="92"/>
		</defs>
		<defs>
			<path id="SVGID_30_" d="M427.1,683.8c-0.1,0.1-0.3,0.2-0.3,0.4c0,0.8-0.7,1-1.3,1.4c-0.4,0.3-0.7,0.8-1,1.1
				c-0.6,0.7-1.1,1.5-1.9,2c-0.1,0.1-0.1,0.2-0.2,0.3c-0.1,0.1-0.2,0.4-0.3,0.4c-1.1,0.6-2,1.3-2.7,2.4c-0.6,0.9-1.2,1.7-1.9,2.5
				c-0.7,0.9-1.5,1.8-2.3,2.7c-0.4,0.4-0.9,0.8-1.2,1.2c-0.2,0.2-0.3,0.6-0.5,0.9c1,0.4,1.9,0.4,2.8,0.3c3.5-0.3,6.9-1.4,10.3-2.3
				c3.4-0.8,6.8-1.8,10.3-2.1c2.2-0.2,4.4-0.4,6.6-0.6c0.5,0,1,0.1,1.5,0.2c0.7,0.1,1.2,0.6,1.2,1.3c0.1,0.8,0.1,1.6,0.2,2.4
				c0,0.6,0.1,1.3,0.1,1.9c0,0.5-0.1,0.8-0.7,0.7c-2.2-0.3-4.4-0.3-6.5,0.1c-2.6,0.4-5.1,0.9-7.5,1.9c-1.1,0.5-2.3,0.8-3.4,1.2
				c-0.9,0.4-1.7,0.9-2.6,1.2c-0.7,0.3-1.5,0.5-2.3,0.7c-0.2,0.1-0.5,0.1-0.7,0.2c-0.7,0.4-1.5,0.5-2.2,0.7
				c-1.2,0.4-2.5,0.4-3.7,0.7c-0.3,0.1-0.5,0-0.8-0.1c-1-0.1-2.1-0.1-3.1-0.3c-0.4-0.1-0.7-0.5-1-0.8c-0.8-0.9-1.4-1.8-1.7-2.9
				c-0.2-0.9-0.3-1.8-0.5-2.7c-0.2-1-0.6-1.9-0.9-2.9c-0.4-1.2-0.3-2.5,0.1-3.7c0.4-1,0.8-2.1,1.3-3.1c0.5-1,1.2-1.8,1.8-2.7
				c0.4-0.6,0.6-1.2,1-1.8c0.9-1.5,1.8-3,2.7-4.5c1.4-2.4,3.3-4.5,5.2-6.6c0.4-0.4,1-0.7,1.6-0.9c0.1-0.1,0.5,0.1,0.6,0.2
				c0.7,0.9,1.3,1.8,1.6,3c0.1,0.7,0.7,1.3,1,2c0.4,1,0.8,2.1,1.2,3.1C426.9,683.3,427,683.6,427.1,683.8"/>
		</defs>
		<clipPath id="SVGID_31_">
			<use xlink:href="#SVGID_29_"  style="overflow:visible;"/>
		</clipPath>
		<clipPath id="SVGID_32_" class="st12">
			<use xlink:href="#SVGID_30_"  style="overflow:visible;"/>
		</clipPath>
		
			<rect x="406.1" y="667.4" transform="matrix(1.745287e-02 -0.9998 0.9998 1.745287e-02 -271.1804 1106.923)" class="st13" width="43" height="48"/>
	</g>
</g>
</svg>
