<?xml version="1.0" encoding="UTF-8" standalone="no"?>
<svg width="13px" height="14px" viewBox="0 0 13 14" version="1.1" xmlns="http://www.w3.org/2000/svg" xmlns:xlink="http://www.w3.org/1999/xlink">
    <!-- Generator: Sketch 46.2 (44496) - http://www.bohemiancoding.com/sketch -->
    <title>up-arrow</title>
    <desc>Created with Sketch.</desc>
    <defs></defs>
    <g id="boryung" stroke="none" stroke-width="1" fill="none" fill-rule="evenodd">
        <g id="web" transform="translate(-1299.000000, -18592.000000)" fill="#EEEEEE">
            <g id="16_more" transform="translate(0.000000, 18450.000000)">
                <g id="bt" transform="translate(1070.000000, 130.743243)">
                    <g id="up-arrow" transform="translate(228.800000, 12.750000)">
                        <path d="M7.35175102,0.123924269 C7.26738666,0.0516351119 7.1348141,0 7.00224155,0 C6.86966899,0 6.73709643,0.0516351119 6.65273207,0.123924269 L0.14462461,5.70051635 C-0.0482082034,5.86574871 -0.0482082034,6.13425129 0.14462461,6.29948365 C0.241041017,6.38209983 0.361561526,6.42340792 0.494134085,6.42340792 C0.626706644,6.42340792 0.747227153,6.38209983 0.84364356,6.29948365 L6.50810746,1.44578313 L6.50810746,11.5765921 C6.50810746,11.8141136 6.72504438,12 7.00224155,12 C7.27943871,12 7.49637563,11.8141136 7.49637563,11.5765921 L7.49637563,1.44578313 L13.1608395,6.29948365 C13.3536723,6.46471601 13.6670257,6.46471601 13.8598585,6.29948365 C14.0526913,6.13425129 14.0406392,5.86574871 13.8598585,5.70051635 L7.35175102,0.123924269 Z" id="up-arrow-copy-2" transform="translate(7.000000, 6.000000) rotate(-270.000000) translate(-7.000000, -6.000000) "></path>
                    </g>
                </g>
            </g>
        </g>
    </g>
</svg>