<?xml version="1.0" encoding="UTF-8" standalone="no"?>
<svg width="80px" height="31px" viewBox="0 0 80 31" version="1.1" xmlns="http://www.w3.org/2000/svg" xmlns:xlink="http://www.w3.org/1999/xlink">
    <!-- Generator: sketchtool 46.2 (44496) - http://www.bohemiancoding.com/sketch -->
    <title>725F332F-C64E-4F7C-A8E5-9417C494A997</title>
    <desc>Created with sketchtool.</desc>
    <defs></defs>
    <g id="boryung" stroke="none" stroke-width="1" fill="none" fill-rule="evenodd">
        <g id="web_main" transform="translate(-760.000000, -26.000000)">
            <g id="top_logo" transform="translate(760.000000, 26.000000)">
                <polygon id="Fill-1" fill="#74A8CF" points="16.4095996 14.2663586 29.7423993 14.2663586 29.7423993 0 16.4095996 0"></polygon>
                <polygon id="Fill-2" fill="#CF242C" points="0 30.5707685 13.3327997 30.5707685 13.3327997 16.3044099 0 16.3044099"></polygon>
                <path d="M3.773762,5.65207829 L9.74152314,5.65207829 L9.74152314,3.19165851 L3.773762,3.19165851 L3.773762,5.65207829 Z M3.773762,11.0933237 L9.74152314,11.0933237 L9.74152314,8.49305143 L3.773762,8.49305143 L3.773762,11.0933237 Z M19.6903423,22.9112097 L25.6587991,22.9112097 L25.6587991,19.6190542 L19.6903423,19.6190542 L19.6903423,22.9112097 Z M29.4318655,30.5707685 L29.4318655,26.0311851 C29.4318655,25.684365 29.3970842,25.5462694 29.0885748,25.3034602 L27.8893185,24.3673622 L29.0885748,23.4660516 C29.3970842,23.2566243 29.4318655,23.0844441 29.4318655,22.7369212 L29.4318655,16.5683024 L15.9169281,16.5683024 L15.9169281,30.5707685 L19.6903423,30.5707685 L19.6903423,25.891684 L25.6587991,25.891684 L25.6587991,30.5707685 L29.4318655,30.5707685 Z M11.9727382,7.03830452 L13.1726901,6.13839948 C13.4801561,5.92897215 13.5159808,5.75608918 13.5159808,5.40926908 L13.5159808,0.141609422 L0,0.141609422 L0,14.1440756 L13.5159808,14.1440756 L13.5159808,8.7014246 C13.5159808,8.35495589 13.4801561,8.21686035 13.1726901,7.9722942 L11.9727382,7.03830452 Z" id="Fill-3" fill="#231F20"></path>
                <path d="M44.5590165,14.3708966 C44.5590165,14.7602347 44.737792,14.8378915 44.9920427,14.8378915 L54.3328862,14.8378915 L54.3328862,11.0991216 L44.5590165,11.0991216 L44.5590165,14.3708966 Z M50.7191178,16.9673036 L50.7191178,21.5891119 L59.6784113,21.5891119 L59.6784113,23.718524 L39.9525922,23.718524 C39.4176571,23.718524 39.214187,23.3288346 39.214187,22.8618397 L39.214187,21.5891119 L48.0211388,21.5891119 L48.0211388,16.9673036 L44.126686,16.9673036 C42.7010039,16.9673036 41.8613854,16.2402815 41.8613854,14.8898969 L41.8613854,4.94526104 L44.5590165,4.94526104 L44.5590165,8.99571217 L54.3328862,8.99571217 L54.3328862,4.94526104 L57.0315608,4.94526104 L57.0315608,16.9673036 L50.7191178,16.9673036 Z" id="Fill-5" fill="#2B292A"></path>
                <path d="M44.5590165,14.3708966 C44.5590165,14.7602347 44.737792,14.8378915 44.9920427,14.8378915 L54.3328862,14.8378915 L54.3328862,11.0991216 L44.5590165,11.0991216 L44.5590165,14.3708966 Z M50.7191178,16.9673036 L50.7191178,21.5891119 L59.6784113,21.5891119 L59.6784113,23.718524 L39.9525922,23.718524 C39.4176571,23.718524 39.214187,23.3288346 39.214187,22.8618397 L39.214187,21.5891119 L48.0211388,21.5891119 L48.0211388,16.9673036 L44.126686,16.9673036 C42.7010039,16.9673036 41.8613854,16.2402815 41.8613854,14.8898969 L41.8613854,4.94526104 L44.5590165,4.94526104 L44.5590165,8.99571217 L54.3328862,8.99571217 L54.3328862,4.94526104 L57.0315608,4.94526104 L57.0315608,16.9673036 L50.7191178,16.9673036 Z" id="Stroke-6" stroke="#2B292A" stroke-width="0.301"></path>
                <path d="M77.1351735,13.0983444 L73.4441908,13.0983444 L73.4441908,10.9689323 L77.1351735,10.9689323 L77.1351735,8.6838552 L73.4441908,8.6838552 L73.4441908,6.55514582 L77.1351735,6.55514582 L77.1351735,3.98439016 L79.8331525,3.98439016 L79.8331525,16.7334548 C79.8331525,17.3828201 79.4769928,17.7201527 78.6370264,17.7201527 L77.1351735,17.7201527 L77.1351735,13.0983444 Z M72.7315237,26.0034254 C75.1495138,26.0034254 76.5751959,24.8870653 76.5751959,22.9913262 C76.5751959,21.0959386 75.1495138,19.9792271 72.7315237,19.9792271 C70.3135335,19.9792271 68.8885471,21.0959386 68.8885471,22.9913262 C68.8885471,24.8870653 70.3135335,26.0034254 72.7315237,26.0034254 L72.7315237,26.0034254 Z M72.7315237,17.8498149 C76.4478967,17.8498149 79.2728271,19.8232107 79.2728271,22.9913262 C79.2728271,26.1590904 76.4478967,28.1324862 72.7315237,28.1324862 C69.0154985,28.1324862 66.1898725,26.1590904 66.1898725,22.9913262 C66.1898725,19.8232107 69.0154985,17.8498149 72.7315237,17.8498149 L72.7315237,17.8498149 Z M64.1541279,16.7078035 C62.550366,16.7078035 61.9396078,15.8244137 61.9396078,14.5783913 L61.9396078,9.54089088 L69.3716582,9.54089088 L69.3716582,6.94448388 L61.9396078,6.94448388 L61.9396078,4.81507173 L72.0442468,4.81507173 L72.0442468,11.6439489 L64.637239,11.6439489 L64.637239,14.0330369 C64.637239,14.3707209 64.7394957,14.5007345 65.2229546,14.5263859 C66.5467277,14.6040426 70.9242917,14.3967236 74.2333766,14.0073856 L74.2333766,15.3574188 C74.2333766,15.8244137 73.9787781,16.1104436 73.3168915,16.1881004 C69.9827641,16.6037926 66.6736792,16.7078035 64.1541279,16.7078035 L64.1541279,16.7078035 Z" id="Fill-7" fill="#2B292A"></path>
                <path d="M77.1351735,13.0983444 L73.4441908,13.0983444 L73.4441908,10.9689323 L77.1351735,10.9689323 L77.1351735,8.6838552 L73.4441908,8.6838552 L73.4441908,6.55514582 L77.1351735,6.55514582 L77.1351735,3.98439016 L79.8331525,3.98439016 L79.8331525,16.7334548 C79.8331525,17.3828201 79.4769928,17.7201527 78.6370264,17.7201527 L77.1351735,17.7201527 L77.1351735,13.0983444 Z M72.7315237,26.0034254 C75.1495138,26.0034254 76.5751959,24.8870653 76.5751959,22.9913262 C76.5751959,21.0959386 75.1495138,19.9792271 72.7315237,19.9792271 C70.3135335,19.9792271 68.8885471,21.0959386 68.8885471,22.9913262 C68.8885471,24.8870653 70.3135335,26.0034254 72.7315237,26.0034254 Z M72.7315237,17.8498149 C76.4478967,17.8498149 79.2728271,19.8232107 79.2728271,22.9913262 C79.2728271,26.1590904 76.4478967,28.1324862 72.7315237,28.1324862 C69.0154985,28.1324862 66.1898725,26.1590904 66.1898725,22.9913262 C66.1898725,19.8232107 69.0154985,17.8498149 72.7315237,17.8498149 Z M64.1541279,16.7078035 C62.550366,16.7078035 61.9396078,15.8244137 61.9396078,14.5783913 L61.9396078,9.54089088 L69.3716582,9.54089088 L69.3716582,6.94448388 L61.9396078,6.94448388 L61.9396078,4.81507173 L72.0442468,4.81507173 L72.0442468,11.6439489 L64.637239,11.6439489 L64.637239,14.0330369 C64.637239,14.3707209 64.7394957,14.5007345 65.2229546,14.5263859 C66.5467277,14.6040426 70.9242917,14.3967236 74.2333766,14.0073856 L74.2333766,15.3574188 C74.2333766,15.8244137 73.9787781,16.1104436 73.3168915,16.1881004 C69.9827641,16.6037926 66.6736792,16.7078035 64.1541279,16.7078035 Z" id="Stroke-8" stroke="#2B292A" stroke-width="0.301"></path>
            </g>
        </g>
    </g>
</svg>