<?xml version="1.0" encoding="UTF-8"?>
<svg width="363px" height="110px" viewBox="0 0 363 110" version="1.1" xmlns="http://www.w3.org/2000/svg" xmlns:xlink="http://www.w3.org/1999/xlink">
    <!-- Generator: Sketch 46.2 (44496) - http://www.bohemiancoding.com/sketch -->
    <title>Page 1</title>
    <desc>Created with Sketch.</desc>
    <defs>
        <polygon id="path-1" points="0 0.415045171 0 109.972516 362.361633 109.972516 362.361633 0.415045171 0 0.415045171"></polygon>
        <path d="M0.276047508,38.282428 C0.276047508,17.3239178 16.8368224,0.278186916 37.1896184,0.278186916 C57.5424143,0.278186916 74.0990382,17.3239178 74.0990382,38.282428 C74.0990382,46.2176523 71.4672469,54.2066748 66.4963162,61.3866561 L38.6819354,101.520062 C38.3373949,102.01666 37.7832243,102.308411 37.1896184,102.308411 C36.6001636,102.308411 36.0439174,102.01666 35.6993769,101.520062 L7.8891472,61.3907944 C2.8351947,54.0990785 0.276047508,46.3231794 0.276047508,38.282428 Z M10.8696301,59.1995551 L37.1896184,97.174828 L63.5137578,59.1954168 C68.1048637,52.5679009 70.4336254,45.5286224 70.4336254,38.282428 C70.4336254,19.4054916 55.5208333,4.05026355 37.1896184,4.05026355 C18.8584034,4.05026355 3.93938474,19.4054916 3.93938474,38.282428 C3.93938474,45.522415 6.27229751,52.5616935 10.8696301,59.1995551 Z" id="path-3"></path>
        <polygon id="path-5" points="0 123 362.362461 123 362.362461 0.278186916 0 0.278186916"></polygon>
    </defs>
    <g id="boryung" stroke="none" stroke-width="1" fill="none" fill-rule="evenodd">
        <g id="mobile_main" transform="translate(-138.000000, -1455.000000)">
            <g id="Page-1" transform="translate(138.000000, 1448.000000)">
                <g id="Group-6" transform="translate(0.000000, 6.897196)">
                    <mask id="mask-2" fill="white">
                        <use xlink:href="#path-1"></use>
                    </mask>
                    <g id="Clip-2"></g>
                    <path d="M126.791146,35.16527 L140.957268,35.16527 L140.957268,23.0546236 L126.791146,23.0546236 L126.791146,35.16527 Z M142.980113,39.2021521 L124.768301,39.2021521 C123.65025,39.2021521 122.743386,38.2977253 122.743386,37.1826786 L122.743386,21.037215 C122.743386,19.9221682 123.65025,19.0177414 124.768301,19.0177414 L142.980113,19.0177414 C144.098164,19.0177414 145.005028,19.9221682 145.005028,21.037215 L145.005028,37.1826786 C145.005028,38.2977253 144.098164,39.2021521 142.980113,39.2021521 L142.980113,39.2021521 Z M157.146236,35.16527 L171.312358,35.16527 L171.312358,23.0546236 L157.146236,23.0546236 L157.146236,35.16527 Z M173.337273,39.2021521 L155.123391,39.2021521 C154.00534,39.2021521 153.100547,38.2977253 153.100547,37.1826786 L153.100547,21.037215 C153.100547,19.9221682 154.00534,19.0177414 155.123391,19.0177414 L173.337273,19.0177414 C174.455324,19.0177414 175.360118,19.9221682 175.360118,21.037215 L175.360118,37.1826786 C175.360118,38.2977253 174.455324,39.2021521 173.337273,39.2021521 L173.337273,39.2021521 Z M255.106154,57.8523411 L268.704969,57.918418 L268.756731,46.3157373 L255.157916,46.2517253 L255.106154,57.8523411 Z M270.649136,61.8231464 L270.638784,61.8231464 L253.135071,61.7384855 C252.056359,61.7322908 251.186763,60.8588375 251.190904,59.780959 L251.2613,44.2859393 C251.263371,43.767649 251.472488,43.2741376 251.83896,42.910715 C252.207503,42.5452274 252.749965,42.4027492 253.224101,42.3469969 L270.729884,42.4295929 C271.806526,42.4337227 272.678192,43.3092409 272.67198,44.3850545 L272.601585,59.884204 C272.599514,60.4004294 272.392468,60.8939408 272.023925,61.2573634 C271.657453,61.6187212 271.164682,61.8231464 270.649136,61.8231464 L270.649136,61.8231464 Z M126.791146,61.4019065 L140.957268,61.4019065 L140.957268,49.2912601 L126.791146,49.2912601 L126.791146,61.4019065 Z M142.980113,65.4387887 L124.768301,65.4387887 C123.65025,65.4387887 122.743386,64.5364268 122.743386,63.4213801 L122.743386,47.2738515 C122.743386,46.1588048 123.65025,45.2564429 124.768301,45.2564429 L142.980113,45.2564429 C144.098164,45.2564429 145.005028,46.1588048 145.005028,47.2738515 L145.005028,63.4213801 C145.005028,64.5364268 144.098164,65.4387887 142.980113,65.4387887 L142.980113,65.4387887 Z M157.146236,61.4019065 L171.312358,61.4019065 L171.312358,49.2912601 L157.146236,49.2912601 L157.146236,61.4019065 Z M173.337273,65.4387887 L155.123391,65.4387887 C154.00534,65.4387887 153.100547,64.5364268 153.100547,63.4213801 L153.100547,47.2738515 C153.100547,46.1588048 154.00534,45.2564429 155.123391,45.2564429 L173.337273,45.2564429 C174.455324,45.2564429 175.360118,46.1588048 175.360118,47.2738515 L175.360118,63.4213801 C175.360118,64.5364268 174.455324,65.4387887 173.337273,65.4387887 L173.337273,65.4387887 Z M255.106154,83.1742264 L268.704969,83.2361734 L268.756731,71.6314278 L255.157916,71.5694808 L255.106154,83.1742264 Z M270.649136,87.1409019 L270.638784,87.1409019 L253.135071,87.0583058 C252.056359,87.054176 251.186763,86.1786578 251.190904,85.1028442 L251.2613,69.6036947 C251.263371,69.0874694 251.472488,68.5939579 251.83896,68.2305353 C252.207503,67.8650478 252.749965,67.6213894 253.224101,67.6647523 L270.729884,67.7473484 C271.806526,67.7514782 272.678192,68.6269964 272.67198,69.7048749 L272.601585,85.2019595 C272.599514,85.7181848 272.392468,86.2116963 272.023925,86.5751189 C271.657453,86.9364766 271.164682,87.1409019 270.649136,87.1409019 L270.649136,87.1409019 Z M126.791146,87.640608 L140.957268,87.640608 L140.957268,75.5299616 L126.791146,75.5299616 L126.791146,87.640608 Z M142.980113,91.6774901 L124.768301,91.6774901 C123.65025,91.6774901 122.743386,90.7751282 122.743386,89.6580166 L122.743386,73.512553 C122.743386,72.3975062 123.65025,71.4930794 124.768301,71.4930794 L142.980113,71.4930794 C144.098164,71.4930794 145.005028,72.3975062 145.005028,73.512553 L145.005028,89.6580166 C145.005028,90.7751282 144.098164,91.6774901 142.980113,91.6774901 L142.980113,91.6774901 Z M157.146236,87.640608 L171.312358,87.640608 L171.312358,75.5299616 L157.146236,75.5299616 L157.146236,87.640608 Z M173.337273,91.6774901 L155.123391,91.6774901 C154.00534,91.6774901 153.100547,90.7751282 153.100547,89.6580166 L153.100547,73.512553 C153.100547,72.3975062 154.00534,71.4930794 155.123391,71.4930794 L173.337273,71.4930794 C174.455324,71.4930794 175.360118,72.3975062 175.360118,73.512553 L175.360118,89.6580166 C175.360118,90.7751282 174.455324,91.6774901 173.337273,91.6774901 L173.337273,91.6774901 Z M257.151774,19.0177414 C255.315271,19.0177414 253.824536,20.5086002 253.824536,22.3401677 L253.824536,25.0327991 C253.824536,26.8643666 255.315271,28.3531604 257.151774,28.3531604 L267.949249,28.3531604 C269.785752,28.3531604 271.276487,26.8643666 271.276487,25.0327991 L271.276487,22.3401677 C271.276487,20.5086002 269.785752,19.0177414 267.949249,19.0177414 L257.151774,19.0177414 Z M288.869229,109.865141 L284.728299,109.844492 L285.084419,33.6620218 L241.962841,33.4617264 L241.604651,109.646262 L237.46372,109.627678 L237.832263,31.3782409 C237.838475,30.2425452 238.763972,29.3236641 239.902728,29.3236641 L239.913081,29.3236641 L251.087381,29.3752866 C250.203292,28.152865 249.683606,26.6516817 249.683606,25.0327991 L249.683606,22.3401677 C249.683606,18.231014 253.033618,14.8879387 257.151774,14.8879387 L267.949249,14.8879387 C272.067405,14.8879387 275.417417,18.231014 275.417417,22.3401677 L275.417417,25.0327991 C275.417417,26.6971096 274.866674,28.2395909 273.939105,29.4805966 L287.175589,29.5425436 C287.724262,29.5446085 288.25016,29.765553 288.635267,30.1537544 C289.024514,30.5419559 289.237772,31.0685057 289.235702,31.6177695 L288.869229,109.865141 Z M191.923839,68.6228666 L226.925053,68.6228666 L226.993378,50.6726791 L191.946614,50.4765135 L191.923839,68.6228666 Z M111.175698,105.725014 L187.596567,105.725014 L187.782909,56.4069102 L187.782909,4.54484787 L111.175698,4.54484787 L111.175698,105.725014 Z M191.923839,105.636223 L226.782191,105.830324 L226.908489,72.7526693 L191.923839,72.7526693 L191.923839,105.636223 Z M228.844374,109.972516 L228.831951,109.972516 L190.480725,109.757766 C190.28196,109.819713 190.072843,109.854817 189.853374,109.854817 L109.105232,109.854817 C107.962336,109.854817 107.034767,108.931806 107.034767,107.789915 L107.034767,2.47994652 C107.034767,1.34012098 107.962336,0.415045171 109.105232,0.415045171 L189.853374,0.415045171 C190.998341,0.415045171 191.923839,1.34012098 191.923839,2.47994652 L191.923839,46.3467108 L229.084548,46.5552658 C230.225374,46.5614605 231.146731,47.4886012 231.14259,48.6284268 L230.914839,107.913809 C230.912769,108.463073 230.693299,108.987558 230.301981,109.373695 C229.914804,109.755701 229.390977,109.972516 228.844374,109.972516 L228.844374,109.972516 Z" id="Fill-1" fill="#303030" mask="url(#mask-2)"></path>
                    <path d="M287.117409,45.8236713 C285.982794,45.8236713 285.059366,44.9130498 285.046944,43.779419 C285.034521,42.6395934 285.953807,41.7041931 287.096704,41.6938686 L298.012197,41.5844288 L298.030831,41.5844288 C299.165446,41.5844288 300.090944,42.4950503 300.101296,43.6307461 C300.113719,44.7705716 299.196503,45.703907 298.051535,45.7142315 L287.138114,45.8236713 L287.117409,45.8236713 Z" id="Fill-3" fill="#303030" mask="url(#mask-2)"></path>
                    <path d="M314.221454,29.5615407 C306.432364,29.5615407 300.096741,35.8842686 300.096741,43.6544924 C300.096741,51.4247162 306.432364,57.7453792 314.221454,57.7453792 C322.010544,57.7453792 328.346168,51.4247162 328.346168,43.6544924 C328.346168,35.8842686 322.010544,29.5615407 314.221454,29.5615407 M314.221454,61.8751819 C304.150712,61.8751819 295.955811,53.7002375 295.955811,43.6544924 C295.955811,33.6066825 304.150712,25.431738 314.221454,25.431738 C324.292197,25.431738 332.487098,33.6066825 332.487098,43.6544924 C332.487098,53.7002375 324.292197,61.8751819 314.221454,61.8751819" id="Fill-4" fill="#303030" mask="url(#mask-2)"></path>
                    <path d="M360.291168,109.97169 L2.06963698,109.97169 C0.926740208,109.97169 -0.000828186066,109.048679 -0.000828186066,107.906789 C-0.000828186066,106.764898 0.926740208,105.841887 2.06963698,105.841887 L360.291168,105.841887 C361.436135,105.841887 362.361633,106.764898 362.361633,107.906789 C362.361633,109.048679 361.436135,109.97169 360.291168,109.97169" id="Fill-5" fill="#303030" mask="url(#mask-2)"></path>
                </g>
                <g id="Group-9" transform="translate(14.943925, 10.345794)">
                    <mask id="mask-4" fill="white">
                        <use xlink:href="#path-3"></use>
                    </mask>
                    <g id="Clip-8"></g>
                    <polygon id="Fill-7" fill="#161616" mask="url(#mask-4)" points="-10.1016783 112.654206 84.476764 112.654206 84.476764 -10.0676075 -10.1016783 -10.0676075"></polygon>
                </g>
                <g id="Group-18">
                    <path d="M51.5928862,14.9141753 C33.5901916,14.9141753 18.9416506,30.0376576 18.9416506,48.6269809 C18.9416506,55.7614407 21.2377964,62.6993305 25.7617628,69.2523566 L51.5928862,106.61102 L77.4260801,69.2461492 C81.9459056,62.7096763 84.23584,55.7717865 84.23584,48.6269809 C84.23584,30.0376576 69.5914399,14.9141753 51.5928862,14.9141753 Z M51.5928862,108.429811 L24.9108016,69.8399978 C20.2646778,63.1110931 17.906418,55.9745641 17.906418,48.6269809 C17.906418,29.4665697 33.0187432,13.8795959 51.5928862,13.8795959 C70.1628883,13.8795959 85.2710726,29.4665697 85.2710726,48.6269809 C85.2710726,55.9849099 82.9190242,63.1193697 78.2770413,69.8337903 L51.5928862,108.429811 Z M51.5928862,11.1420987 C31.5735585,11.1420987 15.2872796,27.9581529 15.2872796,48.6269809 C15.2872796,56.5642744 17.8111766,64.2408538 22.7885748,71.4435959 L50.5307376,111.570794 C51.0235083,112.284654 52.1684755,112.280516 52.6550349,111.572863 L80.4013385,71.4353193 C85.3021296,64.3463809 87.894352,56.4587473 87.894352,48.6269809 C87.894352,27.9581529 71.608073,11.1420987 51.5928862,11.1420987 Z M51.5928862,113.170254 C50.830955,113.170254 50.1166446,112.793667 49.6797764,112.158435 L21.9376137,72.031237 C16.838058,64.6526164 14.252047,56.7773978 14.252047,48.6269809 C14.252047,27.387065 31.0021102,10.1075193 51.5928862,10.1075193 C72.1795214,10.1075193 88.9295846,27.387065 88.9295846,48.6269809 C88.9295846,56.6698015 86.2731778,64.7602127 81.2522997,72.0270987 L53.505996,112.160504 C53.0711984,112.793667 52.3548174,113.170254 51.5928862,113.170254 Z" id="Fill-10" fill="#363F43"></path>
                    <mask id="mask-6" fill="white">
                        <use xlink:href="#path-5"></use>
                    </mask>
                    <g id="Clip-13"></g>
                    <polygon id="Fill-12" fill="#D0242C" mask="url(#mask-6)" points="33.6015792 55.6281869 69.5759114 55.6281869 69.5759114 42.6069701 33.6015792 42.6069701"></polygon>
                    <polygon id="Fill-14" fill="#D0242C" mask="url(#mask-6)" points="45.0760971 67.0933963 58.1055344 67.0933963 58.1055344 31.1417607 45.0760971 31.1417607"></polygon>
                    <polygon id="Fill-15" fill="#D0242C" mask="url(#mask-6)" points="306.062372 53.9294075 322.381779 53.9294075 322.381779 48.0219589 306.062372 48.0219589"></polygon>
                    <polygon id="Fill-16" fill="#D0242C" mask="url(#mask-6)" points="311.265451 59.1312729 317.176629 59.1312729 317.176629 42.8221626 311.265451 42.8221626"></polygon>
                    <path d="M51.591851,24.7317135 C38.2456325,24.7317135 27.3860427,35.5844518 27.3860427,48.9222499 C27.3860427,62.2621172 38.2456325,73.1127864 51.591851,73.1127864 C64.9401399,73.1127864 75.7976593,62.2621172 75.7976593,48.9222499 C75.7976593,35.5844518 64.9401399,24.7317135 51.591851,24.7317135 M51.591851,77.2511041 C35.9619095,77.2511041 23.2451124,64.5443994 23.2451124,48.9222499 C23.2451124,33.3021695 35.9619095,20.5933957 51.591851,20.5933957 C67.2217925,20.5933957 79.9385896,33.3021695 79.9385896,48.9222499 C79.9385896,64.5443994 67.2217925,77.2511041 51.591851,77.2511041" id="Fill-17" fill="#141414" mask="url(#mask-6)"></path>
                </g>
            </g>
        </g>
    </g>
</svg>