<?xml version="1.0" encoding="UTF-8" standalone="no"?>
<svg width="545px" height="375px" viewBox="0 0 545 375" version="1.1" xmlns="http://www.w3.org/2000/svg" xmlns:xlink="http://www.w3.org/1999/xlink">
    <!-- Generator: Sketch 46.2 (44496) - http://www.bohemiancoding.com/sketch -->
    <title>Group 178</title>
    <desc>Created with Sketch.</desc>
    <defs>
        <polygon id="path-1" points="0 374.054475 544.431441 374.054475 544.431441 0.418226737 0 0.418226737"></polygon>
    </defs>
    <g id="boryung" stroke="none" stroke-width="1" fill="none" fill-rule="evenodd">
        <g id="web" transform="translate(-131.000000, -14507.000000)">
            <g id="12_graphic_3" transform="translate(0.000000, 14335.000000)">
                <g id="Group-19">
                    <g transform="translate(131.000000, 80.000000)">
                        <g id="Page-1" transform="translate(0.000000, 92.000000)">
                            <g id="Group-178">
                                <g>
                                    <path d="M7.6474782,346.23798 L7.23497462,344.997397 C7.69727932,344.821648 8.09192968,344.57729 8.41798604,344.263385 C8.74404241,343.95042 9.00056514,343.613019 9.18943352,343.248363 L9.37642262,343.248363 L10.5603737,343.888391 L10.5603737,356.745339 L8.77505065,356.745339 L8.77505065,345.899639 L7.6474782,346.23798 Z" id="Fill-9" fill="#666666"></path>
                                    <path d="M14.8636599,344.884241 C14.3882002,344.884241 14.1495307,345.147395 14.1495307,345.673702 L14.1495307,354.320188 C14.1495307,354.847435 14.4192085,355.109649 14.958564,355.109649 L15.4086533,355.109649 C15.8850527,355.109649 16.1227825,354.847435 16.1227825,354.320188 L16.1227825,345.673702 C16.1227825,345.147395 15.8540444,344.884241 15.3146889,344.884241 L14.8636599,344.884241 Z M14.507535,356.744963 C13.0661215,356.744963 12.3454148,355.974298 12.3454148,354.432968 L12.3454148,345.560922 C12.3454148,344.019592 13.0661215,343.248927 14.507535,343.248927 L15.7666575,343.248927 C17.2071313,343.248927 17.9268984,344.019592 17.9268984,345.560922 L17.9268984,354.432968 C17.9268984,355.974298 17.2071313,356.744963 15.7666575,356.744963 L14.507535,356.744963 Z" id="Fill-11" fill="#666666"></path>
                                    <path d="M22.1366901,344.884241 C21.6602908,344.884241 21.4225609,345.147395 21.4225609,345.673702 L21.4225609,354.320188 C21.4225609,354.847435 21.691299,355.109649 22.2306545,355.109649 L22.6816835,355.109649 C23.1571432,355.109649 23.3958127,354.847435 23.3958127,354.320188 L23.3958127,345.673702 C23.3958127,345.147395 23.126135,344.884241 22.5877191,344.884241 L22.1366901,344.884241 Z M21.7796255,356.744963 C20.3382121,356.744963 19.618445,355.974298 19.618445,354.432968 L19.618445,345.560922 C19.618445,344.019592 20.3382121,343.248927 21.7796255,343.248927 L23.0387481,343.248927 C24.4792219,343.248927 25.1999286,344.019592 25.1999286,345.560922 L25.1999286,354.432968 C25.1999286,355.974298 24.4792219,356.744963 23.0387481,356.744963 L21.7796255,356.744963 Z" id="Fill-13" fill="#666666"></path>
                                    <path d="M10.4296692,291.408172 L10.4296692,293.024689 L5.58110774,293.024689 L5.58110774,288.870617 C5.58110774,288.645056 5.59896097,288.45615 5.63654672,288.306716 C5.67413246,288.156342 5.74084717,288.015367 5.83387189,287.88379 C5.92783626,287.751273 6.0941532,287.567065 6.33188306,287.329287 L8.15479184,285.581193 C8.29385911,285.443037 8.40191813,285.323678 8.48460678,285.224056 C8.56541614,285.123493 8.62179476,285.039848 8.652803,284.96936 C8.68475089,284.900752 8.70260412,284.829325 8.71012127,284.754138 C8.71575913,284.678951 8.71951771,284.578389 8.71951771,284.453391 L8.71951771,281.952489 C8.71951771,281.427121 8.46205533,281.163967 7.94807023,281.163967 L7.83531298,281.163967 C7.32132788,281.163967 7.06574479,281.427121 7.06574479,281.952489 L7.06574479,283.344385 L5.26162888,283.344385 L5.26162888,281.839709 C5.26162888,280.299318 5.98139595,279.527714 7.42186975,279.527714 L8.36151345,279.527714 C9.80198725,279.527714 10.5236336,280.299318 10.5236336,281.839709 L10.5236336,285.073682 C10.5236336,285.323678 10.4879272,285.5436 10.4193332,285.731567 C10.3507392,285.919534 10.1731465,286.150733 9.8846759,286.427045 L7.8916916,288.343369 C7.64080673,288.582087 7.49704125,288.745619 7.46039514,288.833023 C7.42186975,288.921368 7.3993183,289.007833 7.39462008,289.096177 C7.38710293,289.183582 7.38522365,289.302941 7.38522365,289.453315 L7.38522365,291.408172 L10.4296692,291.408172 Z" id="Fill-15" fill="#666666"></path>
                                    <path d="M14.8636599,281.163591 C14.3882002,281.163591 14.1495307,281.426745 14.1495307,281.953053 L14.1495307,290.599538 C14.1495307,291.126786 14.4192085,291.389 14.958564,291.389 L15.4086533,291.389 C15.8850527,291.389 16.1227825,291.126786 16.1227825,290.599538 L16.1227825,281.953053 C16.1227825,281.426745 15.8540444,281.163591 15.3146889,281.163591 L14.8636599,281.163591 Z M14.507535,293.024313 C13.0661215,293.024313 12.3454148,292.253648 12.3454148,290.712318 L12.3454148,281.840272 C12.3454148,280.298942 13.0661215,279.528277 14.507535,279.528277 L15.7666575,279.528277 C17.2071313,279.528277 17.9268984,280.298942 17.9268984,281.840272 L17.9268984,290.712318 C17.9268984,292.253648 17.2071313,293.024313 15.7666575,293.024313 L14.507535,293.024313 Z" id="Fill-17" fill="#666666"></path>
                                    <path d="M22.1366901,281.163591 C21.6602908,281.163591 21.4225609,281.426745 21.4225609,281.953053 L21.4225609,290.599538 C21.4225609,291.126786 21.691299,291.389 22.2306545,291.389 L22.6816835,291.389 C23.1571432,291.389 23.3958127,291.126786 23.3958127,290.599538 L23.3958127,281.953053 C23.3958127,281.426745 23.126135,281.163591 22.5877191,281.163591 L22.1366901,281.163591 Z M21.7796255,293.024313 C20.3382121,293.024313 19.618445,292.253648 19.618445,290.712318 L19.618445,281.840272 C19.618445,280.298942 20.3382121,279.528277 21.7796255,279.528277 L23.0387481,279.528277 C24.4792219,279.528277 25.1999286,280.298942 25.1999286,281.840272 L25.1999286,290.712318 C25.1999286,292.253648 24.4792219,293.024313 23.0387481,293.024313 L21.7796255,293.024313 Z" id="Fill-19" fill="#666666"></path>
                                    <path d="M9.33958858,222.367867 C10.2792323,222.618803 10.7490541,223.188343 10.7490541,224.078367 L10.7490541,227.009713 C10.7490541,228.538826 10.0274078,229.303852 8.58693398,229.303852 L7.36539716,229.303852 C5.92398372,229.303852 5.20515629,228.538826 5.20515629,227.009713 L5.20515629,226.146005 L7.0092722,226.146005 L7.0092722,226.879076 C7.0092722,227.405384 7.24606241,227.668538 7.72246177,227.668538 L8.135905,227.668538 C8.67526049,227.668538 8.94493823,227.405384 8.94493823,226.879076 L8.94493823,224.097164 C8.94493823,223.507887 8.59351148,223.212779 7.89159764,223.212779 L7.40298291,223.212779 L7.40298291,221.691185 L7.66608315,221.691185 C8.367997,221.691185 8.71942374,221.397017 8.71942374,220.80774 L8.71942374,218.251388 C8.71942374,217.72508 8.449746,217.461926 7.91039051,217.461926 L7.66608315,217.461926 C7.19062344,217.461926 6.95195394,217.72508 6.95195394,218.251388 L6.95195394,219.623547 L5.14783803,219.623547 L5.14783803,218.118871 C5.14783803,216.578481 5.86948439,215.807816 7.30995819,215.807816 L8.36141949,215.807816 C9.80189329,215.807816 10.5235397,216.578481 10.5235397,218.118871 L10.5235397,220.80774 C10.5235397,221.660171 10.1288893,222.179899 9.33958858,222.367867" id="Fill-21" fill="#666666"></path>
                                    <path d="M14.8636599,217.442941 C14.3882002,217.442941 14.1495307,217.706095 14.1495307,218.232403 L14.1495307,226.878888 C14.1495307,227.406136 14.4192085,227.66835 14.958564,227.66835 L15.4086533,227.66835 C15.8850527,227.66835 16.1227825,227.406136 16.1227825,226.878888 L16.1227825,218.232403 C16.1227825,217.706095 15.8540444,217.442941 15.3146889,217.442941 L14.8636599,217.442941 Z M14.507535,229.303664 C13.0661215,229.303664 12.3454148,228.532999 12.3454148,226.991669 L12.3454148,218.119623 C12.3454148,216.578293 13.0661215,215.807628 14.507535,215.807628 L15.7666575,215.807628 C17.2071313,215.807628 17.9268984,216.578293 17.9268984,218.119623 L17.9268984,226.991669 C17.9268984,228.532999 17.2071313,229.303664 15.7666575,229.303664 L14.507535,229.303664 Z" id="Fill-23" fill="#666666"></path>
                                    <path d="M22.1366901,217.442941 C21.6602908,217.442941 21.4225609,217.706095 21.4225609,218.232403 L21.4225609,226.878888 C21.4225609,227.406136 21.691299,227.66835 22.2306545,227.66835 L22.6816835,227.66835 C23.1571432,227.66835 23.3958127,227.406136 23.3958127,226.878888 L23.3958127,218.232403 C23.3958127,217.706095 23.126135,217.442941 22.5877191,217.442941 L22.1366901,217.442941 Z M21.7796255,229.303664 C20.3382121,229.303664 19.618445,228.532999 19.618445,226.991669 L19.618445,218.119623 C19.618445,216.578293 20.3382121,215.807628 21.7796255,215.807628 L23.0387481,215.807628 C24.4792219,215.807628 25.1999286,216.578293 25.1999286,218.119623 L25.1999286,226.991669 C25.1999286,228.532999 24.4792219,229.303664 23.0387481,229.303664 L21.7796255,229.303664 Z" id="Fill-25" fill="#666666"></path>
                                    <path d="M8.60544496,155.676303 L8.51148059,155.676303 L6.80132905,160.901788 L8.47483448,160.901788 L8.60544496,155.676303 Z M11.2185941,162.424321 L10.184986,162.424321 L10.184986,165.582168 L8.41845586,165.582168 L8.41845586,162.424321 L5.26125302,162.424321 L4.88539554,160.901788 L8.38087011,152.086132 L10.184986,152.086132 L10.184986,160.901788 L11.2185941,160.901788 L11.2185941,162.424321 Z" id="Fill-27" fill="#666666"></path>
                                    <path d="M14.8636599,153.721352 C14.3882002,153.721352 14.1495307,153.984506 14.1495307,154.510813 L14.1495307,163.157299 C14.1495307,163.684546 14.4192085,163.946761 14.958564,163.946761 L15.4086533,163.946761 C15.8850527,163.946761 16.1227825,163.684546 16.1227825,163.157299 L16.1227825,154.510813 C16.1227825,153.984506 15.8540444,153.721352 15.3146889,153.721352 L14.8636599,153.721352 Z M14.507535,165.582074 C13.0661215,165.582074 12.3454148,164.811409 12.3454148,163.270079 L12.3454148,154.398033 C12.3454148,152.856703 13.0661215,152.086038 14.507535,152.086038 L15.7666575,152.086038 C17.2071313,152.086038 17.9268984,152.856703 17.9268984,154.398033 L17.9268984,163.270079 C17.9268984,164.811409 17.2071313,165.582074 15.7666575,165.582074 L14.507535,165.582074 Z" id="Fill-29" fill="#666666"></path>
                                    <path d="M22.1366901,153.721352 C21.6602908,153.721352 21.4225609,153.984506 21.4225609,154.510813 L21.4225609,163.157299 C21.4225609,163.684546 21.691299,163.946761 22.2306545,163.946761 L22.6816835,163.946761 C23.1571432,163.946761 23.3958127,163.684546 23.3958127,163.157299 L23.3958127,154.510813 C23.3958127,153.984506 23.126135,153.721352 22.5877191,153.721352 L22.1366901,153.721352 Z M21.7796255,165.582074 C20.3382121,165.582074 19.618445,164.811409 19.618445,163.270079 L19.618445,154.398033 C19.618445,152.856703 20.3382121,152.086038 21.7796255,152.086038 L23.0387481,152.086038 C24.4792219,152.086038 25.1999286,152.856703 25.1999286,154.398033 L25.1999286,163.270079 C25.1999286,164.811409 24.4792219,165.582074 23.0387481,165.582074 L21.7796255,165.582074 Z" id="Fill-31" fill="#666666"></path>
                                    <path d="M5.41028051,98.7033896 L7.21533607,98.7033896 L7.21533607,99.4364612 C7.21533607,99.9637088 7.45306592,100.225923 7.92946528,100.225923 L8.13524725,100.225923 C8.67460274,100.225923 8.94428048,99.9637088 8.94428048,99.4364612 L8.94428048,96.3538012 C8.94428048,95.7654642 8.69339561,95.4712958 8.19256552,95.4712958 L5.46759878,95.4712958 L5.46759878,88.3652006 L10.559528,88.3652006 L10.559528,90.0381075 L7.15895744,90.0381075 L7.15895744,93.8350424 L8.58721587,93.8350424 C10.0276897,93.8350424 10.7483964,94.6310829 10.7483964,96.2222242 L10.7483964,99.4740546 C10.7483964,101.066136 10.0276897,101.861236 8.58721587,101.861236 L7.57240067,101.861236 C6.13192688,101.861236 5.41028051,101.09715 5.41028051,99.5680381 L5.41028051,98.7033896 Z" id="Fill-33" fill="#666666"></path>
                                    <path d="M14.8636599,90.0007021 C14.3872606,90.0007021 14.1495307,90.263856 14.1495307,90.7901638 L14.1495307,99.4366491 C14.1495307,99.9638968 14.4182688,100.226111 14.9576243,100.226111 L15.4086533,100.226111 C15.884113,100.226111 16.1227825,99.9638968 16.1227825,99.4366491 L16.1227825,90.7901638 C16.1227825,90.263856 15.8531048,90.0007021 15.3146889,90.0007021 L14.8636599,90.0007021 Z M14.5065953,101.861424 C13.0651819,101.861424 12.3454148,101.090759 12.3454148,99.5494294 L12.3454148,90.6773835 C12.3454148,89.1360535 13.0651819,88.3653885 14.5065953,88.3653885 L15.7657179,88.3653885 C17.2061917,88.3653885 17.9268984,89.1360535 17.9268984,90.6773835 L17.9268984,99.5494294 C17.9268984,101.090759 17.2061917,101.861424 15.7657179,101.861424 L14.5065953,101.861424 Z" id="Fill-35" fill="#666666"></path>
                                    <path d="M22.1366901,90.0007021 C21.6602908,90.0007021 21.4225609,90.263856 21.4225609,90.7901638 L21.4225609,99.4366491 C21.4225609,99.9638968 21.691299,100.226111 22.2306545,100.226111 L22.6816835,100.226111 C23.1571432,100.226111 23.3958127,99.9638968 23.3958127,99.4366491 L23.3958127,90.7901638 C23.3958127,90.263856 23.126135,90.0007021 22.5877191,90.0007021 L22.1366901,90.0007021 Z M21.7796255,101.861424 C20.3382121,101.861424 19.618445,101.090759 19.618445,99.5494294 L19.618445,90.6773835 C19.618445,89.1360535 20.3382121,88.3653885 21.7796255,88.3653885 L23.0387481,88.3653885 C24.4792219,88.3653885 25.1999286,89.1360535 25.1999286,90.6773835 L25.1999286,99.5494294 C25.1999286,101.090759 24.4792219,101.861424 23.0387481,101.861424 L21.7796255,101.861424 Z" id="Fill-37" fill="#666666"></path>
                                    <path d="M6.91427422,32.0503596 L6.91427422,35.6978606 C6.91427422,36.2363863 7.17737446,36.5051792 7.70451458,36.5051792 L8.04184667,36.5051792 C8.58026251,36.5051792 8.84994025,36.2363863 8.84994025,35.6978606 L8.84994025,33.0277883 C8.84994025,32.3774223 8.58026251,32.0503596 8.04184667,32.0503596 L6.91427422,32.0503596 Z M8.73718301,28.4611283 L8.73718301,27.2571992 C8.73718301,26.6058933 8.46750526,26.2797704 7.92908942,26.2797704 L7.62934308,26.2797704 C7.15200408,26.2797704 6.91427422,26.5438642 6.91427422,27.0692321 L6.91427422,31.1678542 L8.04184667,30.4159859 L8.58684001,30.4159859 C9.96529733,30.4159859 10.6531165,31.185711 10.6531165,32.7279809 L10.6531165,35.867031 C10.6531165,37.3829854 9.96529733,38.1404927 8.58684001,38.1404927 L7.17737446,38.1404927 C5.79891715,38.1404927 5.11015831,37.3829854 5.11015831,35.867031 L5.11015831,26.9564519 C5.11015831,25.4151219 5.79891715,24.6444569 7.17737446,24.6444569 L8.47408277,24.6444569 C9.85254008,24.6444569 10.5412989,25.4151219 10.5412989,26.9564519 L10.5412989,28.4611283 L8.73718301,28.4611283 Z" id="Fill-39" fill="#666666"></path>
                                    <path d="M14.8636599,26.2800524 C14.3872606,26.2800524 14.1495307,26.5432063 14.1495307,27.0695141 L14.1495307,35.7159994 C14.1495307,36.2432471 14.4182688,36.5054611 14.9576243,36.5054611 L15.4086533,36.5054611 C15.884113,36.5054611 16.1227825,36.2432471 16.1227825,35.7159994 L16.1227825,27.0695141 C16.1227825,26.5432063 15.8531048,26.2800524 15.3146889,26.2800524 L14.8636599,26.2800524 Z M14.5065953,38.1407747 C13.0651819,38.1407747 12.3454148,37.3701097 12.3454148,35.8287797 L12.3454148,26.9567338 C12.3454148,25.4154038 13.0651819,24.6447388 14.5065953,24.6447388 L15.7657179,24.6447388 C17.2061917,24.6447388 17.9268984,25.4154038 17.9268984,26.9567338 L17.9268984,35.8287797 C17.9268984,37.3701097 17.2061917,38.1407747 15.7657179,38.1407747 L14.5065953,38.1407747 Z" id="Fill-41" fill="#666666"></path>
                                    <path d="M22.1366901,26.2800524 C21.6602908,26.2800524 21.4225609,26.5432063 21.4225609,27.0695141 L21.4225609,35.7159994 C21.4225609,36.2432471 21.691299,36.5054611 22.2306545,36.5054611 L22.6816835,36.5054611 C23.1571432,36.5054611 23.3958127,36.2432471 23.3958127,35.7159994 L23.3958127,27.0695141 C23.3958127,26.5432063 23.126135,26.2800524 22.5877191,26.2800524 L22.1366901,26.2800524 Z M21.7796255,38.1407747 C20.3382121,38.1407747 19.618445,37.3701097 19.618445,35.8287797 L19.618445,26.9567338 C19.618445,25.4154038 20.3382121,24.6447388 21.7796255,24.6447388 L23.0387481,24.6447388 C24.4792219,24.6447388 25.1999286,25.4154038 25.1999286,26.9567338 L25.1999286,35.8287797 C25.1999286,37.3701097 24.4792219,38.1407747 23.0387481,38.1407747 L21.7796255,38.1407747 Z" id="Fill-43" fill="#666666"></path>
                                    <path d="M33.9656768,347.425649 L33.9656768,28.8214612" id="Stroke-45" stroke="#C0C0C0"></path>
                                    <path d="M33.4958549,347.895567 L46.6508668,347.895567" id="Stroke-47" stroke="#C0C0C0"></path>
                                    <path d="M33.4958549,283.986762 L540.903454,283.986762" id="Stroke-49" stroke="#C0C0C0"></path>
                                    <path d="M33.4958549,220.077958 L540.903454,220.077958" id="Stroke-51" stroke="#C0C0C0"></path>
                                    <path d="M33.4958549,157.108988 L540.903454,157.108988" id="Stroke-53" stroke="#C0C0C0"></path>
                                    <path d="M33.4958549,93.2001836 L540.903454,93.2001836" id="Stroke-55" stroke="#C0C0C0"></path>
                                    <path d="M33.4958549,29.2913789 L539.963811,29.2913789" id="Stroke-57" stroke="#C0C0C0"></path>
                                    <path d="M142.487571,295.5895 L70.135006,347.840587" id="Stroke-59" stroke="#E5E5E5" stroke-width="2" stroke-linecap="round"></path>
                                    <path d="M214.840136,266.915123 L142.487571,295.5895" id="Stroke-61" stroke="#E5E5E5" stroke-width="2" stroke-linecap="round"></path>
                                    <path d="M287.192701,192.361743 L214.840136,266.915123" id="Stroke-63" stroke="#E5E5E5" stroke-width="2" stroke-linecap="round"></path>
                                    <path d="M359.545266,199.371035 L287.192701,192.361743" id="Stroke-65" stroke="#E5E5E5" stroke-width="2" stroke-linecap="round"></path>
                                    <path d="M431.897832,128.003697 L359.545266,199.371035" id="Stroke-67" stroke="#E5E5E5" stroke-width="2" stroke-linecap="round"></path>
                                    <path d="M504.250397,29.2363985 L431.897832,128.003697" id="Stroke-69" stroke="#E5E5E5" stroke-width="2" stroke-linecap="round"></path>
                                    <path d="M142.487571,295.5895 L70.135006,347.840587" id="Stroke-71" stroke="#D0242C" stroke-width="2" stroke-linecap="round"></path>
                                    <path d="M214.840136,266.915123 L142.487571,295.5895" id="Stroke-73" stroke="#D0242C" stroke-width="2" stroke-linecap="round"></path>
                                    <path d="M287.192701,192.361743 L214.840136,266.915123" id="Stroke-75" stroke="#D0242C" stroke-width="2" stroke-linecap="round"></path>
                                    <path d="M359.545266,199.371035 L287.192701,192.361743" id="Stroke-77" stroke="#D0242C" stroke-width="2" stroke-linecap="round"></path>
                                    <path d="M431.897832,128.003697 L359.545266,199.371035" id="Stroke-79" stroke="#D0242C" stroke-width="2" stroke-linecap="round"></path>
                                    <path d="M504.250397,29.2363985 L431.897832,128.003697" id="Stroke-81" stroke="#D0242C" stroke-width="2" stroke-linecap="round"></path>
                                    <path d="M74.5737889,348.943202 C74.5737889,352.577545 71.6308248,355.523929 67.9972226,355.523929 C64.3617411,355.523929 61.418777,352.577545 61.418777,348.943202 C61.418777,345.309798 64.3617411,342.366234 67.9972226,342.366234 C71.6308248,342.366234 74.5737889,345.309798 74.5737889,348.943202" id="Fill-83" fill="#D0242C"></path>
                                    <path d="M71.3332396,348.943202 C71.3332396,350.786219 69.8373269,352.282437 67.9975045,352.282437 C66.1520443,352.282437 64.6589504,350.786219 64.6589504,348.943202 C64.6589504,347.103004 66.1520443,345.606786 67.9975045,345.606786 C69.8373269,345.606786 71.3332396,347.103004 71.3332396,348.943202" id="Fill-85" fill="#FFFFFF"></path>
                                    <path d="M149.065265,296.204622 C149.065265,299.838966 146.122301,302.785349 142.488699,302.785349 C138.853217,302.785349 135.910253,299.838966 135.910253,296.204622 C135.910253,292.571219 138.853217,289.627654 142.488699,289.627654 C146.122301,289.627654 149.065265,292.571219 149.065265,296.204622" id="Fill-87" fill="#D0242C"></path>
                                    <path d="M145.824622,296.204622 C145.824622,298.047639 144.328709,299.543857 142.488887,299.543857 C140.643426,299.543857 139.150333,298.047639 139.150333,296.204622 C139.150333,294.364425 140.643426,292.868207 142.488887,292.868207 C144.328709,292.868207 145.824622,294.364425 145.824622,296.204622" id="Fill-89" fill="#FFFFFF"></path>
                                    <path d="M221.41783,266.913525 C221.41783,270.547869 218.474866,273.494252 214.841264,273.494252 C211.205782,273.494252 208.262818,270.547869 208.262818,266.913525 C208.262818,263.280122 211.205782,260.336557 214.841264,260.336557 C218.474866,260.336557 221.41783,263.280122 221.41783,266.913525" id="Fill-91" fill="#D0242C"></path>
                                    <path d="M218.177187,266.913525 C218.177187,268.756542 216.681274,270.25276 214.841452,270.25276 C212.995991,270.25276 211.502898,268.756542 211.502898,266.913525 C211.502898,265.073328 212.995991,263.57711 214.841452,263.57711 C216.681274,263.57711 218.177187,265.073328 218.177187,266.913525" id="Fill-93" fill="#FFFFFF"></path>
                                    <path d="M293.770301,192.360145 C293.770301,195.994489 290.827337,198.940872 287.193735,198.940872 C283.558253,198.940872 280.615289,195.994489 280.615289,192.360145 C280.615289,188.726742 283.558253,185.783177 287.193735,185.783177 C290.827337,185.783177 293.770301,188.726742 293.770301,192.360145" id="Fill-95" fill="#D0242C"></path>
                                    <path d="M290.529752,192.360145 C290.529752,194.203162 289.033839,195.69938 287.194017,195.69938 C285.348557,195.69938 283.855463,194.203162 283.855463,192.360145 C283.855463,190.519948 285.348557,189.02373 287.194017,189.02373 C289.033839,189.02373 290.529752,190.519948 290.529752,192.360145" id="Fill-97" fill="#FFFFFF"></path>
                                    <path d="M364.830856,198.517477 C364.830856,202.15182 361.887892,205.098204 358.25429,205.098204 C354.618808,205.098204 351.675844,202.15182 351.675844,198.517477 C351.675844,194.884073 354.618808,191.940509 358.25429,191.940509 C361.887892,191.940509 364.830856,194.884073 364.830856,198.517477" id="Fill-99" fill="#D0242C"></path>
                                    <path d="M361.590307,198.517477 C361.590307,200.360494 360.094394,201.856712 358.254572,201.856712 C356.409112,201.856712 354.916018,200.360494 354.916018,198.517477 C354.916018,196.677279 356.409112,195.181061 358.254572,195.181061 C360.094394,195.181061 361.590307,196.677279 361.590307,198.517477" id="Fill-101" fill="#FFFFFF"></path>
                                    <path d="M438.904943,129.383845 C438.904943,133.018188 435.961979,135.964572 432.328376,135.964572 C428.692895,135.964572 425.749931,133.018188 425.749931,129.383845 C425.749931,125.750442 428.692895,122.806877 432.328376,122.806877 C435.961979,122.806877 438.904943,125.750442 438.904943,129.383845" id="Fill-103" fill="#D0242C"></path>
                                    <path d="M435.664299,129.383845 C435.664299,131.226862 434.168387,132.72308 432.328564,132.72308 C430.483104,132.72308 428.99001,131.226862 428.99001,129.383845 C428.99001,127.543647 430.483104,126.04743 432.328564,126.04743 C434.168387,126.04743 435.664299,127.543647 435.664299,129.383845" id="Fill-105" fill="#FFFFFF"></path>
                                    <path d="M510.83448,29.2348008 C510.83448,32.8691441 507.891516,35.815528 504.257914,35.815528 C500.622432,35.815528 497.679468,32.8691441 497.679468,29.2348008 C497.679468,25.6013973 500.622432,22.6578329 504.257914,22.6578329 C507.891516,22.6578329 510.83448,25.6013973 510.83448,29.2348008" id="Fill-107" fill="#D0242C"></path>
                                    <path d="M507.593931,29.2348008 C507.593931,31.0778179 506.098018,32.5740358 504.258196,32.5740358 C502.412736,32.5740358 500.919642,31.0778179 500.919642,29.2348008 C500.919642,27.3946031 502.412736,25.8983852 504.258196,25.8983852 C506.098018,25.8983852 507.593931,27.3946031 507.593931,29.2348008" id="Fill-109" fill="#FFFFFF"></path>
                                    <path d="M65.5456922,372.43777 L65.5456922,374.054287 L60.6971307,374.054287 L60.6971307,369.900215 C60.6971307,369.674654 60.7149839,369.486687 60.7525696,369.336313 C60.7901554,369.18594 60.8568701,369.044964 60.9498948,368.913387 C61.0447988,368.78181 61.2111158,368.597603 61.4488456,368.358885 L63.2717544,366.610791 C63.409882,366.473575 63.5188807,366.354216 63.6006297,366.253653 C63.6823787,366.153091 63.7378177,366.069446 63.7688259,365.999898 C63.8007738,365.93129 63.8195667,365.858922 63.8261442,365.783736 C63.8327217,365.708549 63.8355406,365.608926 63.8355406,365.482988 L63.8355406,362.983026 C63.8355406,362.456718 63.5780783,362.193565 63.0640932,362.193565 L62.9522756,362.193565 C62.4382904,362.193565 62.1817677,362.456718 62.1817677,362.983026 L62.1817677,364.373983 L60.3776518,364.373983 L60.3776518,362.870246 C60.3776518,361.328916 61.0983585,360.558251 62.5388323,360.558251 L63.478476,360.558251 C64.9189498,360.558251 65.6396565,361.328916 65.6396565,362.870246 L65.6396565,366.10328 C65.6396565,366.354216 65.6039501,366.573197 65.5362957,366.761164 C65.4667621,366.949131 65.2891694,367.181271 65.0006988,367.456643 L63.0086542,369.373907 C62.7577693,369.612625 62.6140038,369.775216 62.5764181,369.862621 C62.5388323,369.950966 62.5162809,370.03837 62.510643,370.125775 C62.5040655,370.21412 62.5012466,370.332539 62.5012466,370.482912 L62.5012466,372.43777 L65.5456922,372.43777 Z" id="Fill-111" fill="#666666"></path>
                                    <path d="M69.9805286,362.193659 C69.5041292,362.193659 69.2663993,362.456812 69.2663993,362.98312 L69.2663993,371.629606 C69.2663993,372.155913 69.5351374,372.419067 70.0744929,372.419067 L70.5255219,372.419067 C71.0019213,372.419067 71.2396511,372.155913 71.2396511,371.629606 L71.2396511,362.98312 C71.2396511,362.456812 70.9699734,362.193659 70.4306179,362.193659 L69.9805286,362.193659 Z M69.6234639,374.054381 C68.1829902,374.054381 67.4622834,373.283716 67.4622834,371.742386 L67.4622834,362.87034 C67.4622834,361.32901 68.1829902,360.558345 69.6234639,360.558345 L70.8825865,360.558345 C72.3230603,360.558345 73.043767,361.32901 73.043767,362.87034 L73.043767,371.742386 C73.043767,373.283716 72.3230603,374.054381 70.8825865,374.054381 L69.6234639,374.054381 Z" id="Fill-113" fill="#666666"></path>
                                    <path d="M74.5842189,363.546927 L74.1707757,362.306345 C74.63402,362.131535 75.0286704,361.886238 75.3537871,361.573273 C75.6798435,361.260308 75.9363662,360.921967 76.1252346,360.558251 L76.3131633,360.558251 L77.4971144,361.197339 L77.4971144,374.054287 L75.7117914,374.054287 L75.7117914,363.208587 L74.5842189,363.546927 Z" id="Fill-115" fill="#666666"></path>
                                    <path d="M79.1319065,363.546927 L78.7184633,362.306345 C79.1817076,362.131535 79.576358,361.886238 79.9014747,361.573273 C80.2275311,361.260308 80.4840538,360.921967 80.6729222,360.558251 L80.8608509,360.558251 L82.044802,361.197339 L82.044802,374.054287 L80.259479,374.054287 L80.259479,363.208587 L79.1319065,363.546927 Z" id="Fill-117" fill="#666666"></path>
                                    <path d="M136.524498,372.43777 L136.524498,374.054287 L131.675937,374.054287 L131.675937,369.900215 C131.675937,369.674654 131.69379,369.486687 131.731376,369.336313 C131.768961,369.18594 131.835676,369.044964 131.928701,368.913387 C132.023605,368.78181 132.189922,368.597603 132.427652,368.358885 L134.25056,366.610791 C134.388688,366.473575 134.497687,366.354216 134.579436,366.253653 C134.661185,366.153091 134.716624,366.069446 134.747632,365.999898 C134.77958,365.93129 134.798373,365.858922 134.80495,365.783736 C134.811528,365.708549 134.814347,365.608926 134.814347,365.482988 L134.814347,362.983026 C134.814347,362.456718 134.556884,362.193565 134.042899,362.193565 L133.931082,362.193565 C133.417096,362.193565 133.160574,362.456718 133.160574,362.983026 L133.160574,364.373983 L131.356458,364.373983 L131.356458,362.870246 C131.356458,361.328916 132.077165,360.558251 133.517638,360.558251 L134.457282,360.558251 C135.897756,360.558251 136.618463,361.328916 136.618463,362.870246 L136.618463,366.10328 C136.618463,366.354216 136.582756,366.573197 136.515102,366.761164 C136.445568,366.949131 136.267975,367.181271 135.979505,367.456643 L133.98746,369.373907 C133.736575,369.612625 133.59281,369.775216 133.555224,369.862621 C133.517638,369.950966 133.495087,370.03837 133.489449,370.125775 C133.482872,370.21412 133.480053,370.332539 133.480053,370.482912 L133.480053,372.43777 L136.524498,372.43777 Z" id="Fill-119" fill="#666666"></path>
                                    <path d="M140.959429,362.193659 C140.483029,362.193659 140.245299,362.456812 140.245299,362.98312 L140.245299,371.629606 C140.245299,372.155913 140.514037,372.419067 141.053393,372.419067 L141.504422,372.419067 C141.980821,372.419067 142.218551,372.155913 142.218551,371.629606 L142.218551,362.98312 C142.218551,362.456812 141.948873,362.193659 141.409518,362.193659 L140.959429,362.193659 Z M140.602364,374.054381 C139.16189,374.054381 138.441183,373.283716 138.441183,371.742386 L138.441183,362.87034 C138.441183,361.32901 139.16189,360.558345 140.602364,360.558345 L141.861487,360.558345 C143.30196,360.558345 144.022667,361.32901 144.022667,362.87034 L144.022667,371.742386 C144.022667,373.283716 143.30196,374.054381 141.861487,374.054381 L140.602364,374.054381 Z" id="Fill-121" fill="#666666"></path>
                                    <path d="M145.564059,363.546927 L145.150615,362.306345 C145.61386,362.131535 146.00851,361.886238 146.333627,361.573273 C146.659683,361.260308 146.916206,360.921967 147.105074,360.558251 L147.293003,360.558251 L148.476954,361.197339 L148.476954,374.054287 L146.691631,374.054287 L146.691631,363.208587 L145.564059,363.546927 Z" id="Fill-123" fill="#666666"></path>
                                    <path d="M155.278847,372.43777 L155.278847,374.054287 L150.430285,374.054287 L150.430285,369.900215 C150.430285,369.674654 150.448139,369.486687 150.485724,369.336313 C150.52331,369.18594 150.590025,369.044964 150.68305,368.913387 C150.777954,368.78181 150.94427,368.597603 151.182,368.358885 L153.004909,366.610791 C153.143037,366.473575 153.252035,366.354216 153.333784,366.253653 C153.415533,366.153091 153.470972,366.069446 153.501981,365.999898 C153.533929,365.93129 153.552721,365.858922 153.559299,365.783736 C153.565876,365.708549 153.568695,365.608926 153.568695,365.482988 L153.568695,362.983026 C153.568695,362.456718 153.311233,362.193565 152.797248,362.193565 L152.68543,362.193565 C152.171445,362.193565 151.914922,362.456718 151.914922,362.983026 L151.914922,364.373983 L150.110806,364.373983 L150.110806,362.870246 C150.110806,361.328916 150.831513,360.558251 152.271987,360.558251 L153.211631,360.558251 C154.652105,360.558251 155.372811,361.328916 155.372811,362.870246 L155.372811,366.10328 C155.372811,366.354216 155.337105,366.573197 155.26945,366.761164 C155.199917,366.949131 155.022324,367.181271 154.733854,367.456643 L152.741809,369.373907 C152.490924,369.612625 152.347159,369.775216 152.309573,369.862621 C152.271987,369.950966 152.249436,370.03837 152.243798,370.125775 C152.23722,370.21412 152.234401,370.332539 152.234401,370.482912 L152.234401,372.43777 L155.278847,372.43777 Z" id="Fill-125" fill="#666666"></path>
                                    <path d="M208.65869,372.43777 L208.65869,374.054287 L203.810129,374.054287 L203.810129,369.900215 C203.810129,369.674654 203.827982,369.486687 203.865568,369.336313 C203.903153,369.18594 203.969868,369.044964 204.062893,368.913387 C204.157797,368.78181 204.324114,368.597603 204.561844,368.358885 L206.384752,366.610791 C206.52288,366.473575 206.631879,366.354216 206.713628,366.253653 C206.795377,366.153091 206.850816,366.069446 206.881824,365.999898 C206.913772,365.93129 206.932565,365.858922 206.939142,365.783736 C206.94572,365.708549 206.948539,365.608926 206.948539,365.482988 L206.948539,362.983026 C206.948539,362.456718 206.691076,362.193565 206.177091,362.193565 L206.065274,362.193565 C205.551288,362.193565 205.294766,362.456718 205.294766,362.983026 L205.294766,364.373983 L203.49065,364.373983 L203.49065,362.870246 C203.49065,361.328916 204.211356,360.558251 205.65183,360.558251 L206.591474,360.558251 C208.031948,360.558251 208.752654,361.328916 208.752654,362.870246 L208.752654,366.10328 C208.752654,366.354216 208.716948,366.573197 208.649294,366.761164 C208.57976,366.949131 208.402167,367.181271 208.113697,367.456643 L206.121652,369.373907 C205.870767,369.612625 205.727002,369.775216 205.689416,369.862621 C205.65183,369.950966 205.629279,370.03837 205.623641,370.125775 C205.617063,370.21412 205.614245,370.332539 205.614245,370.482912 L205.614245,372.43777 L208.65869,372.43777 Z" id="Fill-127" fill="#666666"></path>
                                    <path d="M213.093527,362.193659 C212.617127,362.193659 212.379397,362.456812 212.379397,362.98312 L212.379397,371.629606 C212.379397,372.155913 212.648135,372.419067 213.187491,372.419067 L213.63852,372.419067 C214.114919,372.419067 214.352649,372.155913 214.352649,371.629606 L214.352649,362.98312 C214.352649,362.456812 214.082971,362.193659 213.543616,362.193659 L213.093527,362.193659 Z M212.736462,374.054381 C211.295988,374.054381 210.575281,373.283716 210.575281,371.742386 L210.575281,362.87034 C210.575281,361.32901 211.295988,360.558345 212.736462,360.558345 L213.995584,360.558345 C215.436058,360.558345 216.156765,361.32901 216.156765,362.87034 L216.156765,371.742386 C216.156765,373.283716 215.436058,374.054381 213.995584,374.054381 L212.736462,374.054381 Z" id="Fill-129" fill="#666666"></path>
                                    <path d="M217.697311,363.546927 L217.283868,362.306345 C217.747112,362.131535 218.141762,361.886238 218.466879,361.573273 C218.792935,361.260308 219.049458,360.921967 219.238327,360.558251 L219.426255,360.558251 L220.610206,361.197339 L220.610206,374.054287 L218.824883,374.054287 L218.824883,363.208587 L217.697311,363.546927 Z" id="Fill-131" fill="#666666"></path>
                                    <g id="Group-135" transform="translate(221.755914, 359.956944)" fill="#666666">
                                        <path d="M4.64221575,7.16163946 C5.58185945,7.4125755 6.0516813,7.98305556 6.0516813,8.87213982 L6.0516813,11.8044262 C6.0516813,13.3335383 5.33097458,14.0976244 3.89050079,14.0976244 L2.66802433,14.0976244 C1.22755053,14.0976244 0.507783457,13.3335383 0.507783457,11.8044262 L0.507783457,10.9397776 L2.31189937,10.9397776 L2.31189937,11.6728492 C2.31189937,12.199157 2.54962922,12.4623109 3.02602858,12.4623109 L3.43947181,12.4623109 C3.97788765,12.4623109 4.24756539,12.199157 4.24756539,11.6728492 L4.24756539,8.89093652 C4.24756539,8.30165975 3.89613865,8.00749128 3.19516445,8.00749128 L2.70561008,8.00749128 L2.70561008,6.48495799 L2.96964996,6.48495799 C3.6715638,6.48495799 4.02205091,6.19078952 4.02205091,5.60151275 L4.02205091,3.04516056 C4.02205091,2.51885276 3.75237316,2.25569886 3.21301768,2.25569886 L2.96964996,2.25569886 C2.4932506,2.25569886 2.25552074,2.51885276 2.25552074,3.04516056 L2.25552074,4.41732019 L0.451404835,4.41732019 L0.451404835,2.91358361 C0.451404835,1.37225361 1.17211155,0.601588616 2.61258535,0.601588616 L3.6649863,0.601588616 C5.1054601,0.601588616 5.82616682,1.37225361 5.82616682,2.91358361 L5.82616682,5.60151275 C5.82616682,6.45394343 5.43151646,6.97367238 4.64221575,7.16163946" id="Fill-133"></path>
                                    </g>
                                    <path d="M280.88741,372.43777 L280.88741,374.054287 L276.038849,374.054287 L276.038849,369.900215 C276.038849,369.674654 276.056702,369.486687 276.094288,369.336313 C276.131873,369.18594 276.198588,369.044964 276.291613,368.913387 C276.386517,368.78181 276.552834,368.597603 276.790564,368.358885 L278.613472,366.610791 C278.7516,366.473575 278.860599,366.354216 278.942348,366.253653 C279.024097,366.153091 279.079536,366.069446 279.110544,365.999898 C279.142492,365.93129 279.161285,365.858922 279.167862,365.783736 C279.17444,365.708549 279.177259,365.608926 279.177259,365.482988 L279.177259,362.983026 C279.177259,362.456718 278.919796,362.193565 278.405811,362.193565 L278.293994,362.193565 C277.780008,362.193565 277.523486,362.456718 277.523486,362.983026 L277.523486,364.373983 L275.71937,364.373983 L275.71937,362.870246 C275.71937,361.328916 276.440077,360.558251 277.88055,360.558251 L278.820194,360.558251 C280.260668,360.558251 280.981375,361.328916 280.981375,362.870246 L280.981375,366.10328 C280.981375,366.354216 280.945668,366.573197 280.878014,366.761164 C280.80848,366.949131 280.630887,367.181271 280.342417,367.456643 L278.350372,369.373907 C278.099487,369.612625 277.955722,369.775216 277.918136,369.862621 C277.88055,369.950966 277.857999,370.03837 277.852361,370.125775 C277.845784,370.21412 277.842965,370.332539 277.842965,370.482912 L277.842965,372.43777 L280.88741,372.43777 Z" id="Fill-136" fill="#666666"></path>
                                    <path d="M285.322247,362.193659 C284.845847,362.193659 284.608117,362.456812 284.608117,362.98312 L284.608117,371.629606 C284.608117,372.155913 284.876855,372.419067 285.416211,372.419067 L285.86724,372.419067 C286.343639,372.419067 286.581369,372.155913 286.581369,371.629606 L286.581369,362.98312 C286.581369,362.456812 286.311691,362.193659 285.772336,362.193659 L285.322247,362.193659 Z M284.965182,374.054381 C283.524708,374.054381 282.804001,373.283716 282.804001,371.742386 L282.804001,362.87034 C282.804001,361.32901 283.524708,360.558345 284.965182,360.558345 L286.224305,360.558345 C287.664778,360.558345 288.385485,361.32901 288.385485,362.87034 L288.385485,371.742386 C288.385485,373.283716 287.664778,374.054381 286.224305,374.054381 L284.965182,374.054381 Z" id="Fill-138" fill="#666666"></path>
                                    <path d="M289.925937,363.546927 L289.512494,362.306345 C289.975738,362.131535 290.370388,361.886238 290.695505,361.573273 C291.021562,361.260308 291.278084,360.921967 291.466953,360.558251 L291.654881,360.558251 L292.838832,361.197339 L292.838832,374.054287 L291.053509,374.054287 L291.053509,363.208587 L289.925937,363.546927 Z" id="Fill-140" fill="#666666"></path>
                                    <path d="M297.780795,364.14861 L297.68683,364.14861 L295.976679,369.374095 L297.649244,369.374095 L297.780795,364.14861 Z M300.393004,370.896628 L299.360336,370.896628 L299.360336,374.054475 L297.592866,374.054475 L297.592866,370.896628 L294.435663,370.896628 L294.059805,369.374095 L297.55528,360.558439 L299.360336,360.558439 L299.360336,369.374095 L300.393004,369.374095 L300.393004,370.896628 Z" id="Fill-142" fill="#666666"></path>
                                    <path d="M353.087659,372.43777 L353.087659,374.054287 L348.239098,374.054287 L348.239098,369.900215 C348.239098,369.674654 348.256951,369.486687 348.294537,369.336313 C348.332122,369.18594 348.398837,369.044964 348.491862,368.913387 C348.586766,368.78181 348.753083,368.597603 348.990813,368.358885 L350.813721,366.610791 C350.951849,366.473575 351.060848,366.354216 351.142597,366.253653 C351.224346,366.153091 351.279785,366.069446 351.310793,365.999898 C351.342741,365.93129 351.361534,365.858922 351.368111,365.783736 C351.374689,365.708549 351.377508,365.608926 351.377508,365.482988 L351.377508,362.983026 C351.377508,362.456718 351.120045,362.193565 350.60606,362.193565 L350.494242,362.193565 C349.980257,362.193565 349.723735,362.456718 349.723735,362.983026 L349.723735,364.373983 L347.919619,364.373983 L347.919619,362.870246 C347.919619,361.328916 348.640325,360.558251 350.080799,360.558251 L351.020443,360.558251 C352.460917,360.558251 353.181623,361.328916 353.181623,362.870246 L353.181623,366.10328 C353.181623,366.354216 353.145917,366.573197 353.078263,366.761164 C353.008729,366.949131 352.831136,367.181271 352.542666,367.456643 L350.550621,369.373907 C350.299736,369.612625 350.155971,369.775216 350.118385,369.862621 C350.080799,369.950966 350.058248,370.03837 350.05261,370.125775 C350.046032,370.21412 350.043213,370.332539 350.043213,370.482912 L350.043213,372.43777 L353.087659,372.43777 Z" id="Fill-144" fill="#666666"></path>
                                    <path d="M357.522495,362.193659 C357.046096,362.193659 356.808366,362.456812 356.808366,362.98312 L356.808366,371.629606 C356.808366,372.155913 357.077104,372.419067 357.61646,372.419067 L358.067489,372.419067 C358.543888,372.419067 358.781618,372.155913 358.781618,371.629606 L358.781618,362.98312 C358.781618,362.456812 358.51194,362.193659 357.972585,362.193659 L357.522495,362.193659 Z M357.165431,374.054381 C355.724957,374.054381 355.00425,373.283716 355.00425,371.742386 L355.00425,362.87034 C355.00425,361.32901 355.724957,360.558345 357.165431,360.558345 L358.424553,360.558345 C359.865027,360.558345 360.585734,361.32901 360.585734,362.87034 L360.585734,371.742386 C360.585734,373.283716 359.865027,374.054381 358.424553,374.054381 L357.165431,374.054381 Z" id="Fill-146" fill="#666666"></path>
                                    <path d="M362.126186,363.546927 L361.712743,362.306345 C362.175987,362.131535 362.570637,361.886238 362.895754,361.573273 C363.22181,361.260308 363.478333,360.921967 363.667201,360.558251 L363.85513,360.558251 L365.039081,361.197339 L365.039081,374.054287 L363.253758,374.054287 L363.253758,363.208587 L362.126186,363.546927 Z" id="Fill-148" fill="#666666"></path>
                                    <g id="Group-152" transform="translate(366.461044, 359.956944)" fill="#666666">
                                        <path d="M0.268832063,10.9397776 L2.07294797,10.9397776 L2.07294797,11.6728492 C2.07294797,12.199157 2.31067783,12.4623109 2.78801683,12.4623109 L2.9937988,12.4623109 C3.53315429,12.4623109 3.80189239,12.199157 3.80189239,11.6728492 L3.80189239,8.59018921 C3.80189239,8.00185227 3.55100752,7.70674397 3.05017742,7.70674397 L0.326150329,7.70674397 L0.326150329,0.601588616 L5.41807956,0.601588616 L5.41807956,2.27449556 L2.01656935,2.27449556 L2.01656935,6.07143043 L3.44482778,6.07143043 C4.88530158,6.07143043 5.60694794,6.86747099 5.60694794,8.45861226 L5.60694794,11.7104426 C5.60694794,13.3015839 4.88530158,14.0976244 3.44482778,14.0976244 L2.43001258,14.0976244 C0.989538783,14.0976244 0.268832063,13.3335383 0.268832063,11.8044262 L0.268832063,10.9397776 Z" id="Fill-150"></path>
                                    </g>
                                    <path d="M425.062112,372.43777 L425.062112,374.054287 L420.21355,374.054287 L420.21355,369.900215 C420.21355,369.674654 420.231403,369.486687 420.268989,369.336313 C420.306575,369.18594 420.373289,369.044964 420.466314,368.913387 C420.561218,368.78181 420.727535,368.597603 420.965265,368.358885 L422.788174,366.610791 C422.926301,366.473575 423.0353,366.354216 423.117049,366.253653 C423.198798,366.153091 423.254237,366.069446 423.285245,365.999898 C423.317193,365.93129 423.335986,365.858922 423.342564,365.783736 C423.349141,365.708549 423.35196,365.608926 423.35196,365.482988 L423.35196,362.983026 C423.35196,362.456718 423.094498,362.193565 422.580513,362.193565 L422.468695,362.193565 C421.95471,362.193565 421.698187,362.456718 421.698187,362.983026 L421.698187,364.373983 L419.894071,364.373983 L419.894071,362.870246 C419.894071,361.328916 420.614778,360.558251 422.055252,360.558251 L422.994895,360.558251 C424.435369,360.558251 425.156076,361.328916 425.156076,362.870246 L425.156076,366.10328 C425.156076,366.354216 425.120369,366.573197 425.052715,366.761164 C424.983182,366.949131 424.805589,367.181271 424.517118,367.456643 L422.525074,369.373907 C422.274189,369.612625 422.130423,369.775216 422.092837,369.862621 C422.055252,369.950966 422.0327,370.03837 422.027062,370.125775 C422.020485,370.21412 422.017666,370.332539 422.017666,370.482912 L422.017666,372.43777 L425.062112,372.43777 Z" id="Fill-153" fill="#666666"></path>
                                    <path d="M429.497042,362.193659 C429.020643,362.193659 428.782913,362.456812 428.782913,362.98312 L428.782913,371.629606 C428.782913,372.155913 429.051651,372.419067 429.591006,372.419067 L430.042035,372.419067 C430.518435,372.419067 430.756164,372.155913 430.756164,371.629606 L430.756164,362.98312 C430.756164,362.456812 430.486487,362.193659 429.947131,362.193659 L429.497042,362.193659 Z M429.139977,374.054381 C427.699504,374.054381 426.978797,373.283716 426.978797,371.742386 L426.978797,362.87034 C426.978797,361.32901 427.699504,360.558345 429.139977,360.558345 L430.3991,360.558345 C431.839574,360.558345 432.56028,361.32901 432.56028,362.87034 L432.56028,371.742386 C432.56028,373.283716 431.839574,374.054381 430.3991,374.054381 L429.139977,374.054381 Z" id="Fill-155" fill="#666666"></path>
                                    <path d="M434.101672,363.546927 L433.688229,362.306345 C434.151473,362.131535 434.546123,361.886238 434.87124,361.573273 C435.197296,361.260308 435.453819,360.921967 435.642688,360.558251 L435.830616,360.558251 L437.014567,361.197339 L437.014567,374.054287 L435.229244,374.054287 L435.229244,363.208587 L434.101672,363.546927 Z" id="Fill-157" fill="#666666"></path>
                                    <path d="M440.602973,367.964342 L440.602973,371.610903 C440.602973,372.150368 440.865133,372.419161 441.392273,372.419161 L441.729606,372.419161 C442.268021,372.419161 442.538639,372.150368 442.538639,371.610903 L442.538639,368.94177 C442.538639,368.290464 442.268021,367.964342 441.729606,367.964342 L440.602973,367.964342 Z M442.424942,364.374171 L442.424942,363.171181 C442.424942,362.519875 442.155264,362.193752 441.617788,362.193752 L441.317102,362.193752 C440.840703,362.193752 440.602973,362.456906 440.602973,362.983214 L440.602973,367.080896 L441.729606,366.329028 L442.274599,366.329028 C443.653056,366.329028 444.341815,367.099693 444.341815,368.641023 L444.341815,371.780073 C444.341815,373.296028 443.653056,374.054475 442.274599,374.054475 L440.865133,374.054475 C439.487616,374.054475 438.798857,373.296028 438.798857,371.780073 L438.798857,362.870434 C438.798857,361.329104 439.487616,360.558439 440.865133,360.558439 L442.162781,360.558439 C443.540299,360.558439 444.229058,361.329104 444.229058,362.870434 L444.229058,364.374171 L442.424942,364.374171 Z" id="Fill-159" fill="#666666"></path>
                                    <path d="M498.005619,372.43777 L498.005619,374.054287 L493.157057,374.054287 L493.157057,369.900215 C493.157057,369.674654 493.17491,369.486687 493.212496,369.336313 C493.250082,369.18594 493.316797,369.044964 493.409821,368.913387 C493.504725,368.78181 493.671042,368.597603 493.908772,368.358885 L495.731681,366.610791 C495.869808,366.473575 495.978807,366.354216 496.060556,366.253653 C496.142305,366.153091 496.197744,366.069446 496.228752,365.999898 C496.2607,365.93129 496.279493,365.858922 496.286071,365.783736 C496.292648,365.708549 496.295467,365.608926 496.295467,365.482988 L496.295467,362.983026 C496.295467,362.456718 496.038005,362.193565 495.52402,362.193565 L495.412202,362.193565 C494.898217,362.193565 494.641694,362.456718 494.641694,362.983026 L494.641694,364.373983 L492.837578,364.373983 L492.837578,362.870246 C492.837578,361.328916 493.558285,360.558251 494.998759,360.558251 L495.938402,360.558251 C497.378876,360.558251 498.099583,361.328916 498.099583,362.870246 L498.099583,366.10328 C498.099583,366.354216 498.063877,366.573197 497.996222,366.761164 C497.926689,366.949131 497.749096,367.181271 497.460625,367.456643 L495.468581,369.373907 C495.217696,369.612625 495.07393,369.775216 495.036345,369.862621 C494.998759,369.950966 494.976207,370.03837 494.970569,370.125775 C494.963992,370.21412 494.961173,370.332539 494.961173,370.482912 L494.961173,372.43777 L498.005619,372.43777 Z" id="Fill-161" fill="#666666"></path>
                                    <path d="M502.440549,362.193659 C501.96415,362.193659 501.72642,362.456812 501.72642,362.98312 L501.72642,371.629606 C501.72642,372.155913 501.995158,372.419067 502.534513,372.419067 L502.985542,372.419067 C503.461942,372.419067 503.699672,372.155913 503.699672,371.629606 L503.699672,362.98312 C503.699672,362.456812 503.429994,362.193659 502.890638,362.193659 L502.440549,362.193659 Z M502.083484,374.054381 C500.643011,374.054381 499.922304,373.283716 499.922304,371.742386 L499.922304,362.87034 C499.922304,361.32901 500.643011,360.558345 502.083484,360.558345 L503.342607,360.558345 C504.783081,360.558345 505.503787,361.32901 505.503787,362.87034 L505.503787,371.742386 C505.503787,373.283716 504.783081,374.054381 503.342607,374.054381 L502.083484,374.054381 Z" id="Fill-163" fill="#666666"></path>
                                    <path d="M507.045179,363.546927 L506.631736,362.306345 C507.09498,362.131535 507.48963,361.886238 507.814747,361.573273 C508.140804,361.260308 508.397326,360.921967 508.586195,360.558251 L508.774123,360.558251 L509.958074,361.197339 L509.958074,374.054287 L508.172751,374.054287 L508.172751,363.208587 L507.045179,363.546927 Z" id="Fill-165" fill="#666666"></path>
                                    <polygon id="Fill-167" fill="#666666" points="512.117752 374.054475 514.448068 362.231346 511.084143 362.231346 511.084143 360.558439 515.801155 360.558439 516.308562 361.535868 513.903075 374.054475"></polygon>
                                    <path d="M524.08994,369.876155 C523.750729,368.775608 523.581593,367.56228 523.581593,366.238052 C523.581593,364.922283 523.750729,363.713654 524.08994,362.613107 C524.429151,361.51256 524.90837,360.453365 525.527595,359.435524 L526.737856,359.948674 C526.185345,360.912945 525.780359,361.933606 525.521017,363.007838 C525.262615,364.08207 525.132944,365.159121 525.132944,366.238052 C525.132944,367.3339 525.262615,368.41753 525.521017,369.488003 C525.780359,370.558475 526.185345,371.575377 526.737856,372.540588 L525.527595,373.053738 C524.90837,372.035896 524.429151,370.976702 524.08994,369.876155" id="Fill-169" fill="#666666"></path>
                                    <mask id="mask-2" fill="white">
                                        <use xlink:href="#path-1"></use>
                                    </mask>
                                    <g id="Clip-172"></g>
                                    <path d="M531.631614,367.764157 L533.921526,367.764157 L533.921526,365.764187 L531.631614,365.764187 L531.631614,367.764157 Z M540.025451,369.264134 L535.526437,369.264134 L535.526437,372.079881 L533.921526,372.079881 L533.921526,369.264134 L528.000831,369.264134 L528.000831,367.764157 L530.080262,367.764157 L530.080262,364.316841 L533.921526,364.316841 L533.921526,362.737917 L531.101655,362.737917 C530.830098,363.211594 530.539748,363.652377 530.233424,364.060266 C529.926161,364.468154 529.619837,364.825292 529.312574,365.132618 C529.233643,365.071528 529.13686,364.992582 529.023163,364.895779 C528.909466,364.798976 528.788252,364.703113 528.6614,364.60631 C528.533609,364.509507 528.409576,364.418343 528.286483,364.329998 C528.163389,364.242594 528.054391,364.172106 527.957607,364.119475 C528.255474,363.874178 528.540186,363.586588 528.812683,363.257646 C529.08424,362.928704 529.338884,362.573446 529.575674,362.191873 C529.812464,361.8103 530.026703,361.41087 530.220269,360.994523 C530.412896,360.578175 530.579213,360.159009 530.72016,359.737963 L532.312856,360.145851 C532.198219,360.49641 532.053514,360.856367 531.877801,361.224782 L539.300986,361.224782 L539.300986,362.737917 L535.526437,362.737917 L535.526437,364.316841 L538.998421,364.316841 L538.998421,365.764187 L535.526437,365.764187 L535.526437,367.764157 L540.025451,367.764157 L540.025451,369.264134 Z" id="Fill-171" fill="#666666" mask="url(#mask-2)"></path>
                                    <path d="M541.274238,372.540588 C541.827688,371.575377 542.233614,370.558475 542.492016,369.488003 C542.749478,368.41753 542.879149,367.3339 542.879149,366.238052 C542.879149,365.159121 542.749478,364.08207 542.492016,363.007838 C542.233614,361.933606 541.827688,360.912945 541.274238,359.948674 L542.471344,359.435524 C543.099966,360.453365 543.583882,361.51256 543.923093,362.613107 C544.262305,363.713654 544.431441,364.922283 544.431441,366.238052 C544.431441,367.56228 544.260426,368.775608 543.917456,369.876155 C543.572606,370.976702 543.091509,372.035896 542.471344,373.053738 L541.274238,372.540588 Z" id="Fill-173" fill="#666666" mask="url(#mask-2)"></path>
                                    <path d="M0.508347243,10.8590458 C0.169135867,9.75849855 0,8.54517109 0,7.22094307 C0,5.90517356 0.169135867,4.69654528 0.508347243,3.59599807 C0.84755862,2.49545086 1.32677691,1.4362564 1.94600211,0.418414704 L3.1562632,0.931564813 C2.6037527,1.8958359 2.19876626,2.9164971 1.9394246,3.99072892 C1.68102258,5.06496074 1.55135175,6.14201207 1.55135175,7.22094307 C1.55135175,8.3167911 1.68102258,9.40042128 1.9394246,10.4708938 C2.19876626,11.5413662 2.6037527,12.5582681 3.1562632,13.523479 L1.94600211,14.0366291 C1.32677691,13.0187874 0.84755862,11.959593 0.508347243,10.8590458" id="Fill-174" fill="#666666" mask="url(#mask-2)"></path>
                                    <path d="M6.31412379,8.6415982 L14.5491612,8.6415982 L14.5491612,13.0494261 L12.8126996,13.0494261 L12.8126996,10.0099985 L6.31412379,10.0099985 L6.31412379,8.6415982 Z M7.7743301,6.07584766 C8.22160051,6.07584766 8.59182013,5.94239104 8.8859286,5.67453796 C9.18003708,5.40762472 9.3266215,5.03263041 9.3266215,4.54955503 C9.3266215,4.06741949 9.18003708,3.69430485 8.8859286,3.43115095 C8.59182013,3.16799704 8.22160051,3.03642009 7.7743301,3.03642009 C7.3355165,3.03642009 6.97187438,3.16799704 6.68246412,3.43115095 C6.39305386,3.69430485 6.24834873,4.06741949 6.24834873,4.54955503 C6.24834873,5.03263041 6.39305386,5.40762472 6.68246412,5.67453796 C6.97187438,5.94239104 7.3355165,6.07584766 7.7743301,6.07584766 L7.7743301,6.07584766 Z M14.5491612,0.918031183 L14.5491612,8.1021327 L12.8126996,8.1021327 L12.8126996,5.24691287 L10.8920679,5.24691287 C10.8131378,5.58901294 10.6768895,5.90291795 10.4833229,6.18768807 C10.2906959,6.47245818 10.0586039,6.71869505 9.78704692,6.92451899 C9.51455024,7.13128277 9.20540746,7.28917511 8.85961858,7.39819602 C8.51289005,7.50815675 8.14642901,7.56266721 7.76117509,7.56266721 C7.31296505,7.56266721 6.89670289,7.48842021 6.51144897,7.33898639 C6.12525541,7.1904924 5.78698367,6.98184895 5.49851306,6.71399587 C5.2091028,6.44708263 4.98264866,6.12847844 4.82102995,5.76006298 C4.65847159,5.39164751 4.57672258,4.98845814 4.57672258,4.54955503 C4.57672258,4.12005027 4.65847159,3.72062024 4.82102995,3.35220478 C4.98264866,2.98378931 5.2091028,2.66612496 5.49851306,2.39827188 C5.78698367,2.13135864 6.12525541,1.92271519 6.51144897,1.77328136 C6.89670289,1.62478738 7.31296505,1.54960055 7.76117509,1.54960055 C8.14642901,1.54960055 8.51289005,1.6069305 8.85961858,1.72065058 C9.20540746,1.8353105 9.51455024,1.99320284 9.78704692,2.19432761 C10.0586039,2.39639221 10.2906959,2.6379299 10.4833229,2.91800084 C10.6768895,3.19901161 10.8131378,3.51009712 10.8920679,3.85219719 L12.8126996,3.85219719 L12.8126996,0.918031183 L14.5491612,0.918031183 Z" id="Fill-175" fill="#666666" mask="url(#mask-2)"></path>
                                    <path d="M24.9804278,7.94452231 L24.9804278,0.905155439 L26.717829,0.905155439 L26.717829,10.1023843 L24.9804278,10.1023843 L24.9804278,9.14187257 L22.7046108,9.14187257 L22.7046108,7.94452231 L24.9804278,7.94452231 Z M20.3705358,2.58934041 C19.9552133,2.58934041 19.6207002,2.66640691 19.3651171,2.81960007 C19.109534,2.97279324 18.9817424,3.19929356 18.9817424,3.49722137 C18.9817424,3.79514918 19.109534,4.01883 19.3651171,4.16826382 C19.6207002,4.31769764 19.9552133,4.39194464 20.3705358,4.39194464 C20.7745826,4.39194464 21.1053372,4.31769764 21.3609203,4.16826382 C21.617443,4.01883 21.7452346,3.79514918 21.7452346,3.49722137 C21.7452346,3.19929356 21.617443,2.97279324 21.3609203,2.81960007 C21.1053372,2.66640691 20.7745826,2.58934041 20.3705358,2.58934041 L20.3705358,2.58934041 Z M20.3705358,5.65508337 C19.9232654,5.65508337 19.5173394,5.60245259 19.148999,5.49719103 C18.7815983,5.39192947 18.4639988,5.24437531 18.1971399,5.05640824 C17.9302811,4.86750133 17.7226199,4.64194085 17.5741562,4.37878694 C17.4247528,4.11563304 17.3514606,3.82146457 17.3514606,3.49722137 C17.3514606,3.17297817 17.4247528,2.8788097 17.5741562,2.6156558 C17.7226199,2.3525019 17.9302811,2.12412191 18.1971399,1.93145566 C18.4639988,1.73784957 18.7815983,1.58935558 19.148999,1.48409402 C19.5173394,1.37883246 19.9232654,1.32620168 20.3705358,1.32620168 C20.8074702,1.32620168 21.2096377,1.37883246 21.577978,1.48409402 C21.9453787,1.58935558 22.2620386,1.73784957 22.5298371,1.93145566 C22.7966959,2.12412191 23.0034175,2.3525019 23.1528208,2.6156558 C23.3012845,2.8788097 23.376456,3.17297817 23.376456,3.49722137 C23.376456,3.82146457 23.3012845,4.11563304 23.1528208,4.37878694 C23.0034175,4.64194085 22.7966959,4.86750133 22.5298371,5.05640824 C22.2620386,5.24437531 21.9453787,5.39192947 21.577978,5.49719103 C21.2096377,5.60245259 20.8074702,5.65508337 20.3705358,5.65508337 L20.3705358,5.65508337 Z M26.9809293,11.4444692 L26.9809293,12.8260272 L17.9951166,12.8260272 L17.9951166,9.22081874 L19.6789581,9.22081874 L19.6789581,7.60242224 C19.1443008,7.62873763 18.6265571,7.6465945 18.1266667,7.65505302 C17.6277159,7.66351154 17.1494372,7.66821072 16.69371,7.66821072 L16.4691352,6.28665273 C17.0216457,6.28665273 17.6136212,6.28195355 18.2450618,6.27349504 C18.877442,6.26503652 19.5257961,6.24717965 20.1920035,6.22086426 C20.8582109,6.19454887 21.5300562,6.15695545 22.20566,6.10902385 C22.8803242,6.06109224 23.5380748,5.99718344 24.1779721,5.91823727 L24.2963672,7.15506061 C23.8237264,7.2424653 23.3454478,7.31295295 22.8624709,7.36558373 C22.3804337,7.41821451 21.8936983,7.46238677 21.4022646,7.49716068 L21.4022646,9.78659963 L19.7315781,9.78659963 L19.7315781,11.4444692 L26.9809293,11.4444692 Z" id="Fill-176" fill="#666666" mask="url(#mask-2)"></path>
                                    <path d="M28.7426673,13.523479 C29.2961174,12.5582681 29.7020435,11.5413662 29.9604455,10.4708938 C30.2179079,9.40042128 30.3475787,8.3167911 30.3475787,7.22094307 C30.3475787,6.14201207 30.2179079,5.06496074 29.9604455,3.99072892 C29.7020435,2.9164971 29.2961174,1.8958359 28.7426673,0.931564813 L29.9397733,0.418414704 C30.568395,1.4362564 31.0523115,2.49545086 31.3915229,3.59599807 C31.7307342,4.69654528 31.8998701,5.90517356 31.8998701,7.22094307 C31.8998701,8.54517109 31.728855,9.75849855 31.385885,10.8590458 C31.0410358,11.959593 30.5599382,13.0187874 29.9397733,14.0366291 L28.7426673,13.523479 Z" id="Fill-177" fill="#666666" mask="url(#mask-2)"></path>
                                    <path d="M33.1822518,347.910882 L539.965734,347.910882" id="Stroke-1" stroke="#C0C0C0" mask="url(#mask-2)"></path>
                                    <path d="M106.585415,346.90536 L106.585415,28.1546379" id="Stroke-2" stroke="#C0C0C0" mask="url(#mask-2)"></path>
                                    <path d="M178.983055,346.90536 L178.983055,28.1546379" id="Stroke-3" stroke="#C0C0C0" mask="url(#mask-2)"></path>
                                    <path d="M251.380695,346.90536 L251.380695,28.1546379" id="Stroke-4" stroke="#C0C0C0" mask="url(#mask-2)"></path>
                                    <path d="M323.778336,346.90536 L323.778336,28.1546379" id="Stroke-5" stroke="#C0C0C0" mask="url(#mask-2)"></path>
                                    <path d="M396.175976,346.90536 L396.175976,28.1546379" id="Stroke-6" stroke="#C0C0C0" mask="url(#mask-2)"></path>
                                    <path d="M468.573616,346.90536 L468.573616,28.1546379" id="Stroke-7" stroke="#C0C0C0" mask="url(#mask-2)"></path>
                                    <path d="M539.965734,346.90536 L539.965734,28.1546379" id="Stroke-8" stroke="#C0C0C0" mask="url(#mask-2)"></path>
                                </g>
                            </g>
                        </g>
                    </g>
                </g>
            </g>
        </g>
    </g>
</svg>