<?xml version="1.0" encoding="UTF-8" standalone="no"?>
<svg width="120px" height="68px" viewBox="0 0 120 68" version="1.1" xmlns="http://www.w3.org/2000/svg" xmlns:xlink="http://www.w3.org/1999/xlink">
    <!-- Generator: sketchtool 46.2 (44496) - http://www.bohemiancoding.com/sketch -->
    <title>87F1EF75-2DBC-496C-85B0-750592171A74</title>
    <desc>Created with sketchtool.</desc>
    <defs>
        <polygon id="path-1" points="0 65 68 65 68 0 0 0"></polygon>
    </defs>
    <g id="boryung" stroke="none" stroke-width="1" fill="none" fill-rule="evenodd">
        <g id="web_main" transform="translate(-517.000000, -14106.000000)">
            <g id="Group-10" transform="translate(514.000000, 14101.000000)">
                <g id="Page-1" transform="translate(66.000000, 41.000000)" stroke="#333333" stroke-width="3">
                    <path d="M40.8380023,27.5700343 L27.4299657,14.1619977 C24.1900114,10.9220435 24.1900114,5.66931743 27.4299657,2.42996566 C30.6693174,-0.809988554 35.9220435,-0.809988554 39.1619977,2.42996566 L52.5700343,15.8380023 C55.8099886,19.0773541 55.8099886,24.3300801 52.5700343,27.5700343 C49.3300801,30.8099886 44.0779565,30.8099886 40.8380023,27.5700343 Z" id="Stroke-1"></path>
                    <path d="M34.5072126,21 C33.1468924,19.6396798 34.6169825,15.9647498 37.7908661,12.7908661 C40.9647498,9.61698246 44.6396798,8.14689242 46,9.50721259" id="Stroke-3"></path>
                    <path d="M35,22.9202614 C34.5337372,26.9051561 31.0732953,30 26.8745545,30 L8.17949632,30 C3.66239012,30 0,26.4183007 0,22 C0,17.5816993 3.66239012,14 8.17949632,14 L26.8745545,14" id="Stroke-5"></path>
                    <path d="M18,30 C16.3434429,30 15,26.4184307 15,22.0002905 C15,17.5821502 16.3434429,14 18,14" id="Stroke-7"></path>
                </g>
                <g id="Page-1" transform="translate(43.000000, 41.500000) rotate(-18.000000) translate(-43.000000, -41.500000) translate(9.000000, 9.000000)">
                    <path d="M33.9997194,18.1791791 C29.135959,18.1791791 25.1790679,22.136272 25.1790679,26.9997194 C25.1790679,31.863728 29.135959,35.8213821 33.9997194,35.8213821 C38.8634798,35.8213821 42.8209321,31.863728 42.8209321,26.9997194 C42.8209321,22.136272 38.8634798,18.1791791 33.9997194,18.1791791 Z M33.9997194,38 C27.9344693,38 23,33.0647177 23,26.9997194 C23,20.9347211 27.9344693,16 33.9997194,16 C40.0649695,16 45,20.9347211 45,26.9997194 C45,33.0647177 40.0649695,38 33.9997194,38 Z" id="Fill-1" fill="#202020"></path>
                    <path d="M33.9997194,18.1791791 C29.135959,18.1791791 25.1790679,22.136272 25.1790679,26.9997194 C25.1790679,31.863728 29.135959,35.8213821 33.9997194,35.8213821 C38.8634798,35.8213821 42.8209321,31.863728 42.8209321,26.9997194 C42.8209321,22.136272 38.8634798,18.1791791 33.9997194,18.1791791 Z M33.9997194,38 C27.9344693,38 23,33.0647177 23,26.9997194 C23,20.9347211 27.9344693,16 33.9997194,16 C40.0649695,16 45,20.9347211 45,26.9997194 C45,33.0647177 40.0649695,38 33.9997194,38 Z" id="Stroke-3" stroke="#202020"></path>
                    <path d="M8,6.17177614 C4.78612878,6.17177614 2.17129274,8.78652078 2.17129274,11.9997203 C2.17129274,15.2129199 4.78612878,17.8282239 8,17.8282239 C11.2133119,17.8282239 13.8281479,15.2129199 13.8281479,11.9997203 C13.8281479,8.78652078 11.2133119,6.17177614 8,6.17177614 M8,20 C3.58861777,20 0,16.4109484 0,11.9997203 C0,7.58905163 3.58861777,4 8,4 C12.4108229,4 16,7.58905163 16,11.9997203 C16,16.4109484 12.4108229,20 8,20" id="Fill-5" fill="#202020"></path>
                    <path d="M8,6.17177614 C4.78612878,6.17177614 2.17129274,8.78652078 2.17129274,11.9997203 C2.17129274,15.2129199 4.78612878,17.8282239 8,17.8282239 C11.2133119,17.8282239 13.8281479,15.2129199 13.8281479,11.9997203 C13.8281479,8.78652078 11.2133119,6.17177614 8,6.17177614 Z M8,20 C3.58861777,20 0,16.4109484 0,11.9997203 C0,7.58905163 3.58861777,4 8,4 C12.4108229,4 16,7.58905163 16,11.9997203 C16,16.4109484 12.4108229,20 8,20 Z" id="Stroke-7" stroke="#202020"></path>
                    <path d="M59.0002797,6.17192798 C55.7865208,6.17192798 53.1717761,8.78573676 53.1717761,11.999161 C53.1717761,15.2125852 55.7865208,17.828072 59.0002797,17.828072 C62.2140385,17.828072 64.8282239,15.2125852 64.8282239,11.999161 C64.8282239,8.78573676 62.2140385,6.17192798 59.0002797,6.17192798 M59.0002797,20 C54.5890516,20 51,16.4106974 51,11.999161 C51,7.58818388 54.5890516,4 59.0002797,4 C63.4115077,4 67,7.58818388 67,11.999161 C67,16.4106974 63.4115077,20 59.0002797,20" id="Fill-9" fill="#202020"></path>
                    <path d="M59.0002797,6.17192798 C55.7865208,6.17192798 53.1717761,8.78573676 53.1717761,11.999161 C53.1717761,15.2125852 55.7865208,17.828072 59.0002797,17.828072 C62.2140385,17.828072 64.8282239,15.2125852 64.8282239,11.999161 C64.8282239,8.78573676 62.2140385,6.17192798 59.0002797,6.17192798 Z M59.0002797,20 C54.5890516,20 51,16.4106974 51,11.999161 C51,7.58818388 54.5890516,4 59.0002797,4 C63.4115077,4 67,7.58818388 67,11.999161 C67,16.4106974 63.4115077,20 59.0002797,20 Z" id="Stroke-11" stroke="#202020"></path>
                    <path d="M34,50.171928 C30.7861288,50.171928 28.1718521,52.7862961 28.1718521,55.9997203 C28.1718521,59.2131446 30.7861288,61.828072 34,61.828072 C37.2138712,61.828072 39.8281479,59.2131446 39.8281479,55.9997203 C39.8281479,52.7862961 37.2138712,50.171928 34,50.171928 M34,64 C29.5886178,64 26,60.4112568 26,55.9997203 C26,51.5887432 29.5886178,48 34,48 C38.4113822,48 42,51.5887432 42,55.9997203 C42,60.4112568 38.4113822,64 34,64" id="Fill-13" fill="#202020"></path>
                    <path d="M34,50.171928 C30.7861288,50.171928 28.1718521,52.7862961 28.1718521,55.9997203 C28.1718521,59.2131446 30.7861288,61.828072 34,61.828072 C37.2138712,61.828072 39.8281479,59.2131446 39.8281479,55.9997203 C39.8281479,52.7862961 37.2138712,50.171928 34,50.171928 Z M34,64 C29.5886178,64 26,60.4112568 26,55.9997203 C26,51.5887432 29.5886178,48 34,48 C38.4113822,48 42,51.5887432 42,55.9997203 C42,60.4112568 38.4113822,64 34,64 Z" id="Stroke-15" stroke="#202020"></path>
                    <path d="M34,2.19502544 C32.453754,2.19502544 31.1952736,3.45392877 31.1952736,5 C31.1952736,6.54607123 32.453754,7.80497456 34,7.80497456 C35.5468114,7.80497456 36.8052917,6.54607123 36.8052917,5 C36.8052917,3.45392877 35.5468114,2.19502544 34,2.19502544 M34,10 C31.2433288,10 29,7.75692482 29,5 C29,2.24364047 31.2433288,0 34,0 C36.7572365,0 39,2.24364047 39,5 C39,7.75692482 36.7572365,10 34,10" id="Fill-17" fill="#202020"></path>
                    <path d="M34,2.19502544 C32.453754,2.19502544 31.1952736,3.45392877 31.1952736,5 C31.1952736,6.54607123 32.453754,7.80497456 34,7.80497456 C35.5468114,7.80497456 36.8052917,6.54607123 36.8052917,5 C36.8052917,3.45392877 35.5468114,2.19502544 34,2.19502544 Z M34,10 C31.2433288,10 29,7.75692482 29,5 C29,2.24364047 31.2433288,0 34,0 C36.7572365,0 39,2.24364047 39,5 C39,7.75692482 36.7572365,10 34,10 Z" id="Stroke-19" stroke="#202020"></path>
                    <path d="M14.9952068,35.1949014 C14.5069241,35.1949014 14.0237277,35.324911 13.5976106,35.5707987 C12.9499579,35.9455655 12.4859763,36.5498276 12.2921326,37.2739246 C12.0982889,37.9980216 12.1977539,38.7532078 12.5718779,39.4009949 C13.0714634,40.2669719 14.0039477,40.8050986 15.0042491,40.8050986 C15.4925318,40.8050986 15.9757282,40.675089 16.4018452,40.4292013 C17.0506283,40.0544345 17.5146098,39.4496071 17.7078884,38.7255101 C17.9017321,38.0025437 17.8022671,37.2462269 17.4281431,36.5978746 C16.9285576,35.7324628 15.9960733,35.1949014 14.9952068,35.1949014 M15.0042491,43 C13.2223563,43 11.5619691,42.0413204 10.6713053,40.4987282 C10.0044378,39.3439037 9.82698319,37.9963258 10.172285,36.7064044 C10.5181519,35.4159177 11.3443895,34.3374032 12.50067,33.6703974 C13.2596557,33.2317563 14.1220624,33 14.9952068,33 C16.7782298,33 18.4380519,33.9581143 19.3281505,35.5007066 C19.9955832,36.6566616 20.1730378,38.0036742 19.8277361,39.2935956 C19.4818692,40.583517 18.6550664,41.6614663 17.4987859,42.3296026 C16.7398002,42.7676785 15.8773935,43 15.0042491,43" id="Fill-21" fill="#202020"></path>
                    <path d="M14.9952068,35.1949014 C14.5069241,35.1949014 14.0237277,35.324911 13.5976106,35.5707987 C12.9499579,35.9455655 12.4859763,36.5498276 12.2921326,37.2739246 C12.0982889,37.9980216 12.1977539,38.7532078 12.5718779,39.4009949 C13.0714634,40.2669719 14.0039477,40.8050986 15.0042491,40.8050986 C15.4925318,40.8050986 15.9757282,40.675089 16.4018452,40.4292013 C17.0506283,40.0544345 17.5146098,39.4496071 17.7078884,38.7255101 C17.9017321,38.0025437 17.8022671,37.2462269 17.4281431,36.5978746 C16.9285576,35.7324628 15.9960733,35.1949014 14.9952068,35.1949014 Z M15.0042491,43 C13.2223563,43 11.5619691,42.0413204 10.6713053,40.4987282 C10.0044378,39.3439037 9.82698319,37.9963258 10.172285,36.7064044 C10.5181519,35.4159177 11.3443895,34.3374032 12.50067,33.6703974 C13.2596557,33.2317563 14.1220624,33 14.9952068,33 C16.7782298,33 18.4380519,33.9581143 19.3281505,35.5007066 C19.9955832,36.6566616 20.1730378,38.0036742 19.8277361,39.2935956 C19.4818692,40.583517 18.6550664,41.6614663 17.4987859,42.3296026 C16.7398002,42.7676785 15.8773935,43 15.0042491,43 Z" id="Stroke-23" stroke="#202020"></path>
                    <path d="M52.0059641,35.1950254 C51.0047504,35.1950254 50.0725079,35.7326173 49.5727491,36.598078 C49.19793,37.2464669 49.0984305,38.0016959 49.2929068,38.7258338 C49.4868177,39.4499717 49.9503949,40.0548332 50.599403,40.4296213 C51.0251026,40.6749576 51.5084666,40.8049746 51.9963534,40.8049746 C52.9981324,40.8049746 53.9303749,40.267948 54.4301337,39.4024873 C55.2035162,38.0633126 54.7427657,36.3442623 53.4040451,35.5703787 C52.9777802,35.3244771 52.4938509,35.1950254 52.0059641,35.1950254 M51.9963534,43 C51.1234714,43 50.2607655,42.7676653 49.5015165,42.3295647 C48.3454002,41.6619559 47.5183106,40.5839457 47.1723237,39.2933861 C46.8269021,38.0028265 47.0044183,36.656303 47.6720825,35.5008479 C48.5619246,33.9581685 50.2228879,33 52.0059641,33 C52.8794114,33 53.7421173,33.2312041 54.5019316,33.6704353 C56.8887889,35.048615 57.7096598,38.1124929 56.3308003,40.5002826 C55.4403928,42.0423968 53.7799949,43 51.9963534,43" id="Fill-25" fill="#202020"></path>
                    <path d="M52.0059641,35.1950254 C51.0047504,35.1950254 50.0725079,35.7326173 49.5727491,36.598078 C49.19793,37.2464669 49.0984305,38.0016959 49.2929068,38.7258338 C49.4868177,39.4499717 49.9503949,40.0548332 50.599403,40.4296213 C51.0251026,40.6749576 51.5084666,40.8049746 51.9963534,40.8049746 C52.9981324,40.8049746 53.9303749,40.267948 54.4301337,39.4024873 C55.2035162,38.0633126 54.7427657,36.3442623 53.4040451,35.5703787 C52.9777802,35.3244771 52.4938509,35.1950254 52.0059641,35.1950254 Z M51.9963534,43 C51.1234714,43 50.2607655,42.7676653 49.5015165,42.3295647 C48.3454002,41.6619559 47.5183106,40.5839457 47.1723237,39.2933861 C46.8269021,38.0028265 47.0044183,36.656303 47.6720825,35.5008479 C48.5619246,33.9581685 50.2228879,33 52.0059641,33 C52.8794114,33 53.7421173,33.2312041 54.5019316,33.6704353 C56.8887889,35.048615 57.7096598,38.1124929 56.3308003,40.5002826 C55.4403928,42.0423968 53.7799949,43 51.9963534,43 Z" id="Stroke-27" stroke="#202020"></path>
                    <mask id="mask-2" fill="white">
                        <use xlink:href="#path-1"></use>
                    </mask>
                    <g id="Clip-30"></g>
                    <polygon id="Fill-29" fill="#202020" mask="url(#mask-2)" points="32 50 34 50 34 37 32 37"></polygon>
                    <polygon id="Stroke-31" stroke="#202020" mask="url(#mask-2)" points="32 50 34 50 34 37 32 37"></polygon>
                    <polygon id="Fill-32" fill="#202020" mask="url(#mask-2)" points="42.0672654 23 41 21.1878453 51.9327346 15 53 16.8126937"></polygon>
                    <polygon id="Stroke-33" stroke="#202020" mask="url(#mask-2)" points="42.0672654 23 41 21.1878453 51.9327346 15 53 16.8126937"></polygon>
                    <polygon id="Fill-34" fill="#202020" mask="url(#mask-2)" points="23.9327835 23 13 16.8126937 14.0672165 15 25 21.1878453"></polygon>
                    <polygon id="Stroke-35" stroke="#202020" mask="url(#mask-2)" points="23.9327835 23 13 16.8126937 14.0672165 15 25 21.1878453"></polygon>
                </g>
            </g>
        </g>
    </g>
</svg>