<?xml version="1.0" encoding="UTF-8" standalone="no"?>
<svg width="91px" height="82px" viewBox="0 0 91 82" version="1.1" xmlns="http://www.w3.org/2000/svg" xmlns:xlink="http://www.w3.org/1999/xlink">
    <!-- Generator: sketchtool 46.2 (44496) - http://www.bohemiancoding.com/sketch -->
    <title>507B605C-F076-4A32-8A81-4EA846090766</title>
    <desc>Created with sketchtool.</desc>
    <defs>
        <polygon id="path-1" points="0 74 49 74 49 0 0 0"></polygon>
    </defs>
    <g id="boryung" stroke="none" stroke-width="1" fill="none" fill-rule="evenodd">
        <g id="web_main" transform="translate(-1193.000000, -14097.000000)">
            <g id="Group-23" transform="translate(1193.000000, 14097.000000)">
                <g id="Page-1">
                    <path d="M24.5,37.5362319 L24.5,34.8223572 C27.3103991,34.8223572 30.0608506,34.3001091 32.678561,33.2688786 C32.8940868,33.1830009 33.1153219,33.0873485 33.3372706,32.9875069 C35.775852,31.9269523 37.9639382,30.4530677 39.8587096,28.6000645 C43.9644043,24.5770786 46.2259977,19.2386978 46.2259977,13.5672791 L46.2259977,0 L49,0 L49,13.5672791 C49,19.9627235 46.4500874,25.9818421 41.8205651,30.5173014 C39.6831488,32.6076901 37.2145936,34.2700868 34.48127,35.4591088 C34.2400524,35.5687251 33.979566,35.6797377 33.7212205,35.7830702 C30.7659482,36.9469573 27.6665162,37.5362319 24.5,37.5362319 Z" id="Fill-1" fill="#333333"></path>
                    <path d="M2.73910166,74 L0,74 L0,60.0765018 C0,59.7483337 0.00634377637,59.4194491 0.0197361932,59.091281 C0.124056071,56.3799535 0.663277063,53.7309635 1.62048243,51.2195462 C2.71725088,48.3111745 4.34548682,45.6607515 6.45866921,43.3435123 L6.86537576,42.8985507 L22.3695652,42.8999838 L22.3695652,45.6843968 L8.07139814,45.6829638 C6.38888767,47.62976 5.07925028,49.8266232 4.17631945,52.221247 C3.32695828,54.4496373 2.84976532,56.7969706 2.7560184,59.2030588 C2.74474058,59.4961172 2.73910166,59.785593 2.73910166,60.0765018 L2.73910166,74 Z" id="Fill-3" fill="#333333"></path>
                    <path d="M49,74 L46.2266709,74 L46.2266709,60.1242413 C46.2266709,54.3198858 43.966472,48.8618351 39.8628585,44.7547305 C35.7578176,40.6490539 30.3017958,38.3877187 24.5003568,38.3877187 C17.956699,38.3877187 11.8034198,35.8386291 7.17525743,31.208854 C2.54780874,26.5762228 0,20.4205641 0,13.8757587 L0,0 L2.77404273,0 L2.77404273,13.8757587 C2.77404273,19.6801142 5.03352802,25.138879 9.13642785,29.2466976 C13.2414687,33.3516601 18.6967768,35.6122813 24.5003568,35.6122813 C31.0425873,35.6122813 37.1951529,38.162799 41.8247426,42.7925741 C46.4521913,47.4237772 49,53.5794359 49,60.1242413 L49,74 Z" id="Fill-5" fill="#333333"></path>
                    <mask id="mask-2" fill="white">
                        <use xlink:href="#path-1"></use>
                    </mask>
                    <g id="Clip-8"></g>
                    <polygon id="Fill-7" fill="#333333" mask="url(#mask-2)" points="26.6304348 8.57971014 47.9347826 8.57971014 47.9347826 5.36231884 26.6304348 5.36231884"></polygon>
                    <polygon id="Fill-9" fill="#333333" mask="url(#mask-2)" points="26.6304348 17.1594203 47.9347826 17.1594203 47.9347826 13.942029 26.6304348 13.942029"></polygon>
                    <polygon id="Fill-10" fill="#333333" mask="url(#mask-2)" points="26.6304348 23.5942029 45.8043478 23.5942029 45.8043478 20.3768116 26.6304348 20.3768116"></polygon>
                    <polygon id="Fill-11" fill="#333333" mask="url(#mask-2)" points="26.6304348 32.173913 40.4782609 32.173913 40.4782609 28.9565217 26.6304348 28.9565217"></polygon>
                    <polygon id="Fill-12" fill="#333333" mask="url(#mask-2)" points="5.32608696 8.57971014 22.3695652 8.57971014 22.3695652 5.36231884 5.32608696 5.36231884"></polygon>
                    <polygon id="Fill-13" fill="#333333" mask="url(#mask-2)" points="5.32608696 17.1594203 22.3695652 17.1594203 22.3695652 13.942029 5.32608696 13.942029"></polygon>
                    <polygon id="Fill-14" fill="#333333" mask="url(#mask-2)" points="7.45652174 23.5942029 22.3695652 23.5942029 22.3695652 20.3768116 7.45652174 20.3768116"></polygon>
                    <polygon id="Fill-15" fill="#333333" mask="url(#mask-2)" points="15.9782609 32.173913 22.3695652 32.173913 22.3695652 28.9565217 15.9782609 28.9565217"></polygon>
                    <polygon id="Fill-16" fill="#333333" mask="url(#mask-2)" points="1.06521739 68.6376812 22.3695652 68.6376812 22.3695652 65.4202899 1.06521739 65.4202899"></polygon>
                    <polygon id="Fill-17" fill="#333333" mask="url(#mask-2)" points="1.06521739 60.057971 22.3695652 60.057971 22.3695652 56.8405797 1.06521739 56.8405797"></polygon>
                    <polygon id="Fill-18" fill="#333333" mask="url(#mask-2)" points="3.19565217 53.6231884 22.3695652 53.6231884 22.3695652 50.4057971 3.19565217 50.4057971"></polygon>
                    <polygon id="Fill-19" fill="#333333" mask="url(#mask-2)" points="26.6304348 68.6376812 43.673913 68.6376812 43.673913 65.4202899 26.6304348 65.4202899"></polygon>
                    <polygon id="Fill-20" fill="#333333" mask="url(#mask-2)" points="26.6304348 60.057971 43.673913 60.057971 43.673913 56.8405797 26.6304348 56.8405797"></polygon>
                    <polygon id="Fill-21" fill="#333333" mask="url(#mask-2)" points="26.6304348 53.6231884 41.5434783 53.6231884 41.5434783 50.4057971 26.6304348 50.4057971"></polygon>
                    <polygon id="Fill-22" fill="#333333" mask="url(#mask-2)" points="26.6304348 46.115942 33.0217391 46.115942 33.0217391 42.8985507 26.6304348 42.8985507"></polygon>
                </g>
                <g id="Group-16" transform="translate(40.000000, 52.000000)" stroke="#333333" stroke-width="2.5">
                    <path d="M15.6853191,9.41436667 C7.03638298,9.69147778 0.266170213,12.1887 0.266170213,15.2272556 L0.266170213,22.8832556 C0.266170213,26.1076259 7.88638298,28.7219222 17.2874468,28.7219222 C22.3395745,28.7219222 26.8778723,27.9668481 29.9959574,26.7681815" id="Stroke-12" fill="#FFFFFF"></path>
                    <path d="M15.9865957,15.0536852 L8.89085106,20.1780926" id="Stroke-14"></path>
                    <path d="M20.7762766,21.0924519 C19.6496809,21.1730074 18.4826596,21.2148963 17.2869149,21.2148963 C7.88691489,21.2148963 0.265638298,18.6006 0.265638298,15.3762296" id="Stroke-10"></path>
                    <path d="M48.6590426,20.1106407 C50.8973404,15.937863 46.0111702,8.89086296 37.7452128,4.37008519 C29.4803191,-0.149618519 20.9643617,-0.4321 18.7260638,3.74067778 L15.6856383,9.40749259 C13.4473404,13.5802704 18.3335106,20.6272704 26.5994681,25.1480481 C34.8643617,29.6677519 43.3803191,29.9502333 45.618617,25.7774556 L48.6590426,20.1106407 Z" id="Stroke-4" fill="#FFFFFF"></path>
                    <path d="M48.6590426,20.1106407 C46.4207447,24.2834185 37.9047872,24.0020111 29.6388298,19.4812333 C21.3728723,14.9604556 16.4867021,7.91345556 18.7260638,3.74067778" id="Stroke-2"></path>
                    <path d="M44.2659574,9.49116296 L20.8297872,12.885237" id="Stroke-1"></path>
                </g>
            </g>
        </g>
    </g>
</svg>