<?xml version="1.0" encoding="UTF-8" standalone="no"?>
<svg width="66px" height="58px" viewBox="0 0 66 58" version="1.1" xmlns="http://www.w3.org/2000/svg" xmlns:xlink="http://www.w3.org/1999/xlink">
    <!-- Generator: sketchtool 46.2 (44496) - http://www.bohemiancoding.com/sketch -->
    <title>63937711-8322-4878-9E3B-BA1AF43AC27A</title>
    <desc>Created with sketchtool.</desc>
    <defs>
        <polygon id="path-1" points="0 58 66 58 66 0 0 0"></polygon>
    </defs>
    <g id="boryung" stroke="none" stroke-width="1" fill="none" fill-rule="evenodd">
        <g id="web_main" transform="translate(-1149.000000, -11747.000000)">
            <g id="Page-1" transform="translate(1149.000000, 11747.000000)">
                <path d="M49,52.51001 C48.6532712,55.4987344 46.0826313,57 42.9639362,57 L29.0761427,57 C25.7197706,57 23,54.314106 23,50.9995398 C23,47.685894 25.7197706,45 29.0761427,45 L42.6843162,45 L49,52.51001 Z" id="Stroke-1" stroke="#FFFFFF" stroke-width="2"></path>
                <path d="M38,57 C36.3432355,57 35,54.3133916 35,51 C35,47.6866084 36.3432355,45 38,45" id="Stroke-3" stroke="#FFFFFF" stroke-width="2"></path>
                <path d="M48.9100641,33.7390608 C49.4468127,30.2357778 47.5428567,26.716877 44.2191446,25.4576864 L44.2191446,25.4576864 C40.4487676,24.0306037 36.280521,26.0521415 34.9086217,29.9732024 L30,44" id="Stroke-5" stroke="#FFFFFF" stroke-width="2"></path>
                <path d="M43,41 C42.3635139,40.5575898 40.5374379,39.522494 39.7907016,39.1702489 C36.0681378,37.4114277 32.5808978,37.6638901 32,39.7340815" id="Stroke-7" stroke="#FFFFFF" stroke-width="2"></path>
                <polyline id="Stroke-9" stroke="#FFFFFF" stroke-width="2" points="23.2071188 55 23.2071188 16.0499354 18.7656951 9 5.44142377 9 1 16.0499354 1 54.8265291 24 54.8265291"></polyline>
                <mask id="mask-2" fill="white">
                    <use xlink:href="#path-1"></use>
                </mask>
                <g id="Clip-12"></g>
                <polygon id="Stroke-11" stroke="#FFFFFF" stroke-width="2" mask="url(#mask-2)" points="6 10 20 10 20 6 6 6"></polygon>
                <polygon id="Stroke-13" stroke="#FFFFFF" stroke-width="2" mask="url(#mask-2)" points="4 6 21 6 21 1 4 1"></polygon>
                <path d="M1,17 L18,17" id="Stroke-14" stroke="#FFFFFF" stroke-width="2" mask="url(#mask-2)"></path>
                <path d="M16,17 L24,17" id="Stroke-15" stroke="#FFFFFF" stroke-width="2" mask="url(#mask-2)"></path>
                <polygon id="Stroke-16" stroke="#FFFFFF" stroke-width="2" mask="url(#mask-2)" points="1 42 17 42 17 24 1 24"></polygon>
                <path d="M8,30 L8,38" id="Stroke-17" stroke="#FFFFFF" stroke-width="2" mask="url(#mask-2)"></path>
                <path d="M12,34 L4,34" id="Stroke-18" stroke="#FFFFFF" stroke-width="2" mask="url(#mask-2)"></path>
                <polygon id="Fill-19" fill="#FFFFFF" mask="url(#mask-2)" points="47 43.1545643 47.2193034 41 64 42.8454357 63.7796998 45"></polygon>
                <path d="M59.9581464,53.6813189 C57.4136972,53.0307745 54.5325113,51.3980357 51.8803453,48.9293032 C46.5915399,44.0045939 44.5061008,37.8867294 47.1340063,35 L48.6236057,36.3884167 C47.0573429,38.1084836 48.5731437,43.0645916 53.2534938,47.4221597 C57.9348144,51.7797277 62.9421971,52.8983108 64.5104007,51.1782439 L66,52.5666607 C64.6899289,54.0051193 62.48998,54.3289197 59.9581464,53.6813189" id="Fill-20" fill="#FFFFFF" mask="url(#mask-2)"></path>
                <path d="M52.2221806,36.2347512 C50.4681217,35.7784937 49.0622884,35.9571946 48.3667611,36.7337828 L45.5126053,39.9247335 C44.7671996,40.7574033 44.7385656,42.3172336 45.4350166,44.2030978 C46.2256824,46.3465573 47.8180981,48.6221414 49.9185351,50.6135152 C52.0189721,52.6039384 54.3549462,54.0497042 56.4941775,54.683712 C58.3683141,55.2312209 59.8868358,55.0848383 60.6322415,54.2512179 L63.4882447,51.0602673 C64.2327267,50.2275974 64.2613606,48.6677672 63.5658334,46.781903 C62.7751676,44.6384434 61.1827518,42.3628593 59.0813912,40.3714856 C56.7010807,38.1177638 54.2330211,36.7584968 52.2221806,36.2347512 M56.3353054,56.695047 C56.2106093,56.6627287 56.0859131,56.6285094 55.9602933,56.590488 C53.5384175,55.872833 50.9281119,54.2683276 48.611535,52.0725885 C46.294958,49.8778 44.5261204,47.3341646 43.6310793,44.9083958 C42.6519838,42.2554487 42.8163979,40.0074301 44.0947642,38.5797245 L46.9489199,35.3887738 C49.4502319,32.5941968 55.3534389,34.1416701 60.3883913,38.9124122 C62.7049683,41.1072007 64.4738059,43.6517867 65.368847,46.076605 C66.3479425,48.729552 66.1835283,50.9775706 64.9060858,52.4052763 L62.0500827,55.5962269 C60.83545,56.955494 58.8144491,57.3404612 56.3353054,56.695047" id="Fill-21" fill="#FFFFFF" mask="url(#mask-2)"></path>
            </g>
        </g>
    </g>
</svg>