<?xml version="1.0" encoding="UTF-8" standalone="no"?>
<svg width="50px" height="50px" viewBox="0 0 50 50" version="1.1" xmlns="http://www.w3.org/2000/svg" xmlns:xlink="http://www.w3.org/1999/xlink">
    <!-- Generator: Sketch 46.2 (44496) - http://www.bohemiancoding.com/sketch -->
    <title>Page 1</title>
    <desc>Created with Sketch.</desc>
    <defs></defs>
    <g id="boryung" stroke="none" stroke-width="1" fill="none" fill-rule="evenodd">
        <g id="web" transform="translate(-955.000000, -12068.000000)" fill="#FFFFFF">
            <g id="9_graphic_1" transform="translate(0.000000, 11458.000000)">
                <g id="Page-1" transform="translate(955.000000, 610.000000)">
                    <path d="M7.75203125,42.2028125 L42.2029688,42.2028125 L42.2029688,7.751875 L7.75203125,7.751875 L7.75203125,42.2028125 Z M5.93890625,44.0160937 L44.01625,44.0160937 L44.01625,5.93875 L5.93890625,5.93875 L5.93890625,44.0160937 Z" id="Fill-1"></path>
                    <path d="M12.1845312,37.7704687 L37.770625,37.7704687 L37.770625,12.184375 L12.1845312,12.184375 L12.1845312,37.7704687 Z M10.3714062,39.5835937 L39.5839063,39.5835937 L39.5839063,10.3710938 L10.3714062,10.3710938 L10.3714062,39.5835937 Z" id="Fill-2"></path>
                    <polygon id="Fill-3" points="13.9307813 4.16265625 15.8040625 4.16265625 15.8040625 -5.68434189e-14 13.9307813 -5.68434189e-14"></polygon>
                    <polygon id="Fill-4" points="17.9745312 4.16265625 19.8478125 4.16265625 19.8478125 -5.68434189e-14 17.9745312 -5.68434189e-14"></polygon>
                    <polygon id="Fill-5" points="22.0189063 4.16265625 23.8923438 4.16265625 23.8923438 -5.68434189e-14 22.0189063 -5.68434189e-14"></polygon>
                    <polygon id="Fill-6" points="26.0628125 4.16265625 27.9360937 4.16265625 27.9360937 -5.68434189e-14 26.0628125 -5.68434189e-14"></polygon>
                    <polygon id="Fill-7" points="30.106875 4.16265625 31.9801563 4.16265625 31.9801563 -5.68434189e-14 30.106875 -5.68434189e-14"></polygon>
                    <polygon id="Fill-8" points="34.1501563 4.16265625 36.0234375 4.16265625 36.0234375 -5.68434189e-14 34.1501563 -5.68434189e-14"></polygon>
                    <polygon id="Fill-9" points="13.9307813 49.9546875 15.8040625 49.9546875 15.8040625 45.7920312 13.9307813 45.7920312"></polygon>
                    <polygon id="Fill-10" points="17.9745312 49.9546875 19.8478125 49.9546875 19.8478125 45.7920312 17.9745312 45.7920312"></polygon>
                    <polygon id="Fill-11" points="22.0189063 49.9546875 23.8923438 49.9546875 23.8923438 45.7920312 22.0189063 45.7920312"></polygon>
                    <polygon id="Fill-12" points="26.0628125 49.9546875 27.9360937 49.9546875 27.9360937 45.7920312 26.0628125 45.7920312"></polygon>
                    <polygon id="Fill-13" points="30.106875 49.9546875 31.9801563 49.9546875 31.9801563 45.7920312 30.106875 45.7920312"></polygon>
                    <polygon id="Fill-14" points="34.1501563 49.9546875 36.0234375 49.9546875 36.0234375 45.7920312 34.1501563 45.7920312"></polygon>
                    <polygon id="Fill-15" points="45.7920313 15.8045313 49.9551563 15.8045313 49.9551563 13.93125 45.7920313 13.93125"></polygon>
                    <polygon id="Fill-16" points="45.7920313 19.8484375 49.9551563 19.8484375 49.9551563 17.975 45.7920313 17.975"></polygon>
                    <polygon id="Fill-17" points="45.7920313 23.891875 49.9551563 23.891875 49.9551563 22.0185938 45.7920313 22.0185938"></polygon>
                    <polygon id="Fill-18" points="45.7920313 27.9357813 49.9551563 27.9357813 49.9551563 26.0623438 45.7920313 26.0623438"></polygon>
                    <polygon id="Fill-19" points="45.7920313 31.9801563 49.9551563 31.9801563 49.9551563 30.106875 45.7920313 30.106875"></polygon>
                    <polygon id="Fill-20" points="45.7920313 36.0235937 49.9551563 36.0235937 49.9551563 34.1503125 45.7920313 34.1503125"></polygon>
                    <polygon id="Fill-21" points="0 15.8045313 4.16265625 15.8045313 4.16265625 13.93125 0 13.93125"></polygon>
                    <polygon id="Fill-22" points="0 19.8484375 4.16265625 19.8484375 4.16265625 17.975 0 17.975"></polygon>
                    <polygon id="Fill-23" points="0 23.891875 4.16265625 23.891875 4.16265625 22.0185938 0 22.0185938"></polygon>
                    <polygon id="Fill-24" points="0 27.9357813 4.16265625 27.9357813 4.16265625 26.0623438 0 26.0623438"></polygon>
                    <polygon id="Fill-25" points="0 31.9801563 4.16265625 31.9801563 4.16265625 30.106875 0 30.106875"></polygon>
                    <polygon id="Fill-26" points="0 36.0235937 4.16265625 36.0235937 4.16265625 34.1503125 0 34.1503125"></polygon>
                    <polygon id="Fill-27" points="18.8685937 21.311875 21.3121875 21.311875 21.3121875 18.8682812 18.8685937 18.8682812"></polygon>
                    <polygon id="Fill-28" points="23.7557812 21.311875 26.199375 21.311875 26.199375 18.8682812 23.7557812 18.8682812"></polygon>
                    <polygon id="Fill-29" points="28.6429688 21.311875 31.0865625 21.311875 31.0865625 18.8682812 28.6429688 18.8682812"></polygon>
                    <polygon id="Fill-30" points="18.8685937 26.1990625 21.3121875 26.1990625 21.3121875 23.7554687 18.8685937 23.7554687"></polygon>
                    <polygon id="Fill-31" points="23.7557812 26.1990625 26.199375 26.1990625 26.199375 23.7554687 23.7557812 23.7554687"></polygon>
                    <polygon id="Fill-32" points="28.6429688 26.1990625 31.0865625 26.1990625 31.0865625 23.7554687 28.6429688 23.7554687"></polygon>
                    <polygon id="Fill-33" points="18.8685937 31.0864062 21.3121875 31.0864062 21.3121875 28.6428125 18.8685937 28.6428125"></polygon>
                    <polygon id="Fill-34" points="23.7557812 31.0864062 26.199375 31.0864062 26.199375 28.6428125 23.7557812 28.6428125"></polygon>
                    <polygon id="Fill-35" points="28.6429688 31.0864062 31.0865625 31.0864062 31.0865625 28.6428125 28.6429688 28.6428125"></polygon>
                </g>
            </g>
        </g>
    </g>
</svg>