<?xml version="1.0" encoding="UTF-8" standalone="no"?>
<svg width="52px" height="52px" viewBox="0 0 52 52" version="1.1" xmlns="http://www.w3.org/2000/svg" xmlns:xlink="http://www.w3.org/1999/xlink">
    <!-- Generator: Sketch 46.2 (44496) - http://www.bohemiancoding.com/sketch -->
    <title>Page 1</title>
    <desc>Created with Sketch.</desc>
    <defs>
        <polygon id="path-1" points="0 52 52 52 52 0 0 0"></polygon>
    </defs>
    <g id="boryung" stroke="none" stroke-width="1" fill="none" fill-rule="evenodd">
        <g id="web" transform="translate(-859.000000, -12176.000000)">
            <g id="9_graphic_1" transform="translate(0.000000, 11458.000000)">
                <g id="Page-1" transform="translate(859.000000, 718.000000)">
                    <g id="Group-3" fill="#FFFFFF">
                        <path d="M29.8315147,48.8652939 C28.7919445,49.385122 27.8950519,49.834041 25.9850618,49.834041 C24.0750717,49.834041 23.1771478,49.385122 22.1374916,48.8652939 C21.0154089,48.3042096 19.7431709,47.6680906 17.3212602,47.6680906 C15.9700337,47.6680906 14.9768767,47.8663782 14.1677395,48.1390988 C10.8522023,46.9565071 8.38087008,44.2378955 7.5216238,40.8032311 L5.68666843,33.4593699 L24.9084469,31.5370889 L24.9084469,43.3361898 L27.0743974,43.3361898 L27.0743974,31.5370889 L46.2960899,33.4593699 L44.4612205,40.8032311 C43.6013726,44.2416774 41.1282354,46.960203 37.8084866,48.1410757 C36.9978023,47.8673236 36.0024965,47.6680906 34.6467147,47.6680906 C32.2259213,47.6680906 30.9536833,48.3042096 29.8315147,48.8652939 L29.8315147,48.8652939 Z M8.66381884,27.0915617 L9.74679405,27.0915617 L17.3276205,27.0915617 L17.3276205,30.1185633 L8.66381884,30.9849435 L8.66381884,27.0915617 Z M11.9127445,24.9256112 L24.9084469,24.9256112 L24.9084469,22.7596608 L11.9127445,22.7596608 L11.9127445,24.9256112 Z M14.0786949,20.5937104 L37.9041494,20.5937104 L37.9041494,18.42776 L14.0786949,18.42776 L14.0786949,20.5937104 Z M14.0786949,9.76395835 L37.9041494,9.76395835 L37.9041494,8.68098314 L14.0786949,8.68098314 L14.0786949,9.76395835 Z M35.738199,16.2618096 L37.9041494,16.2618096 L37.9041494,11.9299088 L35.738199,11.9299088 L35.738199,16.2618096 Z M31.4062982,16.2618096 L33.5722486,16.2618096 L33.5722486,11.9299088 L31.4062982,11.9299088 L31.4062982,16.2618096 Z M27.0743974,16.2618096 L29.2403478,16.2618096 L29.2403478,11.9299088 L27.0743974,11.9299088 L27.0743974,16.2618096 Z M22.7424965,16.2618096 L24.9084469,16.2618096 L24.9084469,11.9299088 L22.7424965,11.9299088 L22.7424965,16.2618096 Z M18.4105957,16.2618096 L20.5765461,16.2618096 L20.5765461,11.9299088 L18.4105957,11.9299088 L18.4105957,16.2618096 Z M14.0786949,16.2618096 L16.2446453,16.2618096 L16.2446453,11.9299088 L14.0786949,11.9299088 L14.0786949,16.2618096 Z M27.0743974,24.9256112 L40.0700998,24.9256112 L40.0700998,22.7596608 L27.0743974,22.7596608 L27.0743974,24.9256112 Z M25.9914221,29.2522691 L19.4935709,29.9019683 L19.4935709,27.0915617 L32.4892734,27.0915617 L32.4892734,29.9019683 L25.9914221,29.2522691 Z M43.3190255,27.0915617 L43.3190255,30.9849435 L34.6552238,30.1185633 L34.6552238,27.0915617 L42.2360502,27.0915617 L43.3190255,27.0915617 Z M47.1644469,48.8652939 C46.1247907,49.385122 45.2258354,49.834041 43.3148139,49.834041 C42.0050155,49.834041 41.1706949,49.6231187 40.4406321,49.3231517 C43.4765726,47.6436807 45.6968436,44.7884079 46.5615907,41.3289038 L49.0056767,31.5535914 L45.4849759,31.2014526 L45.4849759,24.9256112 L42.2360502,24.9256112 L42.2360502,20.5937104 L40.0700998,20.5937104 L40.0700998,18.42776 L40.0700998,9.76395835 L40.0700998,8.68098314 L41.153075,8.68098314 L41.153075,6.51503273 L40.0700998,6.51503273 L33.5804139,6.51503273 L33.6293197,0.0250889256 L31.4633693,0.00927404959 L31.4143775,6.51503273 L20.5847114,6.51503273 L20.6336172,0.0250889256 L18.4676668,0.00927404959 L18.418675,6.51503273 L11.9127445,6.51503273 L10.8297693,6.51503273 L10.8297693,8.68098314 L11.9127445,8.68098314 L11.9127445,9.76395835 L11.9127445,18.42776 L11.9127445,20.5937104 L9.74679405,20.5937104 L9.74679405,24.9256112 L6.49786843,24.9256112 L6.49786843,31.2014526 L2.97708165,31.5535914 L5.42125355,41.3289038 C6.28488331,44.7857435 8.50377917,47.6402426 11.5376569,49.3204013 C10.8067345,49.6219154 9.97258579,49.834041 8.65960727,49.834041 C6.7506486,49.834041 5.85272463,49.385122 4.81418579,48.8652939 C3.69201719,48.3042096 2.42081058,47.6680906 1.71900826e-05,47.6680906 L1.71900826e-05,49.834041 C1.90897587,49.834041 2.80681388,50.28296 3.84543868,50.8027881 C4.96752132,51.3638724 6.23872793,51.9999914 8.65960727,51.9999914 C11.0804007,51.9999914 12.3526387,51.3638724 13.4748073,50.8027881 C14.5143775,50.28296 15.4112701,49.834041 17.3212602,49.834041 C19.2312502,49.834041 20.1291742,50.28296 21.1687445,50.8027881 C22.2909131,51.3638724 23.5631511,51.9999914 25.9850618,51.9999914 C28.4058552,51.9999914 29.6781792,51.3638724 30.8002618,50.8027881 C31.839918,50.28296 32.7367246,49.834041 34.6467147,49.834041 C36.5578221,49.834041 37.4567775,50.28296 38.4963478,50.8027881 C39.6195478,51.3638724 40.8917858,51.9999914 43.3148139,51.9999914 C45.737756,51.9999914 47.009994,51.3638724 48.133194,50.8027881 C49.1727643,50.28296 50.0717197,49.834041 51.9828271,49.834041 L51.9828271,47.6680906 C49.559885,47.6680906 48.287561,48.3042096 47.1644469,48.8652939 L47.1644469,48.8652939 Z" id="Fill-1"></path>
                    </g>
                    <mask id="mask-2" fill="white">
                        <use xlink:href="#path-1"></use>
                    </mask>
                    <g id="Clip-5"></g>
                    <polygon id="Fill-4" fill="#FFFFFF" mask="url(#mask-2)" points="29.8518519 36.5925926 31.7777778 36.5925926 31.7777778 34.6666667 29.8518519 34.6666667"></polygon>
                    <polygon id="Fill-6" fill="#FFFFFF" mask="url(#mask-2)" points="20.2222222 36.5925926 22.1481481 36.5925926 22.1481481 34.6666667 20.2222222 34.6666667"></polygon>
                </g>
            </g>
        </g>
    </g>
</svg>