<?xml version="1.0" encoding="UTF-8" standalone="no"?>
<svg width="48px" height="28px" viewBox="0 0 48 28" version="1.1" xmlns="http://www.w3.org/2000/svg" xmlns:xlink="http://www.w3.org/1999/xlink">
    <!-- Generator: Sketch 46.2 (44496) - http://www.bohemiancoding.com/sketch -->
    <title>Page 1</title>
    <desc>Created with Sketch.</desc>
    <defs></defs>
    <g id="boryung" stroke="none" stroke-width="1" fill="none" fill-rule="evenodd">
        <g id="web" transform="translate(-1051.000000, -12700.000000)" stroke="#FFFFFF" stroke-width="2">
            <g id="10_graphic_2" transform="translate(260.000000, 12508.000000)">
                <g id="Group-6" transform="translate(745.000000, 0.000000)">
                    <g id="Page-1" transform="translate(47.000000, 193.000000)">
                        <path d="M45.4895,17.991 C43.3855,21.876 35.3805,21.614 27.6105,17.405 C19.8405,13.196 15.2475,6.635 17.3525,2.75" id="Stroke-1"></path>
                        <path d="M45.4895,17.991 C47.5935,14.106 43.0005,7.545 35.2305,3.336 C27.4615,-0.872 19.4565,-1.135 17.3525,2.75 L14.4945,8.026 C12.3905,11.911 16.9835,18.472 24.7535,22.681 C32.5225,26.889 40.5275,27.152 42.6315,23.267 L45.4895,17.991 Z" id="Stroke-3"></path>
                        <path d="M19.2797,18.9051 C18.2207,18.9801 17.1237,19.0191 15.9997,19.0191 C7.1637,19.0191 -0.0003,16.5851 -0.0003,13.5831" id="Stroke-5"></path>
                        <path d="M14.4942,8.0324 C6.3642,8.2904 0.0002,10.6154 0.0002,13.4444 L0.0002,20.5724 C0.0002,23.5744 7.1632,26.0084 16.0002,26.0084 C20.7492,26.0084 25.0152,25.3054 27.9462,24.1894" id="Stroke-7"></path>
                    </g>
                </g>
            </g>
        </g>
    </g>
</svg>