<?xml version="1.0" encoding="UTF-8" standalone="no"?>
<svg width="50px" height="34px" viewBox="0 0 50 34" version="1.1" xmlns="http://www.w3.org/2000/svg" xmlns:xlink="http://www.w3.org/1999/xlink">
    <!-- Generator: Sketch 46.2 (44496) - http://www.bohemiancoding.com/sketch -->
    <title>Page 1 Copy 3</title>
    <desc>Created with Sketch.</desc>
    <defs>
        <polygon id="path-1" points="49.9277228 0.0308522394 49.9277228 34 0 34 0 0.0308522394"></polygon>
    </defs>
    <g id="boryung" stroke="none" stroke-width="1" fill="none" fill-rule="evenodd">
        <g id="web" transform="translate(-1220.000000, -12694.000000)">
            <g id="10_graphic_2" transform="translate(260.000000, 12508.000000)">
                <g id="Group-6" transform="translate(745.000000, 0.000000)">
                    <g id="Page-1-Copy-3" transform="translate(215.000000, 186.000000)">
                        <g id="Group-3">
                            <mask id="mask-2" fill="white">
                                <use xlink:href="#path-1"></use>
                            </mask>
                            <g id="Clip-2"></g>
                            <path d="M44.8259983,11.1642114 C44.8503383,11.1150629 44.8747607,11.0658302 44.9000908,11.0166817 C45.1844142,10.4460876 45.7000908,10.0484391 46.3143647,9.92514703 L47.7417574,9.63993416 L47.8351568,9.71702327 L47.8788036,10.8002262 L44.8259983,11.1642114 Z M46.4066914,31.8792163 L39.9071865,31.8792163 C39.692995,31.8792163 39.5183251,31.7016421 39.5183251,31.4830827 L39.5183251,29.7584243 L45.6168399,29.7584243 C46.0253383,29.7584243 46.4237706,29.6754441 46.7955528,29.5178153 L46.7955528,31.4830827 C46.7955528,31.7016421 46.6209653,31.8792163 46.4066914,31.8792163 L46.4066914,31.8792163 Z M46.6757508,22.3615728 L37.6716254,22.1590876 C37.4523185,22.1538698 37.2543812,22.0451371 37.1294637,21.8613351 C37.0056188,21.6775332 36.9761634,21.4513153 37.0492657,21.2400777 L37.2523185,20.6502955 L46.6625495,19.661855 L46.6757508,22.3615728 Z M34.462467,26.8837411 C34.1599092,25.4547312 33.0918399,24.4564441 31.8644472,24.4564441 L18.0104868,24.4564441 C16.7830941,24.4564441 15.7150248,25.4547312 15.412467,26.8837411 L15.3962954,26.9583054 C15.3130446,27.3518302 14.9657673,27.6376322 14.5718729,27.6376322 L4.25809406,27.6376322 C3.90685644,27.6376322 3.65405116,27.4538302 3.50372112,27.2994837 C3.32500825,27.1155134 3.19835809,26.8756619 3.13218647,26.610647 L3.13218647,25.5168401 L3.08457921,25.5168401 L3.09258251,24.4868252 L12.3140347,24.2793748 C13.2064439,24.2586718 14.0104868,23.8175134 14.5180776,23.067746 C15.0267409,22.3180629 15.147533,21.39535 14.8510809,20.5358401 L14.2094142,18.6786322 L3.487467,17.5522559 C3.5815264,17.3097114 3.69307756,17.0755827 3.822533,16.8529837 L4.12203795,16.3351569 C4.56073432,15.5717559 5.4405198,14.0414193 6.21593234,13.3200975 L6.56667492,13.0532312 L23.7699752,11.9864391 C23.9162624,11.9774342 24.0632921,11.9718797 24.2102393,11.9662411 C24.2701403,11.9638847 24.3297112,11.9604342 24.3897772,11.9586668 C24.5440677,11.9542064 24.6985231,11.9525233 24.8530611,11.9515975 C25.2317739,11.9499144 25.6107343,11.9586668 25.9862294,11.9802114 L26.7566914,12.023553 L43.3344967,13.051548 C44.1474505,13.5384045 45.2549587,15.461845 45.7660974,16.3497163 L46.0564439,16.8513847 C46.1867244,17.0767609 46.2986881,17.3134144 46.3927475,17.5583153 L35.7294637,18.6786322 L35.087797,20.5348302 C34.7903548,21.3938351 34.9111469,22.3169688 35.4188201,23.0667361 C35.927401,23.8170084 36.7315264,24.2586718 37.6249257,24.2793748 L46.7823515,24.4853946 L46.7955528,26.1749589 C46.7986056,26.6082906 46.6443152,27.0183946 46.3712129,27.2994837 C46.2209653,27.4538302 45.9681601,27.6376322 45.6168399,27.6376322 L35.3030611,27.6376322 C34.9091667,27.6376322 34.5619719,27.3518302 34.462467,26.8837411 L34.462467,26.8837411 Z M10.4094142,31.4830827 C10.4094142,31.7016421 10.2348267,31.8792163 10.0205528,31.8792163 L3.52104785,31.8792163 C3.30685644,31.8792163 3.13218647,31.7016421 3.13218647,31.4830827 L3.13218647,29.5391074 C3.48886964,29.6825975 3.86890264,29.7584243 4.25809406,29.7584243 L10.4094142,29.7584243 L10.4094142,31.4830827 Z M3.26725248,19.660845 L12.6865594,20.6502955 L12.8896122,21.2400777 C12.9627145,21.4513153 12.9332591,21.6775332 12.8084241,21.8619243 C12.6835891,22.0457262 12.4865594,22.1538698 12.267335,22.1590876 L3.26114686,22.3615728 L3.26725248,19.660845 Z M2.09258251,9.71702327 L2.18598185,9.63993416 L3.61337459,9.92514703 C4.22764851,10.0484391 4.74340759,10.4460876 5.02764851,11.0155876 C5.05306106,11.0679342 5.07938119,11.1196916 5.10479373,11.1709441 L2.07938119,10.8348995 L2.09258251,9.71702327 Z M9.15660891,6.48045891 C9.73631188,4.50307277 11.0256683,3.33394406 13.0977805,2.90785 L14.3586716,2.74626584 C21.3962954,1.95357772 28.5334241,1.95357772 35.5528135,2.74424604 L36.7964604,2.90372624 C38.9396122,3.49805297 40.2401898,4.66827574 40.7711304,6.47995396 L42.0247607,10.7600827 L26.8251733,9.90335 L26.2836716,9.86977079 C25.8461304,9.84233515 25.4044637,9.8288698 24.9638696,9.8288698 C24.582764,9.8288698 24.2010809,9.83955792 23.8217904,9.86009257 C23.8058663,9.86093416 23.7898597,9.86118663 23.7740182,9.86202822 L7.90586634,10.7502361 L9.15660891,6.48045891 Z M49.927566,10.8090629 L49.9143647,9.69169158 C49.907269,9.03668663 49.6169224,8.42418168 49.1184076,8.01045891 C48.6199752,7.59833515 47.9762459,7.43422624 47.3417574,7.55844406 L45.9143647,7.84374109 C45.052401,8.01660248 44.2872195,8.45540446 43.7063614,9.09172624 L42.7630446,5.87258267 C42.012797,3.31223119 40.1619719,1.61753317 37.262467,0.835196535 L35.7964604,0.637929208 C28.607599,-0.171843069 21.3181601,-0.171843069 14.1150248,0.63994901 L12.8013284,0.808265842 L12.7302888,0.820216337 C9.89060231,1.39072624 7.96675743,3.13768663 7.16469472,5.87308762 L6.2215429,9.09155792 C5.64060231,8.45548861 4.87542079,8.01668663 4.0134571,7.84374109 L2.58598185,7.55844406 C1.9555363,7.43574109 1.30883663,7.59732525 0.809331683,8.01045891 C0.310816832,8.42418168 0.020470297,9.03668663 0.0133745875,9.69118663 L0.000173267327,10.8074639 C-0.0140181518,11.8792213 0.762632013,12.7817361 1.80735149,12.9065431 L3.64860561,13.1261124 C3.15388614,13.8273203 2.71527228,14.5892064 2.32814356,15.2623896 L2.03573432,15.7677609 C1.40322607,16.8566025 1.06411716,18.1188946 1.05297855,19.418553 L1.00017327,26.1572856 C0.998358086,26.3817361 1.01700495,26.6040827 1.05297855,26.8221371 L1.05297855,31.4830827 C1.05297855,32.8707708 2.16065182,34.0000084 3.52104785,34.0000084 L10.0205528,34.0000084 C11.3810314,34.0000084 12.4886221,32.8707708 12.4886221,31.4830827 L12.4886221,29.7584243 L14.5718729,29.7584243 C15.9373845,29.7584243 17.1394472,28.7694787 17.427731,27.4098153 L17.4450578,27.3311272 C17.5434901,26.865647 17.8156023,26.5772361 18.0104868,26.5772361 L31.8644472,26.5772361 C32.0593317,26.5772361 32.3314439,26.865647 32.4461304,27.4077114 C32.7354868,28.7694787 33.9375495,29.7584243 35.3030611,29.7584243 L37.4391172,29.7584243 L37.4391172,31.4830827 C37.4391172,32.8707708 38.5467079,34.0000084 39.9071865,34.0000084 L46.4066914,34.0000084 C47.76717,34.0000084 48.8747607,32.8707708 48.8747607,31.4830827 L48.8747607,25.5168401 L48.8697277,25.5168401 L48.8219554,19.4097163 C48.8108168,18.1163698 48.4747607,16.8592114 47.8372195,15.7558104 L47.5590017,15.275855 C47.1699752,14.6000629 46.7289686,13.8349787 46.2340017,13.1314985 L48.1204703,12.9065431 C49.1651073,12.7817361 49.9417574,11.8792213 49.927566,10.8090629 L49.927566,10.8090629 Z" id="Fill-1" fill="#FFFFFF" mask="url(#mask-2)"></path>
                        </g>
                        <path d="M30.7456681,21.2514376 C30.7243803,21.3221369 30.6529881,21.3714029 30.5710385,21.3714029 L19.4290117,21.3714029 C19.3469756,21.3714029 19.27567,21.3221369 19.2692663,21.3078737 L18.894479,19.42852 L31.1513488,19.4783257 L30.7456681,21.2514376 Z M31.1055713,17.4857143 L18.894479,17.4857143 C18.2225271,17.4857143 17.5932374,17.7517813 17.1684323,18.2161457 C16.7435406,18.6800475 16.5774781,19.2824183 16.7126473,19.86829 L17.1481829,21.7541971 C17.423973,22.6730573 18.3620231,23.3142857 19.4290117,23.3142857 L30.5710385,23.3142857 C31.6379406,23.3142857 32.5760772,22.6730573 32.8667515,21.6977609 L33.2873164,19.8687526 C33.4225722,19.2824183 33.2564231,18.6800475 32.8316179,18.2161457 C32.4067263,17.7517813 31.7774366,17.4857143 31.1055713,17.4857143 L31.1055713,17.4857143 Z" id="Fill-4" fill="#FFFFFF"></path>
                    </g>
                </g>
            </g>
        </g>
    </g>
</svg>