<?xml version="1.0" encoding="UTF-8" standalone="no"?>
<svg width="176px" height="55px" viewBox="0 0 176 55" version="1.1" xmlns="http://www.w3.org/2000/svg" xmlns:xlink="http://www.w3.org/1999/xlink">
    <!-- Generator: sketchtool 46.2 (44496) - http://www.bohemiancoding.com/sketch -->
    <title>9BA86686-9D2B-4899-85AE-91D2FBA72267</title>
    <desc>Created with sketchtool.</desc>
    <defs>
        <polygon id="path-1" points="0 0.197704918 0 52.384918 175.0146 52.384918 175.0146 0.197704918 0 0.197704918"></polygon>
        <path d="M0.133,18.7445902 C0.133,8.78163934 8.112,0.678688525 17.918,0.678688525 C27.724,0.678688525 35.701,8.78163934 35.701,18.7445902 C35.701,22.5167213 34.433,26.3144262 32.038,29.727541 L18.637,48.8055738 C18.471,49.0416393 18.204,49.1803279 17.918,49.1803279 C17.634,49.1803279 17.366,49.0416393 17.2,48.8055738 L3.801,29.7295082 C1.366,26.2632787 0.133,22.5668852 0.133,18.7445902 Z M5.237,28.6878689 L17.918,46.74 L30.601,28.6859016 C32.813,25.5354098 33.935,22.1891803 33.935,18.7445902 C33.935,9.77114754 26.75,2.47180328 17.918,2.47180328 C9.086,2.47180328 1.898,9.77114754 1.898,18.7445902 C1.898,22.1862295 3.022,25.532459 5.237,28.6878689 Z" id="path-3"></path>
        <polygon id="path-5" points="0 59.0163934 175.015 59.0163934 175.015 0.678688525 0 0.678688525"></polygon>
    </defs>
    <g id="Symbols" stroke="none" stroke-width="1" fill="none" fill-rule="evenodd">
        <g id="pham_street_icon">
            <g id="Page-1" transform="translate(0.000000, -3.000000)">
                <g id="Group-6" transform="translate(0.000000, 4.239246)">
                    <mask id="mask-2" fill="white">
                        <use xlink:href="#path-1"></use>
                    </mask>
                    <g id="Clip-2"></g>
                    <path d="M61.238,16.7508197 L68.08,16.7508197 L68.08,10.9819672 L61.238,10.9819672 L61.238,16.7508197 Z M69.057,18.6737705 L60.261,18.6737705 C59.721,18.6737705 59.283,18.2429508 59.283,17.7118033 L59.283,10.0209836 C59.283,9.48983607 59.721,9.05901639 60.261,9.05901639 L69.057,9.05901639 C69.597,9.05901639 70.035,9.48983607 70.035,10.0209836 L70.035,17.7118033 C70.035,18.2429508 69.597,18.6737705 69.057,18.6737705 L69.057,18.6737705 Z M75.899,16.7508197 L82.741,16.7508197 L82.741,10.9819672 L75.899,10.9819672 L75.899,16.7508197 Z M83.719,18.6737705 L74.922,18.6737705 C74.382,18.6737705 73.945,18.2429508 73.945,17.7118033 L73.945,10.0209836 C73.945,9.48983607 74.382,9.05901639 74.922,9.05901639 L83.719,9.05901639 C84.259,9.05901639 84.696,9.48983607 84.696,10.0209836 L84.696,17.7118033 C84.696,18.2429508 84.259,18.6737705 83.719,18.6737705 L83.719,18.6737705 Z M123.212,27.5577049 L129.78,27.5891803 L129.805,22.0622951 L123.237,22.0318033 L123.212,27.5577049 Z M130.719,29.4491803 L130.714,29.4491803 L122.26,29.4088525 C121.739,29.4059016 121.319,28.9898361 121.321,28.4763934 L121.355,21.0954098 C121.356,20.8485246 121.457,20.6134426 121.634,20.4403279 C121.812,20.2662295 122.074,20.1983607 122.303,20.1718033 L130.758,20.2111475 C131.278,20.2131148 131.699,20.6301639 131.696,21.142623 L131.662,28.5255738 C131.661,28.7714754 131.561,29.0065574 131.383,29.1796721 C131.206,29.3518033 130.968,29.4491803 130.719,29.4491803 L130.719,29.4491803 Z M61.238,29.2485246 L68.08,29.2485246 L68.08,23.4796721 L61.238,23.4796721 L61.238,29.2485246 Z M69.057,31.1714754 L60.261,31.1714754 C59.721,31.1714754 59.283,30.7416393 59.283,30.2104918 L59.283,22.5186885 C59.283,21.987541 59.721,21.5577049 60.261,21.5577049 L69.057,21.5577049 C69.597,21.5577049 70.035,21.987541 70.035,22.5186885 L70.035,30.2104918 C70.035,30.7416393 69.597,31.1714754 69.057,31.1714754 L69.057,31.1714754 Z M75.899,29.2485246 L82.741,29.2485246 L82.741,23.4796721 L75.899,23.4796721 L75.899,29.2485246 Z M83.719,31.1714754 L74.922,31.1714754 C74.382,31.1714754 73.945,30.7416393 73.945,30.2104918 L73.945,22.5186885 C73.945,21.987541 74.382,21.5577049 74.922,21.5577049 L83.719,21.5577049 C84.259,21.5577049 84.696,21.987541 84.696,22.5186885 L84.696,30.2104918 C84.696,30.7416393 84.259,31.1714754 83.719,31.1714754 L83.719,31.1714754 Z M123.212,39.6196721 L129.78,39.6491803 L129.805,34.1213115 L123.237,34.0918033 L123.212,39.6196721 Z M130.719,41.5091803 L130.714,41.5091803 L122.26,41.4698361 C121.739,41.4678689 121.319,41.0508197 121.321,40.5383607 L121.355,33.1554098 C121.356,32.9095082 121.457,32.6744262 121.634,32.5013115 C121.812,32.3272131 122.074,32.2111475 122.303,32.2318033 L130.758,32.2711475 C131.278,32.2731148 131.699,32.6901639 131.696,33.2036066 L131.662,40.5855738 C131.661,40.8314754 131.561,41.0665574 131.383,41.2396721 C131.206,41.4118033 130.968,41.5091803 130.719,41.5091803 L130.719,41.5091803 Z M61.238,41.7472131 L68.08,41.7472131 L68.08,35.9783607 L61.238,35.9783607 L61.238,41.7472131 Z M69.057,43.6701639 L60.261,43.6701639 C59.721,43.6701639 59.283,43.2403279 59.283,42.7081967 L59.283,35.017377 C59.283,34.4862295 59.721,34.0554098 60.261,34.0554098 L69.057,34.0554098 C69.597,34.0554098 70.035,34.4862295 70.035,35.017377 L70.035,42.7081967 C70.035,43.2403279 69.597,43.6701639 69.057,43.6701639 L69.057,43.6701639 Z M75.899,41.7472131 L82.741,41.7472131 L82.741,35.9783607 L75.899,35.9783607 L75.899,41.7472131 Z M83.719,43.6701639 L74.922,43.6701639 C74.382,43.6701639 73.945,43.2403279 73.945,42.7081967 L73.945,35.017377 C73.945,34.4862295 74.382,34.0554098 74.922,34.0554098 L83.719,34.0554098 C84.259,34.0554098 84.696,34.4862295 84.696,35.017377 L84.696,42.7081967 C84.696,43.2403279 84.259,43.6701639 83.719,43.6701639 L83.719,43.6701639 Z M124.2,9.05901639 C123.313,9.05901639 122.593,9.76918033 122.593,10.6416393 L122.593,11.9242623 C122.593,12.7967213 123.313,13.5059016 124.2,13.5059016 L129.415,13.5059016 C130.302,13.5059016 131.022,12.7967213 131.022,11.9242623 L131.022,10.6416393 C131.022,9.76918033 130.302,9.05901639 129.415,9.05901639 L124.2,9.05901639 Z M139.519,52.3337705 L137.519,52.3239344 L137.691,16.0347541 L116.864,15.9393443 L116.691,52.2295082 L114.691,52.2206557 L114.869,14.9468852 C114.872,14.4059016 115.319,13.9681967 115.869,13.9681967 L115.874,13.9681967 L121.271,13.9927869 C120.844,13.4104918 120.593,12.6954098 120.593,11.9242623 L120.593,10.6416393 C120.593,8.6842623 122.211,7.09180328 124.2,7.09180328 L129.415,7.09180328 C131.404,7.09180328 133.022,8.6842623 133.022,10.6416393 L133.022,11.9242623 C133.022,12.7170492 132.756,13.4518033 132.308,14.0429508 L138.701,14.072459 C138.966,14.0734426 139.22,14.1786885 139.406,14.3636066 C139.594,14.5485246 139.697,14.7993443 139.696,15.0609836 L139.519,52.3337705 Z M92.696,32.6881967 L109.601,32.6881967 L109.634,24.1377049 L92.707,24.0442623 L92.696,32.6881967 Z M53.696,50.3616393 L90.606,50.3616393 L90.696,26.8691803 L90.696,2.16491803 L53.696,2.16491803 L53.696,50.3616393 Z M92.696,50.3193443 L109.532,50.4118033 L109.593,34.6554098 L92.696,34.6554098 L92.696,50.3193443 Z M110.528,52.384918 L110.522,52.384918 L91.999,52.282623 C91.903,52.3121311 91.802,52.3288525 91.696,52.3288525 L52.696,52.3288525 C52.144,52.3288525 51.696,51.8891803 51.696,51.3452459 L51.696,1.18131148 C51.696,0.638360656 52.144,0.197704918 52.696,0.197704918 L91.696,0.197704918 C92.249,0.197704918 92.696,0.638360656 92.696,1.18131148 L92.696,22.0770492 L110.644,22.1763934 C111.195,22.1793443 111.64,22.6209836 111.638,23.1639344 L111.528,51.4042623 C111.527,51.6659016 111.421,51.9157377 111.232,52.0996721 C111.045,52.2816393 110.792,52.384918 110.528,52.384918 L110.528,52.384918 Z" id="Fill-1" fill="#303030" mask="url(#mask-2)"></path>
                    <path d="M138.6729,21.8279016 C138.1249,21.8279016 137.6789,21.3941311 137.6729,20.8541311 C137.6669,20.3111803 138.1109,19.8656066 138.6629,19.8606885 L143.9349,19.8085574 L143.9439,19.8085574 C144.4919,19.8085574 144.9389,20.2423279 144.9439,20.7833115 C144.9499,21.3262623 144.5069,21.7708525 143.9539,21.7757705 L138.6829,21.8279016 L138.6729,21.8279016 Z" id="Fill-3" fill="#303030" mask="url(#mask-2)"></path>
                    <path d="M151.7637,14.0815082 C148.0017,14.0815082 144.9417,17.0933115 144.9417,20.794623 C144.9417,24.4959344 148.0017,27.5067541 151.7637,27.5067541 C155.5257,27.5067541 158.5857,24.4959344 158.5857,20.794623 C158.5857,17.0933115 155.5257,14.0815082 151.7637,14.0815082 M151.7637,29.4739672 C146.8997,29.4739672 142.9417,25.5798689 142.9417,20.794623 C142.9417,16.0083934 146.8997,12.1142951 151.7637,12.1142951 C156.6277,12.1142951 160.5857,16.0083934 160.5857,20.794623 C160.5857,25.5798689 156.6277,29.4739672 151.7637,29.4739672" id="Fill-4" fill="#303030" mask="url(#mask-2)"></path>
                    <path d="M174.0146,52.3845246 L0.9996,52.3845246 C0.4476,52.3845246 -0.0004,51.9448525 -0.0004,51.400918 C-0.0004,50.8569836 0.4476,50.4173115 0.9996,50.4173115 L174.0146,50.4173115 C174.5676,50.4173115 175.0146,50.8569836 175.0146,51.400918 C175.0146,51.9448525 174.5676,52.3845246 174.0146,52.3845246" id="Fill-5" fill="#303030" mask="url(#mask-2)"></path>
                </g>
                <g id="Group-9" transform="translate(7.000000, 5.222852)">
                    <mask id="mask-4" fill="white">
                        <use xlink:href="#path-3"></use>
                    </mask>
                    <g id="Clip-8"></g>
                    <polygon id="Fill-7" fill="#161616" mask="url(#mask-4)" points="-4.867 54.0983607 40.701 54.0983607 40.701 -4.23934426 -4.867 -4.23934426"></polygon>
                </g>
                <g id="Group-18" transform="translate(0.000000, 0.304820)">
                    <path d="M24.9185,7.63613115 C16.2235,7.63613115 9.1485,14.8253115 9.1485,23.6620328 C9.1485,27.0535082 10.2575,30.351541 12.4425,33.466623 L24.9185,51.2256393 L37.3955,33.4636721 C39.5785,30.356459 40.6845,27.0584262 40.6845,23.6620328 C40.6845,14.8253115 33.6115,7.63613115 24.9185,7.63613115 Z M24.9185,52.0902295 L12.0315,33.7459672 C9.7875,30.5472787 8.6485,27.1548197 8.6485,23.6620328 C8.6485,14.5538361 15.9475,7.14432787 24.9185,7.14432787 C33.8875,7.14432787 41.1845,14.5538361 41.1845,23.6620328 C41.1845,27.1597377 40.0485,30.5512131 37.8065,33.7430164 L24.9185,52.0902295 Z M24.9185,5.84301639 C15.2495,5.84301639 7.3835,13.8367869 7.3835,23.6620328 C7.3835,27.4351475 8.6025,31.0843279 11.0065,34.5082623 L24.4055,53.5833443 C24.6435,53.9226885 25.1965,53.9207213 25.4315,53.5843279 L38.8325,34.5043279 C41.1995,31.1344918 42.4515,27.3849836 42.4515,23.6620328 C42.4515,13.8367869 34.5855,5.84301639 24.9185,5.84301639 Z M24.9185,54.3436721 C24.5505,54.3436721 24.2055,54.1646557 23.9945,53.8626885 L10.5955,34.7876066 C8.1325,31.2800656 6.8835,27.536459 6.8835,23.6620328 C6.8835,13.5653115 14.9735,5.35121311 24.9185,5.35121311 C34.8615,5.35121311 42.9515,13.5653115 42.9515,23.6620328 C42.9515,27.4853115 41.6685,31.3312131 39.2435,34.7856393 L25.8425,53.8636721 C25.6325,54.1646557 25.2865,54.3436721 24.9185,54.3436721 Z" id="Fill-10" fill="#363F43"></path>
                    <mask id="mask-6" fill="white">
                        <use xlink:href="#path-5"></use>
                    </mask>
                    <g id="Clip-13"></g>
                    <polygon id="Fill-12" fill="#D0242C" mask="url(#mask-6)" points="16.229 26.9901639 33.604 26.9901639 33.604 20.8003279 16.229 20.8003279"></polygon>
                    <polygon id="Fill-14" fill="#D0242C" mask="url(#mask-6)" points="21.771 32.4403279 28.064 32.4403279 28.064 15.3501639 21.771 15.3501639"></polygon>
                    <polygon id="Fill-15" fill="#D0242C" mask="url(#mask-6)" points="147.823 26.182623 155.705 26.182623 155.705 23.3744262 147.823 23.3744262"></polygon>
                    <polygon id="Fill-16" fill="#D0242C" mask="url(#mask-6)" points="150.336 28.6554098 153.191 28.6554098 153.191 20.902623 150.336 20.902623"></polygon>
                    <path d="M24.918,12.3030492 C18.472,12.3030492 13.227,17.4620656 13.227,23.8023934 C13.227,30.1437049 18.472,35.3017377 24.918,35.3017377 C31.365,35.3017377 36.609,30.1437049 36.609,23.8023934 C36.609,17.4620656 31.365,12.3030492 24.918,12.3030492 M24.918,37.2689508 C17.369,37.2689508 11.227,31.228623 11.227,23.8023934 C11.227,16.3771475 17.369,10.3358361 24.918,10.3358361 C32.467,10.3358361 38.609,16.3771475 38.609,23.8023934 C38.609,31.228623 32.467,37.2689508 24.918,37.2689508" id="Fill-17" fill="#141414" mask="url(#mask-6)"></path>
                </g>
            </g>
        </g>
    </g>
</svg>