<?xml version="1.0" encoding="UTF-8" standalone="no"?>
<svg width="16px" height="14px" viewBox="0 0 16 14" version="1.1" xmlns="http://www.w3.org/2000/svg" xmlns:xlink="http://www.w3.org/1999/xlink">
    <!-- Generator: Sketch 46.2 (44496) - http://www.bohemiancoding.com/sketch -->
    <title>up-arrow</title>
    <desc>Created with Sketch.</desc>
    <defs></defs>
    <g id="boryung" stroke="none" stroke-width="1" fill="none" fill-rule="evenodd">
        <g id="web" transform="translate(-527.000000, -9168.000000)" fill="#EEEEEE">
            <g id="8_product_ad" transform="translate(0.000000, 7593.000000)">
                <g id="bt" transform="translate(300.000000, 1557.000000)">
                    <g id="up-arrow" transform="translate(228.800000, 17.000000)">
                        <path d="M7.35175102,0.165232358 C7.26738666,0.0688468158 7.1348141,0 7.00224155,0 C6.86966899,0 6.73709643,0.0688468158 6.65273207,0.165232358 L0.14462461,7.60068847 C-0.0482082034,7.82099828 -0.0482082034,8.17900172 0.14462461,8.39931153 C0.241041017,8.50946644 0.361561526,8.56454389 0.494134085,8.56454389 C0.626706644,8.56454389 0.747227153,8.50946644 0.84364356,8.39931153 L6.50810746,1.92771084 L6.50810746,15.4354561 C6.50810746,15.7521515 6.72504438,16 7.00224155,16 C7.27943871,16 7.49637563,15.7521515 7.49637563,15.4354561 L7.49637563,1.92771084 L13.1608395,8.39931153 C13.3536723,8.61962134 13.6670257,8.61962134 13.8598585,8.39931153 C14.0526913,8.17900172 14.0406392,7.82099828 13.8598585,7.60068847 L7.35175102,0.165232358 Z" id="up-arrow-copy-2" transform="translate(7.000000, 8.000000) rotate(-270.000000) translate(-7.000000, -8.000000) "></path>
                    </g>
                </g>
            </g>
        </g>
    </g>
</svg>